<?xml version="1.0" encoding="UTF-8"?>
<!DOCTYPE svg PUBLIC "-//W3C//DTD SVG 1.1//EN" "http://www.w3.org/Graphics/SVG/1.1/DTD/svg11.dtd">
<!-- Creator: CorelDRAW -->
<svg xmlns="http://www.w3.org/2000/svg" xml:space="preserve" width="1.79999in" height="0.94in" version="1.1" style="shape-rendering:geometricPrecision; text-rendering:geometricPrecision; image-rendering:optimizeQuality; fill-rule:evenodd; clip-rule:evenodd"
viewBox="0 0 1266.06 661.17"
 xmlns:xlink="http://www.w3.org/1999/xlink"
 xmlns:xodm="http://www.corel.com/coreldraw/odm/2003">
 <defs>
  <style type="text/css">
   <![CDATA[
    .fil0 {fill:#598B2C;fill-rule:nonzero}
    .fil1 {fill:#75B545;fill-rule:nonzero}
    .fil2 {fill:#7FC844;fill-rule:nonzero}
   ]]>
  </style>
 </defs>
 <g id="Layer_x0020_1">
  <metadata id="CorelCorpID_0Corel-Layer"/>
  <path class="fil0" d="M120.04 331.05c29.07,0 52.99,-24.85 52.99,-55.33 0,-28.13 -23.91,-52.99 -52.99,-52.99 -31.42,0 -55.33,24.85 -55.33,52.99 0,30.48 23.91,55.33 55.33,55.33z"/>
  <path class="fil1" d="M174.2 332.23c29.07,0 52.99,-24.85 52.99,-55.33 0,-28.13 -23.91,-52.99 -52.99,-52.99 -31.42,0 -55.33,24.85 -55.33,52.99 0,30.48 23.91,55.33 55.33,55.33z"/>
  <path class="fil2" d="M228.36 333.4c29.07,0 52.99,-24.85 52.99,-55.33 0,-28.13 -23.91,-52.99 -52.99,-52.99 -31.42,0 -55.33,24.85 -55.33,52.99 0,30.48 23.91,55.33 55.33,55.33zm158.96 -5.63l80.18 0 31.88 -124.73 32.83 124.73 80.18 0 82.53 -242.43 -86.75 0 -35.64 120.98 -36.1 -120.98 -74.09 0 -35.64 120.98 -36.11 -120.98 -86.75 0 83.47 242.43zm439.84 -61.9c-22.98,0 -40.8,-15.01 -47.83,-37.98l171.62 0c0,-93.31 -45.95,-148.18 -123.79,-148.18 -75.03,0 -128.01,52.05 -128.01,126.14 0,74.56 54.39,127.55 131.77,127.55 37.04,0 78.31,-15.47 99.88,-37.51l-49.7 -50.17c-15.94,12.66 -35.64,20.16 -53.92,20.16zm0 -118.63c19.69,0 35.17,13.13 41.73,33.29l-88.16 0c7.97,-20.16 24.85,-33.29 46.42,-33.29zm327.77 -67.52c-31.42,0 -58.14,12.66 -77.37,34.23l0 -113.95 -90.5 0 0 329.39 90.5 0 0 -30.22c19.23,21.57 45.95,34.23 77.37,34.23 65.18,0 111.13,-52.52 111.13,-127.07 0,-74.09 -45.95,-126.61 -111.13,-126.61zm-28.6 178.66c-28.6,0 -48.77,-21.57 -48.77,-52.05 0,-30.01 20.17,-51.58 48.77,-51.58 31.42,0 53.46,21.57 53.46,51.58 0,30.48 -22.04,52.05 -53.46,52.05zm-1010.97 402.8c65.65,0 105.51,-31.89 105.51,-82.06 0,-57.21 -50.67,-71.64 -94.72,-81.59 -24.41,-5.52 -35.17,-7.03 -35.17,-15.01 0,-7.03 8.44,-13.6 21.1,-13.6 22.98,0 50.64,12.66 70.81,25.79l30.48 -55.33c-27.66,-18.29 -63.77,-31.88 -101.29,-31.88 -63.3,0 -101.29,36.58 -101.29,83.47 0,57.21 49.22,68.06 93.32,77.37 22.49,4.75 36.58,9.38 36.58,17.82 0,7.97 -6.1,12.19 -22.98,12.19 -25.79,0 -60.49,-12.19 -83.93,-28.6l-33.76 54.86c29.54,22.98 73.15,36.58 115.35,36.58zm257.43 -67.52c-22.98,0 -40.8,-15.01 -47.83,-37.98l171.62 0c0,-93.31 -45.95,-148.18 -123.79,-148.18 -75.03,0 -128.01,52.05 -128.01,126.14 0,74.56 54.39,127.55 131.77,127.55 37.04,0 78.31,-15.47 99.88,-37.51l-49.7 -50.17c-15.94,12.66 -35.64,20.16 -53.92,20.16zm0 -118.63c19.69,0 35.17,13.13 41.73,33.29l-88.16 0c7.97,-20.16 24.85,-33.29 46.42,-33.29zm276.66 118.63c-22.98,0 -40.8,-15.01 -47.83,-37.98l171.62 0c0,-93.31 -45.95,-148.18 -123.79,-148.18 -75.03,0 -128.01,52.05 -128.01,126.14 0,74.56 54.39,127.55 131.77,127.55 37.04,0 78.31,-15.47 99.88,-37.51l-49.7 -50.17c-15.94,12.66 -35.64,20.16 -53.92,20.16zm0 -118.63c19.69,0 35.17,13.13 41.73,33.29l-88.16 0c7.97,-20.16 24.85,-33.29 46.42,-33.29zm337.62 -147.24l0 113.95c-19.22,-21.57 -45.95,-34.23 -77.37,-34.23 -65.18,0 -111.13,52.52 -111.13,126.61 0,74.56 45.95,127.07 111.13,127.07 31.42,0 58.15,-12.66 77.37,-34.23l0 28.6 90.5 0 0 -327.77 -90.5 0zm-48.77 258.37c-31.42,0 -53.46,-21.57 -53.46,-52.05 0,-30.01 22.04,-51.58 53.46,-51.58 28.6,0 48.77,21.57 48.77,51.58 0,30.48 -20.16,52.05 -48.77,52.05z"/>
 </g>
</svg>
