<?xml version="1.0" encoding="UTF-8"?>
<!DOCTYPE svg PUBLIC "-//W3C//DTD SVG 1.1//EN" "http://www.w3.org/Graphics/SVG/1.1/DTD/svg11.dtd">
<!-- Creator: CorelDRAW -->
<svg xmlns="http://www.w3.org/2000/svg" xml:space="preserve" width="1.22133in" height="0.362331in" version="1.1" style="shape-rendering:geometricPrecision; text-rendering:geometricPrecision; image-rendering:optimizeQuality; fill-rule:evenodd; clip-rule:evenodd"
viewBox="0 0 757.97 224.86"
 xmlns:xlink="http://www.w3.org/1999/xlink"
 xmlns:xodm="http://www.corel.com/coreldraw/odm/2003">
 <defs>
  <style type="text/css">
   <![CDATA[
    .fil0 {fill:#598B2C;fill-rule:nonzero}
    .fil1 {fill:#75B545;fill-rule:nonzero}
    .fil2 {fill:#7FC844;fill-rule:nonzero}
   ]]>
  </style>
 </defs>
 <g id="Layer_x0020_1">
  <metadata id="CorelCorpID_0Corel-Layer"/>
  <path class="fil0" d="M48.82 223.83c25.65,0 46.75,-21.93 46.75,-48.82 0,-24.82 -21.1,-46.75 -46.75,-46.75 -27.72,0 -48.82,21.93 -48.82,46.75 0,26.89 21.1,48.82 48.82,48.82z"/>
  <path class="fil1" d="M96.61 224.86c25.65,0 46.75,-21.93 46.75,-48.82 0,-24.82 -21.1,-46.75 -46.75,-46.75 -27.72,0 -48.82,21.93 -48.82,46.75 0,26.89 21.1,48.82 48.82,48.82z"/>
  <path class="fil2" d="M144.39 223.83c25.65,0 46.75,-21.93 46.75,-48.82 0,-24.82 -21.1,-46.75 -46.75,-46.75 -27.72,0 -48.82,21.93 -48.82,46.75 0,26.89 21.1,48.82 48.82,48.82zm140.26 -4.96l70.75 0 28.13 -110.06 28.96 110.06 70.75 0 72.82 -213.9 -76.54 0 -31.44 106.74 -31.86 -106.74 -65.37 0 -31.44 106.74 -31.86 -106.74 -76.54 0 73.65 213.9zm380.22 4.96c57.92,0 93.09,-28.13 93.09,-72.4 0,-50.48 -44.68,-63.3 -83.58,-71.99 -21.51,-4.96 -31.03,-6.21 -31.03,-13.24 0,-6.21 7.45,-12 18.62,-12 20.27,0 44.68,11.17 62.48,22.76l26.89 -48.82c-24.41,-16.14 -56.27,-28.13 -89.37,-28.13 -55.85,0 -89.37,32.27 -89.37,73.64 0,50.48 43.44,59.99 82.34,68.27 19.86,4.14 32.27,8.28 32.27,15.72 0,7.03 -5.38,10.76 -20.27,10.76 -22.75,0 -53.37,-10.76 -74.06,-25.24l-29.79 48.41c26.07,20.27 64.54,32.27 101.78,32.27z"/>
 </g>
</svg>
