<svg width="308" height="45" viewBox="0 0 308 45" fill="none" xmlns="http://www.w3.org/2000/svg">
<g id="vector">
<path id="p3" d="M7.40863 44.3293C11.2996 44.3293 14.5022 40.9983 14.5022 36.9206C14.5022 33.1522 11.2996 29.827 7.40863 29.827C3.20263 29.827 0 33.158 0 36.9206C0 41.0041 3.20263 44.3293 7.40863 44.3293Z" fill="#598B2C"/>
<path id="p2" d="M14.6598 44.4867C18.5508 44.4867 21.7535 41.1558 21.7535 37.0781C21.7535 33.3096 18.5508 29.9845 14.6598 29.9845C10.4538 29.9845 7.25122 33.3155 7.25122 37.0781C7.25122 41.1616 10.4538 44.4867 14.6598 44.4867Z" fill="#75B545"/>
<path id="p1" d="M21.9167 44.6385C25.8077 44.6385 29.0103 41.3133 29.0103 37.2298C29.0103 33.4614 25.8077 30.1362 21.9167 30.1362C17.7107 30.1362 14.5081 33.4672 14.5081 37.2298C14.5081 41.3133 17.7107 44.6385 21.9167 44.6385V44.6385Z" fill="#7FC844"/>
<path id="s" d="M178.77 44.6443C187.561 44.6443 192.898 40.3741 192.898 33.6538C192.898 25.9944 186.114 24.0459 180.216 22.7276C176.949 21.975 175.509 21.7884 175.509 20.7208C175.509 19.7816 176.64 18.9007 178.332 18.9007C181.412 18.9007 185.116 20.5983 187.812 22.3542L191.895 14.9456C188.191 12.4955 183.355 10.6754 178.332 10.6754C169.856 10.6754 164.769 15.5756 164.769 21.8525C164.769 29.512 171.361 30.9587 177.265 32.2129C180.28 32.843 182.165 33.4672 182.165 34.5989C182.165 35.6664 181.348 36.2323 179.09 36.2323C175.637 36.2323 170.988 34.5989 167.849 32.3996L163.328 39.7441C167.283 42.8184 173.123 44.6443 178.775 44.6443H178.77Z" fill="#7FC844"/>
<path id="w" d="M43.2035 43.8976H53.9372L58.2074 27.1961L62.6059 43.8976H73.3397L84.3943 11.4338H72.7738L68.002 27.6395L63.1718 11.4338H53.2489L48.477 27.6395L43.641 11.4338H32.0264L43.2035 43.8976Z" fill="#7FC844"/>
<g id="group-letters">
<path id="Vector" d="M102.099 35.6022C99.0247 35.6022 96.6329 33.5955 95.6937 30.5154H118.678C118.678 18.0199 112.524 10.6754 102.099 10.6754C92.0536 10.6754 84.9541 17.6465 84.9541 27.5636C84.9541 37.5507 92.2402 44.6443 102.601 44.6443C107.559 44.6443 113.089 42.5734 115.977 39.6216L109.321 32.9013C107.186 34.5989 104.549 35.6022 102.099 35.6022V35.6022ZM102.099 19.7174C104.736 19.7174 106.807 21.4733 107.688 24.1743H95.8804C96.9479 21.4733 99.2113 19.7174 102.099 19.7174Z" fill="#7FC844"/>
<path id="Vector_2" d="M102.099 35.6022C99.0247 35.6022 96.6329 33.5955 95.6937 30.5154H118.678C118.678 18.0199 112.524 10.6754 102.099 10.6754C92.0536 10.6754 84.9541 17.6465 84.9541 27.5636C84.9541 37.5507 92.2402 44.6443 102.601 44.6443C107.559 44.6443 113.089 42.5734 115.977 39.6216L109.321 32.9013C107.186 34.5989 104.549 35.6022 102.099 35.6022V35.6022ZM102.099 19.7174C104.736 19.7174 106.807 21.4733 107.688 24.1743H95.8804C96.9479 21.4733 99.2113 19.7174 102.099 19.7174Z" fill="#7FC844"/>
<path id="Vector_3" d="M145.991 10.6754C141.785 10.6754 138.203 12.373 135.63 15.2606V0H123.514V43.8918H135.63V40.0591C138.203 42.9467 141.785 44.6443 145.991 44.6443C154.718 44.6443 160.872 37.609 160.872 27.6278C160.872 17.7049 154.718 10.6754 145.991 10.6754V10.6754ZM142.158 34.5989C138.326 34.5989 135.63 31.7113 135.63 27.6278C135.63 23.6084 138.331 20.7208 142.158 20.7208C146.364 20.7208 149.316 23.6084 149.316 27.6278C149.316 31.7113 146.364 34.5989 142.158 34.5989Z" fill="#7FC844"/>
<path id="Vector_4" d="M213.246 35.6022C210.172 35.6022 207.78 33.5955 206.841 30.5154H229.825C229.825 18.0199 223.67 10.6754 213.246 10.6754C203.201 10.6754 196.101 17.6465 196.101 27.5636C196.101 37.5507 203.387 44.6443 213.748 44.6443C218.706 44.6443 224.236 42.5734 227.124 39.6216L220.468 32.9013C218.333 34.5989 215.696 35.6022 213.246 35.6022V35.6022ZM213.246 19.7174C215.883 19.7174 217.954 21.4733 218.834 24.1743H207.027C208.095 21.4733 210.352 19.7174 213.246 19.7174Z" fill="#7FC844"/>
<path id="Vector_5" d="M250.289 35.6022C247.215 35.6022 244.829 33.5955 243.884 30.5154H266.868C266.868 18.0199 260.714 10.6754 250.289 10.6754C240.244 10.6754 233.144 17.6465 233.144 27.5636C233.144 37.5507 240.43 44.6443 250.791 44.6443C255.749 44.6443 261.28 42.5734 264.167 39.6216L257.511 32.9013C255.376 34.5989 252.739 35.6022 250.289 35.6022V35.6022ZM250.289 19.7174C252.926 19.7174 254.997 21.4733 255.878 24.1743H244.071C245.138 21.4733 247.396 19.7174 250.289 19.7174Z" fill="#7FC844"/>
<path id="Vector_6" d="M295.499 0V15.2606C292.927 12.373 289.345 10.6754 285.139 10.6754C276.412 10.6754 270.257 17.7107 270.257 27.6278C270.257 37.609 276.412 44.6443 285.139 44.6443C289.345 44.6443 292.927 42.9467 295.499 40.0591V43.8918H307.615V0H295.499V0ZM288.971 34.5989C284.765 34.5989 281.814 31.7113 281.814 27.6278C281.814 23.6084 284.765 20.7208 288.971 20.7208C292.804 20.7208 295.499 23.6084 295.499 27.6278C295.499 31.7113 292.798 34.5989 288.971 34.5989Z" fill="#7FC844"/>
</g>
</g>
</svg>
