<?xml version="1.0" encoding="UTF-8"?>
<!DOCTYPE svg PUBLIC "-//W3C//DTD SVG 1.1//EN" "http://www.w3.org/Graphics/SVG/1.1/DTD/svg11.dtd">
<!-- Creator: CorelDRAW -->
<svg xmlns="http://www.w3.org/2000/svg" xml:space="preserve" width="3.11199in" height="0.473996in" version="1.1" style="shape-rendering:geometricPrecision; text-rendering:geometricPrecision; image-rendering:optimizeQuality; fill-rule:evenodd; clip-rule:evenodd"
viewBox="0 0 1758.68 267.87"
 xmlns:xlink="http://www.w3.org/1999/xlink"
 xmlns:xodm="http://www.corel.com/coreldraw/odm/2003">
 <defs>
  <style type="text/css">
   <![CDATA[
    .fil0 {fill:#7FC844;fill-rule:nonzero}
   ]]>
  </style>
 </defs>
 <g id="Layer_x0020_1">
  <metadata id="CorelCorpID_0Corel-Layer"/>
  <path class="fil0" d="M44.46 267.87c23.36,0 42.57,-19.97 42.57,-44.46 0,-22.61 -19.21,-42.57 -42.57,-42.57 -25.24,0 -44.46,19.97 -44.46,42.57 0,24.49 19.21,44.46 44.46,44.46zm127.72 -4.52l64.42 0 25.62 -100.22 26.37 100.22 64.42 0 66.31 -194.78 -69.7 0 -28.63 97.2 -29.01 -97.2 -59.53 0 -28.63 97.2 -29.01 -97.2 -69.7 0 67.06 194.78zm353.39 -49.73c-18.46,0 -32.78,-12.06 -38.43,-30.52l137.89 0c0,-74.97 -36.92,-119.05 -99.46,-119.05 -60.28,0 -102.85,41.82 -102.85,101.35 0,59.9 43.7,102.48 105.87,102.48 29.76,0 62.92,-12.43 80.25,-30.14l-39.94 -40.31c-12.81,10.17 -28.63,16.2 -43.33,16.2zm0 -95.32c15.82,0 28.26,10.55 33.53,26.75l-70.83 0c6.41,-16.2 19.97,-26.75 37.3,-26.75zm263.35 -54.25c-25.24,0 -46.72,10.17 -62.16,27.5l0 -91.55 -72.71 0 0 263.35 72.71 0 0 -22.98c15.45,17.33 36.92,27.5 62.16,27.5 52.37,0 89.29,-42.2 89.29,-102.1 0,-59.53 -36.92,-101.72 -89.29,-101.72zm-22.98 143.54c-22.98,0 -39.18,-17.33 -39.18,-41.82 0,-24.11 16.2,-41.44 39.18,-41.44 25.24,0 42.95,17.33 42.95,41.44 0,24.49 -17.71,41.82 -42.95,41.82zm219.65 60.28c52.74,0 84.77,-25.62 84.77,-65.93 0,-45.96 -40.69,-57.64 -76.11,-65.56 -19.59,-4.52 -28.26,-5.65 -28.26,-12.06 0,-5.65 6.78,-10.93 16.95,-10.93 18.46,0 40.69,10.17 56.89,20.72l24.49 -44.46c-22.23,-14.69 -51.24,-25.62 -81.38,-25.62 -50.86,0 -81.38,29.39 -81.38,67.06 0,45.96 39.56,54.63 74.98,62.16 18.08,3.77 29.39,7.54 29.39,14.32 0,6.4 -4.9,9.79 -18.46,9.79 -20.72,0 -48.6,-9.79 -67.44,-22.98l-27.13 44.08c23.74,18.46 58.77,29.39 92.68,29.39zm206.84 -54.25c-18.46,0 -32.78,-12.06 -38.43,-30.52l137.89 0c0,-74.97 -36.92,-119.05 -99.46,-119.05 -60.28,0 -102.85,41.82 -102.85,101.35 0,59.9 43.7,102.48 105.87,102.48 29.76,0 62.92,-12.43 80.25,-30.14l-39.94 -40.31c-12.81,10.17 -28.63,16.2 -43.33,16.2zm0 -95.32c15.82,0 28.26,10.55 33.53,26.75l-70.83 0c6.41,-16.2 19.97,-26.75 37.3,-26.75zm222.28 95.32c-18.46,0 -32.78,-12.06 -38.43,-30.52l137.89 0c0,-74.97 -36.92,-119.05 -99.46,-119.05 -60.28,0 -102.85,41.82 -102.85,101.35 0,59.9 43.7,102.48 105.87,102.48 29.76,0 62.92,-12.43 80.25,-30.14l-39.94 -40.31c-12.81,10.17 -28.63,16.2 -43.33,16.2zm0 -95.32c15.82,0 28.26,10.55 33.53,26.75l-70.83 0c6.41,-16.2 19.97,-26.75 37.3,-26.75zm271.26 -118.3l0 91.55c-15.45,-17.33 -36.92,-27.5 -62.16,-27.5 -52.37,0 -89.29,42.2 -89.29,101.72 0,59.9 36.92,102.1 89.29,102.1 25.24,0 46.72,-10.17 62.16,-27.5l0 22.98 72.71 0 0 -263.35 -72.71 0zm-39.18 207.59c-25.24,0 -42.95,-17.33 -42.95,-41.82 0,-24.11 17.71,-41.44 42.95,-41.44 22.98,0 39.18,17.33 39.18,41.44 0,24.49 -16.2,41.82 -39.18,41.82z"/>
 </g>
</svg>
