<?xml version="1.0" encoding="UTF-8"?>
<!DOCTYPE svg PUBLIC "-//W3C//DTD SVG 1.1//EN" "http://www.w3.org/Graphics/SVG/1.1/DTD/svg11.dtd">
<!-- Creator: CorelDRAW -->
<svg xmlns="http://www.w3.org/2000/svg" xml:space="preserve" width="1.06733in" height="0.360669in" version="1.1" style="shape-rendering:geometricPrecision; text-rendering:geometricPrecision; image-rendering:optimizeQuality; fill-rule:evenodd; clip-rule:evenodd"
viewBox="0 0 239.17 80.82"
 xmlns:xlink="http://www.w3.org/1999/xlink"
 xmlns:xodm="http://www.corel.com/coreldraw/odm/2003">
 <defs>
  <style type="text/css">
   <![CDATA[
    .fil0 {fill:#7FC844;fill-rule:nonzero}
   ]]>
  </style>
 </defs>
 <g id="Layer_x0020_1">
  <metadata id="CorelCorpID_0Corel-Layer"/>
  <path class="fil0" d="M17.63 80.82c9.26,0 16.88,-7.92 16.88,-17.63 0,-8.96 -7.62,-16.88 -16.88,-16.88 -10.01,0 -17.63,7.92 -17.63,16.88 0,9.71 7.62,17.63 17.63,17.63zm50.64 -1.79l25.55 0 10.16 -39.74 10.46 39.74 25.54 0 26.29 -77.23 -27.64 0 -11.35 38.54 -11.5 -38.54 -23.6 0 -11.35 38.54 -11.5 -38.54 -27.64 0 26.59 77.23zm137.29 1.79c20.91,0 33.61,-10.16 33.61,-26.14 0,-18.23 -16.13,-22.86 -30.18,-25.99 -7.77,-1.79 -11.2,-2.24 -11.2,-4.78 0,-2.24 2.69,-4.33 6.72,-4.33 7.32,0 16.13,4.03 22.56,8.22l9.71 -17.63c-8.81,-5.83 -20.32,-10.16 -32.27,-10.16 -20.17,0 -32.27,11.65 -32.27,26.59 0,18.23 15.69,21.66 29.73,24.65 7.17,1.49 11.65,2.99 11.65,5.68 0,2.54 -1.94,3.88 -7.32,3.88 -8.22,0 -19.27,-3.88 -26.74,-9.11l-10.76 17.48c9.41,7.32 23.3,11.65 36.75,11.65z"/>
 </g>
</svg>
