<svg width="229" height="212" viewBox="0 0 229 212" fill="none" xmlns="http://www.w3.org/2000/svg">
<g id="brand-svg">
<g id="svg_background">
<path id="Vector" d="M202.27 64.7065C200.948 60.4059 199.22 56.2406 197.11 52.2665C186.23 32.0465 167.15 16.7915 146.28 7.76655C129.71 0.611545 109.22 -3.12846 91.64 3.31654C82.75 6.57654 74.38 12.8165 69.615 21.1415C63.405 32.0115 63.99 45.4565 59.06 56.8815C55.06 66.1265 45.12 71.6815 37.33 77.3815C25.175 86.2415 13.2 96.7165 8.98498 111.702C3.36498 131.677 5.02998 155.457 16.405 173.222C24.905 186.477 39.455 190.457 54.47 190.722C68.64 190.977 85.97 187.397 99.195 193.862C121.725 204.862 151.455 217.212 176.665 208.507C202.665 199.532 215.4 182.052 219.165 159.377C222.93 136.702 212.555 117.812 209.245 99.8765C207.185 88.5315 205.82 76.0065 202.27 64.7065Z" fill="#7FC844"/>
<path id="Vector_2" opacity="0.8" d="M202.27 64.7065C200.948 60.4059 199.22 56.2406 197.11 52.2665C186.23 32.0465 167.15 16.7915 146.28 7.76655C129.71 0.611545 109.22 -3.12846 91.64 3.31654C82.75 6.57654 74.38 12.8165 69.615 21.1415C63.405 32.0115 63.99 45.4565 59.06 56.8815C55.06 66.1265 45.12 71.6815 37.33 77.3815C25.175 86.2415 13.2 96.7165 8.98498 111.702C3.36498 131.677 5.02998 155.457 16.405 173.222C24.905 186.477 39.455 190.457 54.47 190.722C68.64 190.977 85.97 187.397 99.195 193.862C121.725 204.862 151.455 217.212 176.665 208.507C202.665 199.532 215.4 182.052 219.165 159.377C222.93 136.702 212.555 117.812 209.245 99.8765C207.185 88.5315 205.82 76.0065 202.27 64.7065Z" fill="white"/>
</g>
<g id="svg_vector">
<g id="freepik--Gears--inject-2">
<path id="Vector_3" d="M149.475 52.2667L149.805 54.2417L152.005 54.4367L152.665 52.5667C153.386 52.5019 154.097 52.3473 154.78 52.1067L156.17 53.5167L158.08 52.4117L157.555 50.5117C158.108 50.0413 158.6 49.5038 159.02 48.9117L160.96 49.2717L161.895 47.2717L160.37 46.0167C160.551 45.3142 160.643 44.592 160.645 43.8667L162.455 43.0467L162.07 40.8717L160.07 40.7167C159.816 40.0477 159.48 39.4129 159.07 38.8267L160.1 37.0867L158.54 35.5267L156.79 36.5667C155.781 35.8856 154.642 35.4208 153.445 35.2017L152.945 33.2017H150.735L150.235 35.2017C149.545 35.3292 148.873 35.5408 148.235 35.8317L146.66 34.4667L144.85 35.7317L145.595 37.6817C145.109 38.1771 144.684 38.7294 144.33 39.3267L142.25 39.1117L141.495 41.1867L143.215 42.3517C143.134 42.8358 143.094 43.3258 143.095 43.8167C143.095 44.0267 143.095 44.2317 143.095 44.4367L141.29 45.4367L141.86 47.5667L143.905 47.5417C144.209 48.1786 144.587 48.7777 145.03 49.3267L144.145 51.1667L145.835 52.5817L147.505 51.4567M156.675 41.1467C157.267 42.1995 157.496 43.4179 157.326 44.6138C157.157 45.8096 156.598 46.9164 155.737 47.7632C154.876 48.6101 153.76 49.1499 152.561 49.2994C151.363 49.4489 150.148 49.1997 149.106 48.5903C148.063 47.9809 147.25 47.0452 146.792 45.9277C146.333 44.8101 146.256 43.5728 146.571 42.4069C146.886 41.2409 147.576 40.2111 148.535 39.4763C149.493 38.7416 150.667 38.3429 151.875 38.3417C152.14 38.3412 152.404 38.3612 152.665 38.4017M154.53 39.0217C154.953 39.2557 155.343 39.5449 155.69 39.8817" stroke="black" stroke-miterlimit="10"/>
<path id="Vector_4" d="M154.685 164.887L155.015 166.862L157.215 167.057L157.875 165.187C158.596 165.122 159.307 164.967 159.99 164.727L161.38 166.137L163.29 165.032L162.79 163.132C163.343 162.661 163.835 162.124 164.255 161.532L166.195 161.892L167.13 159.892L165.63 158.637C165.811 157.934 165.903 157.212 165.905 156.487L167.715 155.667L167.33 153.492L165.33 153.337C165.078 152.667 164.742 152.032 164.33 151.447L165.36 149.707L163.8 148.147L162.05 149.187C161.041 148.506 159.902 148.041 158.705 147.822L158.205 145.822H155.995L155.495 147.822C154.805 147.949 154.133 148.161 153.495 148.452L151.905 147.102L150.095 148.367L150.84 150.317C150.354 150.812 149.929 151.365 149.575 151.962L147.495 151.747L146.74 153.822L148.46 154.987C148.379 155.471 148.339 155.961 148.34 156.452C148.34 156.662 148.34 156.867 148.34 157.072L146.535 158.072L147.105 160.202L149.15 160.177C149.454 160.814 149.832 161.413 150.275 161.962L149.405 163.812L151.095 165.227L152.735 164.057M161.905 153.747C162.497 154.8 162.726 156.018 162.556 157.214C162.387 158.41 161.828 159.516 160.967 160.363C160.106 161.21 158.99 161.75 157.791 161.899C156.593 162.049 155.378 161.8 154.336 161.19C153.293 160.581 152.48 159.645 152.021 158.528C151.563 157.41 151.486 156.173 151.801 155.007C152.116 153.841 152.806 152.811 153.765 152.076C154.723 151.342 155.897 150.943 157.105 150.942C157.37 150.941 157.634 150.961 157.895 151.002M159.76 151.622C160.183 151.856 160.573 152.145 160.92 152.482" stroke="black" stroke-miterlimit="10"/>
<path id="Vector_5" d="M165.405 28.5767L165.695 29.3367C165.55 29.4817 165.41 29.6367 165.275 29.7917M164.54 30.7917C164.5 30.8517 164.465 30.9117 164.43 30.9717L162.35 30.7617L161.595 32.8317L163.315 33.9967C163.233 34.4807 163.191 34.9707 163.19 35.4617C163.19 35.6717 163.19 35.8767 163.19 36.0817L161.38 37.0817L161.955 39.2117H164C164.301 39.8518 164.679 40.4529 165.125 41.0017L164.24 42.8367L165.93 44.2567L167.57 43.0817C168.19 43.4391 168.852 43.7195 169.54 43.9167L169.87 45.8917L172.065 46.0817L172.73 44.2117C173.451 44.1485 174.162 43.9957 174.845 43.7567L176.23 45.1617L178.14 44.0617L177.64 42.1617C178.192 41.6901 178.684 41.1528 179.105 40.5617L181.045 40.9167L181.98 38.9167L180.455 37.6567C180.633 36.9555 180.726 36.2352 180.73 35.5117L182.54 34.6867L182.155 32.5167L180.155 32.3617C179.9 31.6916 179.564 31.0552 179.155 30.4667L180.185 28.7317L178.625 27.1717L176.875 28.2117C175.868 27.5264 174.729 27.0613 173.53 26.8467L173.03 24.8467H170.825L170.325 26.8467C169.636 26.9766 168.964 27.1881 168.325 27.4767L166.745 26.1117L164.94 27.3767L165.17 27.9767M177.345 36.5967C177.27 36.9591 177.158 37.3127 177.01 37.6517M176.595 38.4267C175.884 39.5431 174.795 40.366 173.527 40.7442C172.259 41.1224 170.897 41.0307 169.691 40.4859C168.485 39.941 167.515 38.9796 166.961 37.7779C166.407 36.5763 166.304 35.215 166.672 33.9439C167.04 32.6727 167.854 31.5768 168.965 30.8574C170.076 30.1379 171.409 29.8431 172.719 30.027C174.03 30.2108 175.23 30.8611 176.1 31.8584C176.97 32.8557 177.451 34.1333 177.455 35.4567C177.455 35.59 177.455 35.725 177.455 35.8617" stroke="black" stroke-miterlimit="10"/>
<path id="Vector_6" d="M33.52 96.6016L31.865 100.037L35.025 102.687L38.085 100.492C39.2456 101.163 40.4851 101.687 41.775 102.052L42.385 105.742L46.495 106.102L47.73 102.602C49.0791 102.481 50.4078 102.192 51.685 101.742L54.275 104.377L57.845 102.317L56.845 98.7666C57.8797 97.8831 58.8016 96.8755 59.59 95.7666L63.215 96.4316L64.96 92.6966L62.115 90.3466C62.4466 89.0391 62.6146 87.6955 62.615 86.3466L65.995 84.8066L65.28 80.7466L61.55 80.4566C61.0732 79.2074 60.447 78.0204 59.685 76.9216L61.605 73.6716L58.69 70.7566L55.415 72.7016C53.534 71.4219 51.4043 70.553 49.165 70.1516L48.22 66.4116H44.095L43.145 70.1716C41.8674 70.4161 40.6236 70.8122 39.44 71.3516L36.49 68.8016L33.115 71.1666L34.505 74.8116C33.5982 75.738 32.8043 76.7685 32.14 77.8816L28.255 77.4816L26.845 81.3566L30.06 83.5366C29.9072 84.442 29.8303 85.3585 29.83 86.2766C29.83 86.6666 29.845 87.0516 29.875 87.4316L26.49 89.3216L27.56 93.3216L31.385 93.2766C31.8078 94.1776 32.3098 95.0393 32.885 95.8516M42.755 76.5916C43.2042 76.434 43.6636 76.3071 44.13 76.2116M46.67 76.0116C49.1888 76.1278 51.5772 77.1653 53.3813 78.9269C55.1855 80.6885 56.2796 83.0515 56.4558 85.5669C56.632 88.0823 55.8781 90.5747 54.3372 92.5707C52.7964 94.5666 50.576 95.927 48.0979 96.3933C45.6199 96.8596 43.0569 96.3993 40.8959 95.0999C38.735 93.8006 37.1267 91.7526 36.3766 89.3452C35.6265 86.9379 35.7869 84.3388 36.8273 82.0419C37.8677 79.7451 39.7157 77.9104 42.02 76.8866" stroke="black" stroke-miterlimit="10"/>
</g>
<g id="freepik--light-bulb--inject-2">
<path id="Vector_7" d="M86.3449 85.5016L82.2549 82.8616" stroke="#263238" stroke-width="3" stroke-linecap="round" stroke-linejoin="round"/>
<path id="Vector_8" d="M93.4499 77.5615L92.3899 76.6765" stroke="#263238" stroke-width="3" stroke-linecap="round" stroke-linejoin="round"/>
<path id="Vector_9" d="M81.5099 100.842L73.0449 98.7217" stroke="#263238" stroke-width="3" stroke-linecap="round" stroke-linejoin="round"/>
<path id="Vector_10" d="M127.26 152.872C127.197 152.871 127.135 152.863 127.075 152.847C126.88 152.796 126.713 152.67 126.61 152.497C126.35 152.042 126.21 151.797 128.32 149.377C123.77 152.162 123.285 152.047 123.02 151.982C122.812 151.92 122.634 151.785 122.52 151.602C122.1 150.877 122.02 150.732 130.44 143.842C129.09 144.717 127.685 145.657 126.44 146.487C119.03 151.432 116.725 152.837 115.705 152.602C115.581 152.573 115.465 152.52 115.362 152.446C115.26 152.371 115.174 152.276 115.11 152.167C114.66 151.387 114.66 151.387 124.61 144.197L126.58 142.777C125.43 143.542 124.285 144.322 123.235 145.037C115.405 150.362 111.84 152.662 110.505 152.362C110.366 152.33 110.235 152.269 110.121 152.183C110.007 152.097 109.913 151.987 109.845 151.862C109.345 151.017 109.245 150.827 123.715 140.997L104.685 151.997C104.515 152.091 104.316 152.115 104.129 152.064C103.942 152.012 103.782 151.889 103.685 151.722C103.35 151.142 103.61 150.432 104.985 149.222C102.795 150.482 101.525 150.987 100.9 150.842C100.77 150.812 100.647 150.756 100.539 150.678C100.431 150.6 100.339 150.501 100.27 150.387C99.8549 149.667 100.015 149.002 105.31 145.442C99.8499 148.857 97.8349 149.862 97.0499 149.677C96.9332 149.649 96.8233 149.598 96.727 149.527C96.6307 149.456 96.55 149.365 96.4899 149.262C96.1249 148.637 96.4649 148.412 97.7199 147.582L100.485 145.777L104.715 143.042C100.055 145.462 99.3549 145.297 98.9649 145.202C98.8335 145.172 98.7095 145.115 98.6004 145.036C98.4913 144.957 98.3993 144.857 98.3299 144.742C98.2377 144.572 98.2142 144.374 98.2645 144.187C98.3148 144.001 98.4349 143.842 98.5999 143.742C113.275 135.042 135.93 121.087 141.39 116.472C135.945 118.947 119.665 129.057 110.39 134.832C98.4449 142.257 98.3899 142.242 97.8899 142.112C97.7866 142.088 97.689 142.045 97.6031 141.983C97.5172 141.921 97.4446 141.842 97.3899 141.752C96.9849 141.052 97.0049 140.602 101.785 137.642C99.5849 138.677 98.1349 139.142 97.4949 138.992C97.3548 138.959 97.223 138.898 97.1077 138.811C96.9924 138.725 96.8961 138.617 96.8249 138.492C96.7292 138.325 96.7012 138.129 96.7468 137.942C96.7925 137.756 96.9082 137.595 97.0699 137.492C111.88 128.057 132.715 114.697 141.215 109.052C138.85 110.257 135.675 112.052 132.145 114.167C129.29 116.002 125.905 118.137 121.9 120.627C116.61 123.922 111.26 127.187 106.805 129.887C96.0449 136.677 95.9149 136.647 95.3899 136.517C95.2866 136.492 95.1892 136.447 95.1034 136.384C95.0176 136.321 94.945 136.242 94.8899 136.152C94.7976 135.982 94.7742 135.784 94.8245 135.597C94.8748 135.411 94.9949 135.252 95.1599 135.152C98.3999 133.227 101.975 131.082 105.685 128.832L107.635 127.602C99.8649 132.047 95.5699 133.992 94.3049 133.682C94.1586 133.653 94.0201 133.594 93.8985 133.507C93.777 133.421 93.6752 133.31 93.5999 133.182C93.1349 132.382 93.7949 131.362 99.2749 127.782C95.7399 129.937 94.3399 130.577 93.7449 130.432C93.6314 130.406 93.5244 130.357 93.4306 130.288C93.3369 130.22 93.2583 130.132 93.1999 130.032C92.8849 129.487 92.6299 129.032 96.2899 126.377C94.3199 127.377 93.0749 127.782 92.4799 127.637C92.345 127.607 92.2176 127.55 92.1057 127.47C91.9938 127.389 91.8999 127.286 91.8299 127.167C91.7796 127.081 91.747 126.985 91.7341 126.887C91.7213 126.788 91.7283 126.688 91.7549 126.592C91.8076 126.4 91.9332 126.237 92.1049 126.137C108.33 116.912 132.9 102.302 140.38 96.4066C132.175 100.937 109.555 114.217 93.7699 123.577C93.6846 123.627 93.5903 123.66 93.4922 123.673C93.3942 123.687 93.2944 123.681 93.1986 123.656C93.1029 123.631 93.0131 123.587 92.9343 123.527C92.8556 123.467 92.7895 123.392 92.7399 123.307C92.6632 123.169 92.6152 123.018 92.5989 122.861C92.5825 122.705 92.5982 122.547 92.6449 122.397C92.9232 121.763 93.3442 121.201 93.8749 120.757C92.7099 121.232 91.9299 121.407 91.4849 121.297C91.3465 121.263 91.2165 121.201 91.103 121.115C90.9894 121.029 90.8948 120.921 90.8249 120.797C90.3749 120.022 91.2349 119.422 92.5349 118.517C93.5349 117.842 94.9499 116.907 96.9299 115.667C100.625 113.357 105.695 110.297 111.065 107.062C117.1 103.422 124.27 99.0966 129.965 95.5166C117.78 102.517 98.5899 113.727 89.3749 119.117C89.2003 119.216 88.994 119.242 88.7999 119.192C88.7045 119.166 88.6152 119.123 88.5371 119.062C88.4589 119.002 88.3936 118.927 88.3449 118.842C87.9599 118.172 87.8449 117.977 94.4699 113.807C91.8749 115.232 90.2349 115.847 89.3999 115.652C89.2422 115.619 89.0931 115.553 88.9623 115.459C88.8314 115.366 88.7216 115.245 88.6399 115.107C88.1399 114.247 88.1399 114.247 100.17 107.262C105.735 104.032 112.375 100.172 118.485 96.4616C123.615 93.0516 127.63 90.4616 130.675 88.6616C132.272 87.5991 133.788 86.4192 135.21 85.1316C128.965 87.9366 104.305 102.847 88.7099 112.547C88.5415 112.653 88.3378 112.687 88.1437 112.643C87.9496 112.599 87.781 112.48 87.6749 112.312C87.5688 112.143 87.5339 111.939 87.578 111.745C87.6221 111.551 87.7415 111.383 87.9099 111.277L92.7499 108.197C88.7499 110.252 87.2499 110.597 86.6349 110.442C86.4954 110.409 86.3641 110.348 86.2496 110.262C86.1351 110.176 86.0399 110.067 85.9699 109.942C85.8729 109.776 85.8442 109.579 85.89 109.392C85.9357 109.205 86.0522 109.044 86.2149 108.942L96.8699 102.112C88.1599 107.032 87.4549 106.857 87.0249 106.747C86.9105 106.72 86.8028 106.67 86.7082 106.601C86.6136 106.531 86.5343 106.443 86.4749 106.342C86.3813 106.174 86.3556 105.977 86.403 105.791C86.4505 105.605 86.5675 105.444 86.7299 105.342C97.9599 98.3966 113.915 88.3416 123.23 82.0366C115.705 86.3716 104.73 92.8116 97.0099 97.3516L88.4049 102.352C86.4949 103.467 85.5699 104.012 85.0749 104.262L84.9449 104.342C84.5999 104.507 84.5149 104.482 84.3699 104.442C84.2288 104.404 84.1017 104.326 84.0043 104.217C83.907 104.108 83.8435 103.973 83.8217 103.829C83.8 103.684 83.8208 103.537 83.8818 103.404C83.9428 103.271 84.0411 103.159 84.1649 103.082C96.0749 95.7166 113.665 84.6166 121.545 79.1566C117.35 81.5866 111.085 85.5816 106.045 88.8066C91.9149 97.8066 87.6199 100.397 86.3749 100.087C86.2565 100.058 86.145 100.007 86.0471 99.9346C85.9492 99.8625 85.8668 99.7713 85.8049 99.6666C85.4949 99.1216 85.2699 98.7366 89.9649 95.3516C88.6849 95.9166 87.8199 96.1316 87.3149 96.0116C87.1721 95.9791 87.0373 95.9181 86.9187 95.8321C86.8002 95.7462 86.7002 95.6372 86.6249 95.5116C86.5321 95.3442 86.5063 95.1479 86.5527 94.9623C86.5991 94.7766 86.7142 94.6155 86.8749 94.5116C96.0999 88.7066 110.12 79.6066 114.94 75.8416C110.72 77.9066 101.51 83.8416 96.0899 87.3116C87.2349 92.9566 86.9049 93.0966 86.3399 92.9566C86.2363 92.9325 86.1386 92.8878 86.0526 92.8251C85.9667 92.7624 85.8943 92.6829 85.8399 92.5916C85.4399 91.9066 85.0899 91.2966 93.7599 85.3366C92.6899 86.0166 91.5949 86.7216 90.4749 87.4416C90.3823 87.5166 90.2738 87.5695 90.1578 87.5963C90.0417 87.6232 89.921 87.6233 89.8049 87.5966C89.7063 87.573 89.6136 87.5293 89.5328 87.4682C89.4519 87.4071 89.3845 87.33 89.3349 87.2416C88.7999 86.3166 89.5699 85.5216 95.6549 80.8566C95.5433 80.8329 95.4379 80.7859 95.3457 80.7187C95.2535 80.6515 95.1766 80.5656 95.1199 80.4666C95.0271 80.2941 95.005 80.0924 95.0582 79.904C95.1114 79.7155 95.2357 79.5551 95.4049 79.4566C95.5453 79.3796 95.7055 79.3465 95.8649 79.3616C96.6558 78.9024 97.4219 78.4017 98.1599 77.8616C100.6 76.1466 101.29 75.7366 101.885 75.8616C102.001 75.887 102.111 75.936 102.207 76.0057C102.303 76.0754 102.384 76.1642 102.445 76.2666C102.875 77.0166 102.54 77.4666 98.4449 80.6366C99.5849 79.9316 100.76 79.2016 101.945 78.4816C113.505 71.4116 114.4 71.6216 114.945 71.7516C115.065 71.7774 115.178 71.8281 115.277 71.9004C115.376 71.9728 115.459 72.0652 115.52 72.1716C115.614 72.3386 115.64 72.5353 115.594 72.7213C115.547 72.9073 115.431 73.0684 115.27 73.1716C109.63 76.6716 103.77 80.4616 98.8549 83.7366C110.265 76.4516 115.75 73.2366 117.295 73.6266C117.429 73.6564 117.555 73.7136 117.666 73.7944C117.777 73.8753 117.87 73.9781 117.94 74.0966C118.415 74.9216 118.76 75.5216 102.975 85.9116L100.705 87.4116C103.885 85.4116 107.105 83.3116 109.705 81.6116C119.83 75.0416 121.47 74.0766 122.235 74.2566C122.34 74.284 122.438 74.3322 122.524 74.3984C122.61 74.4645 122.682 74.5472 122.735 74.6416C122.831 74.8077 122.859 75.0044 122.813 75.1907C122.767 75.377 122.652 75.5385 122.49 75.6416C112.7 81.8816 98.3999 91.1966 91.3299 96.2016C95.1299 93.9616 100.515 90.5266 105.205 87.5366C120.07 78.0366 124.92 75.1616 126.29 75.4916C126.412 75.5209 126.528 75.5745 126.629 75.6492C126.73 75.7239 126.816 75.8182 126.88 75.9266C127.245 76.5616 127.51 77.0116 118.815 82.8166C131 75.7466 131.235 75.8166 131.62 75.9066C131.718 75.9317 131.81 75.9761 131.89 76.037C131.971 76.0979 132.039 76.1743 132.09 76.2616C132.59 77.1266 132.945 77.7616 109.955 92.4516C108.285 93.5216 106.61 94.5866 104.955 95.6266C114.055 90.2466 124.9 83.6266 133.115 78.4966C133.201 78.4441 133.296 78.4092 133.396 78.3937C133.495 78.3783 133.597 78.3826 133.695 78.4066C133.892 78.4567 134.06 78.5825 134.165 78.7566C134.52 79.3766 133.995 79.7566 133.44 80.1366C133.1 80.3716 132.6 80.7116 131.94 81.1366C130.73 81.9416 128.94 83.1366 126.63 84.6366C122.74 87.1716 117.305 90.6866 110.475 95.0866C103.895 99.3216 97.2649 103.587 92.7199 106.492C98.7249 103.317 110.405 96.4566 132.905 82.0816C136.145 80.0166 136.145 80.0166 136.475 80.0816C136.574 80.1059 136.667 80.1498 136.748 80.2108C136.83 80.2718 136.899 80.3486 136.95 80.4366C137.135 80.7566 137.24 80.9366 136.64 81.4716C135.84 82.1716 133.85 83.4716 129.31 86.4216C135.74 82.8966 136.34 83.0416 136.73 83.1416C136.843 83.1671 136.95 83.2159 137.044 83.2847C137.138 83.3535 137.216 83.441 137.275 83.5416C137.545 84.0116 137.61 84.5766 136.61 85.6966C137.004 85.5734 137.422 85.5427 137.83 85.6066C137.993 85.6405 138.147 85.7084 138.282 85.8057C138.418 85.903 138.531 86.0277 138.615 86.1716C139.115 87.0316 139.365 87.4716 124.51 96.8416C140.24 87.7316 140.395 87.7716 140.77 87.8716C140.866 87.8961 140.956 87.9397 141.035 87.9998C141.114 88.0599 141.181 88.1353 141.23 88.2216C141.73 89.0516 140.83 89.8866 138.68 91.4566C137.295 92.4566 135.34 93.7766 132.72 95.4566C141.455 90.0016 143.645 88.8716 144.425 89.0616C144.535 89.0884 144.639 89.1372 144.73 89.2051C144.821 89.273 144.898 89.3585 144.955 89.4566C145.005 89.5417 145.038 89.636 145.05 89.7339C145.063 89.8319 145.056 89.9314 145.03 90.0266C145.005 90.1231 144.96 90.2136 144.899 90.2926C144.838 90.3716 144.762 90.4376 144.675 90.4866C139.575 93.3766 134.39 96.3666 129.38 99.3166L124.19 102.597C113.985 109.057 106.54 113.702 101.315 116.742C99.6599 117.877 98.2449 118.887 97.1099 119.742C101.76 116.992 109.68 112.317 117.61 107.692C142.61 93.0616 142.99 93.1666 143.465 93.2916C143.563 93.3167 143.655 93.3611 143.735 93.422C143.816 93.483 143.884 93.5593 143.935 93.6466C144.007 93.7745 144.053 93.9158 144.069 94.0619C144.086 94.2079 144.072 94.3558 144.03 94.4966C143.882 94.9808 143.6 95.4127 143.215 95.7416C144.93 94.8866 146.005 94.5366 146.535 94.6616C146.664 94.6911 146.785 94.7467 146.892 94.825C146.999 94.9032 147.088 95.0025 147.155 95.1166C147.555 95.8066 146.995 96.1816 145.76 97.0016C145.015 97.5016 143.915 98.1966 142.39 99.1466L142.095 99.3316C144.425 98.2166 146.06 97.6916 146.88 97.8916C147.047 97.9261 147.206 97.9951 147.345 98.094C147.485 98.193 147.602 98.3199 147.69 98.4666C148.38 99.6616 147.69 100.422 123.295 114.852C113.05 120.957 99.5149 128.957 95.8249 131.957C97.8599 131.242 102.93 128.792 115.53 121.167C125.8 114.952 137.11 107.697 142.53 104.212C146.295 101.797 146.29 101.802 146.625 101.882C146.824 101.932 146.995 102.06 147.1 102.237C147.405 102.767 147.715 103.302 143.6 106.367C144.181 106.104 144.819 105.994 145.455 106.047C145.595 106.08 145.727 106.141 145.842 106.227C145.957 106.313 146.053 106.422 146.125 106.547C146.565 107.312 146.565 107.312 138.475 112.612C134.475 115.222 128.925 118.827 121.925 123.327C115.175 127.667 108.37 132.022 103.71 134.997C113.15 129.937 130.84 118.717 138.71 113.727C145.71 109.302 145.71 109.302 146.09 109.397C146.188 109.422 146.28 109.466 146.36 109.527C146.441 109.588 146.509 109.664 146.56 109.752C147.095 110.682 146.245 112.002 142.955 114.447C143.051 114.433 143.149 114.433 143.245 114.447C143.367 114.476 143.483 114.529 143.584 114.604C143.685 114.679 143.771 114.773 143.835 114.882C144.36 115.792 144.955 116.822 122.765 130.717C129.145 126.787 135.765 122.607 141.11 119.142C141.195 119.086 141.291 119.048 141.392 119.031C141.493 119.013 141.596 119.017 141.695 119.041C141.794 119.065 141.887 119.108 141.969 119.17C142.051 119.231 142.119 119.308 142.17 119.397C142.535 120.037 142.03 120.397 141.17 120.997C140.67 121.352 139.915 121.872 138.925 122.532C137.935 123.192 136.705 124.032 135.22 124.992C137.29 123.942 138.57 123.517 139.22 123.677C139.361 123.708 139.494 123.769 139.61 123.855C139.726 123.941 139.823 124.051 139.895 124.177C140.315 124.902 140.22 125.177 135.16 128.447C136.225 127.992 136.98 127.827 137.465 127.947C137.616 127.979 137.758 128.042 137.883 128.133C138.007 128.223 138.112 128.339 138.19 128.472C138.78 129.472 138.335 129.942 124.785 138.147C120.905 140.497 116.02 143.452 112.065 146.002L138.67 130.647C138.755 130.596 138.849 130.563 138.947 130.551C139.045 130.538 139.145 130.545 139.24 130.572C139.431 130.623 139.594 130.746 139.695 130.917C140.065 131.562 139.54 131.947 138.67 132.587C138.145 132.972 137.375 133.517 136.315 134.247C134.34 135.617 131.595 137.472 128.69 139.442C125.305 141.732 121.045 144.617 117.555 147.042C119.16 145.982 120.83 144.847 122.315 143.837C130.05 138.577 133.315 136.472 134.59 136.752C134.723 136.781 134.85 136.837 134.961 136.917C135.072 136.997 135.165 137.099 135.235 137.217C135.67 137.977 135.69 138.012 126.82 144.437C133.255 140.157 135.36 138.937 136.32 139.152C136.443 139.18 136.56 139.233 136.662 139.308C136.765 139.382 136.851 139.477 136.915 139.587C137.265 140.197 137.265 140.197 132.79 143.852C131.44 144.952 129.565 146.482 127.875 147.897C129.245 147.052 130.755 146.092 132.19 145.162C132.275 145.106 132.371 145.068 132.472 145.051C132.573 145.033 132.676 145.037 132.775 145.061C132.874 145.085 132.967 145.128 133.049 145.19C133.131 145.251 133.199 145.328 133.25 145.417C133.53 145.917 133.425 146.017 132.4 147.117C131.565 148.012 130.85 148.797 130.245 149.467C134.785 146.762 134.95 146.807 135.27 146.887C135.367 146.912 135.458 146.956 135.538 147.017C135.618 147.078 135.685 147.154 135.735 147.242C135.785 147.327 135.817 147.421 135.831 147.519C135.844 147.617 135.837 147.716 135.812 147.812C135.786 147.907 135.742 147.996 135.682 148.074C135.621 148.153 135.546 148.218 135.46 148.267C135.387 148.31 135.308 148.341 135.225 148.357C134.56 148.657 130.865 150.832 127.61 152.802C127.5 152.852 127.38 152.876 127.26 152.872V152.872ZM134.475 147.957C134.554 148.091 134.673 148.197 134.815 148.262C134.674 148.195 134.556 148.089 134.475 147.957V147.957ZM116.015 140.322C111.695 143.017 107.445 145.717 104.675 147.642C107.69 145.847 112.07 142.957 116.015 140.322V140.322ZM134.61 127.007C129.705 129.727 121.77 134.837 115.74 138.732C117.96 137.347 120.49 135.782 123.365 134.012C127.325 131.577 131.59 128.957 134.61 127.007V127.007ZM134.29 130.507C131.625 131.927 127.58 134.507 123.635 137.082L124.05 136.832C127.735 134.592 131.735 132.167 134.29 130.497V130.507ZM109.705 119.277C106.405 121.342 103.405 123.287 100.905 124.957C103.495 123.302 106.565 121.317 109.705 119.277ZM145.3 99.6116C143.85 100.112 140.775 101.512 134.27 105.417C127.765 109.322 119.905 114.457 112.905 119.007C109.85 121.007 107.28 122.657 105.11 124.047C109.32 121.457 114.975 118.072 122.53 113.602C131.725 108.147 142.005 102.067 145.3 99.6116V99.6116ZM140.605 114.282L139.545 114.957C136.045 117.18 132.73 119.272 129.6 121.232C133.775 118.722 137.72 116.267 140.605 114.282ZM107.445 110.957C102.86 113.727 98.4049 116.457 95.4449 118.322C96.9449 117.557 98.7499 116.532 100.79 115.322C102.795 113.957 105.04 112.482 107.445 110.957ZM119.185 97.7466C117.265 99.0266 115.375 100.297 113.605 101.482C110.105 103.842 106.995 105.902 104.3 107.672L107.055 105.972C117.18 99.7316 131.8 90.7116 136.1 87.4416C134.51 88.1524 132.968 88.9675 131.485 89.8816C129.775 91.0766 127.6 92.5116 124.845 94.2516C123.05 95.3766 121.145 96.5466 119.185 97.7366V97.7466Z" fill="#7FC844"/>
<g id="Group" opacity="0.4">
<path id="Vector_11" d="M127.26 152.872C127.197 152.871 127.135 152.863 127.075 152.847C126.88 152.796 126.713 152.67 126.61 152.497C126.35 152.042 126.21 151.797 128.32 149.377C123.77 152.162 123.285 152.047 123.02 151.982C122.812 151.92 122.634 151.785 122.52 151.602C122.1 150.877 122.02 150.732 130.44 143.842C129.09 144.717 127.685 145.657 126.44 146.487C119.03 151.432 116.725 152.837 115.705 152.602C115.581 152.573 115.465 152.52 115.362 152.446C115.26 152.371 115.174 152.276 115.11 152.167C114.66 151.387 114.66 151.387 124.61 144.197L126.58 142.777C125.43 143.542 124.285 144.322 123.235 145.037C115.405 150.362 111.84 152.662 110.505 152.362C110.366 152.33 110.235 152.269 110.121 152.183C110.007 152.097 109.913 151.987 109.845 151.862C109.345 151.017 109.245 150.827 123.715 140.997L104.685 151.997C104.515 152.091 104.316 152.115 104.129 152.064C103.942 152.012 103.782 151.889 103.685 151.722C103.35 151.142 103.61 150.432 104.985 149.222C102.795 150.482 101.525 150.987 100.9 150.842C100.77 150.812 100.647 150.756 100.539 150.678C100.431 150.6 100.339 150.501 100.27 150.387C99.8549 149.667 100.015 149.002 105.31 145.442C99.8499 148.857 97.8349 149.862 97.0499 149.677C96.9332 149.649 96.8233 149.598 96.727 149.527C96.6307 149.456 96.55 149.365 96.4899 149.262C96.1249 148.637 96.4649 148.412 97.7199 147.582L100.485 145.777L104.715 143.042C100.055 145.462 99.3549 145.297 98.9649 145.202C98.8335 145.172 98.7095 145.115 98.6004 145.036C98.4913 144.957 98.3993 144.857 98.3299 144.742C98.2377 144.572 98.2142 144.374 98.2645 144.187C98.3148 144.001 98.4349 143.842 98.5999 143.742C113.275 135.042 135.93 121.087 141.39 116.472C135.945 118.947 119.665 129.057 110.39 134.832C98.4449 142.257 98.3899 142.242 97.8899 142.112C97.7866 142.088 97.689 142.045 97.6031 141.983C97.5172 141.921 97.4446 141.842 97.3899 141.752C96.9849 141.052 97.0049 140.602 101.785 137.642C99.5849 138.677 98.1349 139.142 97.4949 138.992C97.3548 138.959 97.223 138.898 97.1077 138.811C96.9924 138.725 96.8961 138.617 96.8249 138.492C96.7292 138.325 96.7012 138.129 96.7468 137.942C96.7925 137.756 96.9082 137.595 97.0699 137.492C111.88 128.057 132.715 114.697 141.215 109.052C138.85 110.257 135.675 112.052 132.145 114.167C129.29 116.002 125.905 118.137 121.9 120.627C116.61 123.922 111.26 127.187 106.805 129.887C96.0449 136.677 95.9149 136.647 95.3899 136.517C95.2866 136.492 95.1892 136.447 95.1034 136.384C95.0176 136.321 94.945 136.242 94.8899 136.152C94.7976 135.982 94.7742 135.784 94.8245 135.597C94.8748 135.411 94.9949 135.252 95.1599 135.152C98.3999 133.227 101.975 131.082 105.685 128.832L107.635 127.602C99.8649 132.047 95.5699 133.992 94.3049 133.682C94.1586 133.653 94.0201 133.594 93.8985 133.507C93.777 133.421 93.6752 133.31 93.5999 133.182C93.1349 132.382 93.7949 131.362 99.2749 127.782C95.7399 129.937 94.3399 130.577 93.7449 130.432C93.6314 130.406 93.5244 130.357 93.4306 130.288C93.3369 130.22 93.2583 130.132 93.1999 130.032C92.8849 129.487 92.6299 129.032 96.2899 126.377C94.3199 127.377 93.0749 127.782 92.4799 127.637C92.345 127.607 92.2176 127.55 92.1057 127.47C91.9938 127.389 91.8999 127.286 91.8299 127.167C91.7796 127.081 91.747 126.985 91.7341 126.887C91.7213 126.788 91.7283 126.688 91.7549 126.592C91.8076 126.4 91.9332 126.237 92.1049 126.137C108.33 116.912 132.9 102.302 140.38 96.4066C132.175 100.937 109.555 114.217 93.7699 123.577C93.6846 123.627 93.5903 123.66 93.4922 123.673C93.3942 123.687 93.2944 123.681 93.1986 123.656C93.1029 123.631 93.0131 123.587 92.9343 123.527C92.8556 123.467 92.7895 123.392 92.7399 123.307C92.6632 123.169 92.6152 123.018 92.5989 122.861C92.5825 122.705 92.5982 122.547 92.6449 122.397C92.9232 121.763 93.3442 121.201 93.8749 120.757C92.7099 121.232 91.9299 121.407 91.4849 121.297C91.3465 121.263 91.2165 121.201 91.103 121.115C90.9894 121.029 90.8948 120.921 90.8249 120.797C90.3749 120.022 91.2349 119.422 92.5349 118.517C93.5349 117.842 94.9499 116.907 96.9299 115.667C100.625 113.357 105.695 110.297 111.065 107.062C117.1 103.422 124.27 99.0966 129.965 95.5166C117.78 102.517 98.5899 113.727 89.3749 119.117C89.2003 119.216 88.994 119.242 88.7999 119.192C88.7045 119.166 88.6152 119.123 88.5371 119.062C88.4589 119.002 88.3936 118.927 88.3449 118.842C87.9599 118.172 87.8449 117.977 94.4699 113.807C91.8749 115.232 90.2349 115.847 89.3999 115.652C89.2422 115.619 89.0931 115.553 88.9623 115.459C88.8314 115.366 88.7216 115.245 88.6399 115.107C88.1399 114.247 88.1399 114.247 100.17 107.262C105.735 104.032 112.375 100.172 118.485 96.4616C123.615 93.0516 127.63 90.4616 130.675 88.6616C132.272 87.5991 133.788 86.4192 135.21 85.1316C128.965 87.9366 104.305 102.847 88.7099 112.547C88.5415 112.653 88.3378 112.687 88.1437 112.643C87.9496 112.599 87.781 112.48 87.6749 112.312C87.5688 112.143 87.5339 111.939 87.578 111.745C87.6221 111.551 87.7415 111.383 87.9099 111.277L92.7499 108.197C88.7499 110.252 87.2499 110.597 86.6349 110.442C86.4954 110.409 86.3641 110.348 86.2496 110.262C86.1351 110.176 86.0399 110.067 85.9699 109.942C85.8729 109.776 85.8442 109.579 85.89 109.392C85.9357 109.205 86.0522 109.044 86.2149 108.942L96.8699 102.112C88.1599 107.032 87.4549 106.857 87.0249 106.747C86.9105 106.72 86.8028 106.67 86.7082 106.601C86.6136 106.531 86.5343 106.443 86.4749 106.342C86.3813 106.174 86.3556 105.977 86.403 105.791C86.4505 105.605 86.5675 105.444 86.7299 105.342C97.9599 98.3966 113.915 88.3416 123.23 82.0366C115.705 86.3716 104.73 92.8116 97.0099 97.3516L88.4049 102.352C86.4949 103.467 85.5699 104.012 85.0749 104.262L84.9449 104.342C84.5999 104.507 84.5149 104.482 84.3699 104.442C84.2288 104.404 84.1017 104.326 84.0043 104.217C83.907 104.108 83.8435 103.973 83.8217 103.829C83.8 103.684 83.8208 103.537 83.8818 103.404C83.9428 103.271 84.0411 103.159 84.1649 103.082C96.0749 95.7166 113.665 84.6166 121.545 79.1566C117.35 81.5866 111.085 85.5816 106.045 88.8066C91.9149 97.8066 87.6199 100.397 86.3749 100.087C86.2565 100.058 86.145 100.007 86.0471 99.9346C85.9492 99.8625 85.8668 99.7713 85.8049 99.6666C85.4949 99.1216 85.2699 98.7366 89.9649 95.3516C88.6849 95.9166 87.8199 96.1316 87.3149 96.0116C87.1721 95.9791 87.0373 95.9181 86.9187 95.8321C86.8002 95.7462 86.7002 95.6372 86.6249 95.5116C86.5321 95.3442 86.5063 95.1479 86.5527 94.9623C86.5991 94.7766 86.7142 94.6155 86.8749 94.5116C96.0999 88.7066 110.12 79.6066 114.94 75.8416C110.72 77.9066 101.51 83.8416 96.0899 87.3116C87.2349 92.9566 86.9049 93.0966 86.3399 92.9566C86.2363 92.9325 86.1386 92.8878 86.0526 92.8251C85.9667 92.7624 85.8943 92.6829 85.8399 92.5916C85.4399 91.9066 85.0899 91.2966 93.7599 85.3366C92.6899 86.0166 91.5949 86.7216 90.4749 87.4416C90.3823 87.5166 90.2738 87.5695 90.1578 87.5963C90.0417 87.6232 89.921 87.6233 89.8049 87.5966C89.7063 87.573 89.6136 87.5293 89.5328 87.4682C89.4519 87.4071 89.3845 87.33 89.3349 87.2416C88.7999 86.3166 89.5699 85.5216 95.6549 80.8566C95.5433 80.8329 95.4379 80.7859 95.3457 80.7187C95.2535 80.6515 95.1766 80.5656 95.1199 80.4666C95.0271 80.2941 95.005 80.0924 95.0582 79.904C95.1114 79.7155 95.2357 79.5551 95.4049 79.4566C95.5453 79.3796 95.7055 79.3465 95.8649 79.3616C96.6558 78.9024 97.4219 78.4017 98.1599 77.8616C100.6 76.1466 101.29 75.7366 101.885 75.8616C102.001 75.887 102.111 75.936 102.207 76.0057C102.303 76.0754 102.384 76.1642 102.445 76.2666C102.875 77.0166 102.54 77.4666 98.4449 80.6366C99.5849 79.9316 100.76 79.2016 101.945 78.4816C113.505 71.4116 114.4 71.6216 114.945 71.7516C115.065 71.7774 115.178 71.8281 115.277 71.9004C115.376 71.9728 115.459 72.0652 115.52 72.1716C115.614 72.3386 115.64 72.5353 115.594 72.7213C115.547 72.9073 115.431 73.0684 115.27 73.1716C109.63 76.6716 103.77 80.4616 98.8549 83.7366C110.265 76.4516 115.75 73.2366 117.295 73.6266C117.429 73.6564 117.555 73.7136 117.666 73.7944C117.777 73.8753 117.87 73.9781 117.94 74.0966C118.415 74.9216 118.76 75.5216 102.975 85.9116L100.705 87.4116C103.885 85.4116 107.105 83.3116 109.705 81.6116C119.83 75.0416 121.47 74.0766 122.235 74.2566C122.34 74.284 122.438 74.3322 122.524 74.3984C122.61 74.4645 122.682 74.5472 122.735 74.6416C122.831 74.8077 122.859 75.0044 122.813 75.1907C122.767 75.377 122.652 75.5385 122.49 75.6416C112.7 81.8816 98.3999 91.1966 91.3299 96.2016C95.1299 93.9616 100.515 90.5266 105.205 87.5366C120.07 78.0366 124.92 75.1616 126.29 75.4916C126.412 75.5209 126.528 75.5745 126.629 75.6492C126.73 75.7239 126.816 75.8182 126.88 75.9266C127.245 76.5616 127.51 77.0116 118.815 82.8166C131 75.7466 131.235 75.8166 131.62 75.9066C131.718 75.9317 131.81 75.9761 131.89 76.037C131.971 76.0979 132.039 76.1743 132.09 76.2616C132.59 77.1266 132.945 77.7616 109.955 92.4516C108.285 93.5216 106.61 94.5866 104.955 95.6266C114.055 90.2466 124.9 83.6266 133.115 78.4966C133.201 78.4441 133.296 78.4092 133.396 78.3937C133.495 78.3783 133.597 78.3826 133.695 78.4066C133.892 78.4567 134.06 78.5825 134.165 78.7566C134.52 79.3766 133.995 79.7566 133.44 80.1366C133.1 80.3716 132.6 80.7116 131.94 81.1366C130.73 81.9416 128.94 83.1366 126.63 84.6366C122.74 87.1716 117.305 90.6866 110.475 95.0866C103.895 99.3216 97.2649 103.587 92.7199 106.492C98.7249 103.317 110.405 96.4566 132.905 82.0816C136.145 80.0166 136.145 80.0166 136.475 80.0816C136.574 80.1059 136.667 80.1498 136.748 80.2108C136.83 80.2718 136.899 80.3486 136.95 80.4366C137.135 80.7566 137.24 80.9366 136.64 81.4716C135.84 82.1716 133.85 83.4716 129.31 86.4216C135.74 82.8966 136.34 83.0416 136.73 83.1416C136.843 83.1671 136.95 83.2159 137.044 83.2847C137.138 83.3535 137.216 83.441 137.275 83.5416C137.545 84.0116 137.61 84.5766 136.61 85.6966C137.004 85.5734 137.422 85.5427 137.83 85.6066C137.993 85.6405 138.147 85.7084 138.282 85.8057C138.418 85.903 138.531 86.0277 138.615 86.1716C139.115 87.0316 139.365 87.4716 124.51 96.8416C140.24 87.7316 140.395 87.7716 140.77 87.8716C140.866 87.8961 140.956 87.9397 141.035 87.9998C141.114 88.0599 141.181 88.1353 141.23 88.2216C141.73 89.0516 140.83 89.8866 138.68 91.4566C137.295 92.4566 135.34 93.7766 132.72 95.4566C141.455 90.0016 143.645 88.8716 144.425 89.0616C144.535 89.0884 144.639 89.1372 144.73 89.2051C144.821 89.273 144.898 89.3585 144.955 89.4566C145.005 89.5417 145.038 89.636 145.05 89.7339C145.063 89.8319 145.056 89.9314 145.03 90.0266C145.005 90.1231 144.96 90.2136 144.899 90.2926C144.838 90.3716 144.762 90.4376 144.675 90.4866C139.575 93.3766 134.39 96.3666 129.38 99.3166L124.19 102.597C113.985 109.057 106.54 113.702 101.315 116.742C99.6599 117.877 98.2449 118.887 97.1099 119.742C101.76 116.992 109.68 112.317 117.61 107.692C142.61 93.0616 142.99 93.1666 143.465 93.2916C143.563 93.3167 143.655 93.3611 143.735 93.422C143.816 93.483 143.884 93.5593 143.935 93.6466C144.007 93.7745 144.053 93.9158 144.069 94.0619C144.086 94.2079 144.072 94.3558 144.03 94.4966C143.882 94.9808 143.6 95.4127 143.215 95.7416C144.93 94.8866 146.005 94.5366 146.535 94.6616C146.664 94.6911 146.785 94.7467 146.892 94.825C146.999 94.9032 147.088 95.0025 147.155 95.1166C147.555 95.8066 146.995 96.1816 145.76 97.0016C145.015 97.5016 143.915 98.1966 142.39 99.1466L142.095 99.3316C144.425 98.2166 146.06 97.6916 146.88 97.8916C147.047 97.9261 147.206 97.9951 147.345 98.094C147.485 98.193 147.602 98.3199 147.69 98.4666C148.38 99.6616 147.69 100.422 123.295 114.852C113.05 120.957 99.5149 128.957 95.8249 131.957C97.8599 131.242 102.93 128.792 115.53 121.167C125.8 114.952 137.11 107.697 142.53 104.212C146.295 101.797 146.29 101.802 146.625 101.882C146.824 101.932 146.995 102.06 147.1 102.237C147.405 102.767 147.715 103.302 143.6 106.367C144.181 106.104 144.819 105.994 145.455 106.047C145.595 106.08 145.727 106.141 145.842 106.227C145.957 106.313 146.053 106.422 146.125 106.547C146.565 107.312 146.565 107.312 138.475 112.612C134.475 115.222 128.925 118.827 121.925 123.327C115.175 127.667 108.37 132.022 103.71 134.997C113.15 129.937 130.84 118.717 138.71 113.727C145.71 109.302 145.71 109.302 146.09 109.397C146.188 109.422 146.28 109.466 146.36 109.527C146.441 109.588 146.509 109.664 146.56 109.752C147.095 110.682 146.245 112.002 142.955 114.447C143.051 114.433 143.149 114.433 143.245 114.447C143.367 114.476 143.483 114.529 143.584 114.604C143.685 114.679 143.771 114.773 143.835 114.882C144.36 115.792 144.955 116.822 122.765 130.717C129.145 126.787 135.765 122.607 141.11 119.142C141.195 119.086 141.291 119.048 141.392 119.031C141.493 119.013 141.596 119.017 141.695 119.041C141.794 119.065 141.887 119.108 141.969 119.17C142.051 119.231 142.119 119.308 142.17 119.397C142.535 120.037 142.03 120.397 141.17 120.997C140.67 121.352 139.915 121.872 138.925 122.532C137.935 123.192 136.705 124.032 135.22 124.992C137.29 123.942 138.57 123.517 139.22 123.677C139.361 123.708 139.494 123.769 139.61 123.855C139.726 123.941 139.823 124.051 139.895 124.177C140.315 124.902 140.22 125.177 135.16 128.447C136.225 127.992 136.98 127.827 137.465 127.947C137.616 127.979 137.758 128.042 137.883 128.133C138.007 128.223 138.112 128.339 138.19 128.472C138.78 129.472 138.335 129.942 124.785 138.147C120.905 140.497 116.02 143.452 112.065 146.002L138.67 130.647C138.755 130.596 138.849 130.563 138.947 130.551C139.045 130.538 139.145 130.545 139.24 130.572C139.431 130.623 139.594 130.746 139.695 130.917C140.065 131.562 139.54 131.947 138.67 132.587C138.145 132.972 137.375 133.517 136.315 134.247C134.34 135.617 131.595 137.472 128.69 139.442C125.305 141.732 121.045 144.617 117.555 147.042C119.16 145.982 120.83 144.847 122.315 143.837C130.05 138.577 133.315 136.472 134.59 136.752C134.723 136.781 134.85 136.837 134.961 136.917C135.072 136.997 135.165 137.099 135.235 137.217C135.67 137.977 135.69 138.012 126.82 144.437C133.255 140.157 135.36 138.937 136.32 139.152C136.443 139.18 136.56 139.233 136.662 139.308C136.765 139.382 136.851 139.477 136.915 139.587C137.265 140.197 137.265 140.197 132.79 143.852C131.44 144.952 129.565 146.482 127.875 147.897C129.245 147.052 130.755 146.092 132.19 145.162C132.275 145.106 132.371 145.068 132.472 145.051C132.573 145.033 132.676 145.037 132.775 145.061C132.874 145.085 132.967 145.128 133.049 145.19C133.131 145.251 133.199 145.328 133.25 145.417C133.53 145.917 133.425 146.017 132.4 147.117C131.565 148.012 130.85 148.797 130.245 149.467C134.785 146.762 134.95 146.807 135.27 146.887C135.367 146.912 135.458 146.956 135.538 147.017C135.618 147.078 135.685 147.154 135.735 147.242C135.785 147.327 135.817 147.421 135.831 147.519C135.844 147.617 135.837 147.716 135.812 147.812C135.786 147.907 135.742 147.996 135.682 148.074C135.621 148.153 135.546 148.218 135.46 148.267C135.387 148.31 135.308 148.341 135.225 148.357C134.56 148.657 130.865 150.832 127.61 152.802C127.5 152.852 127.38 152.876 127.26 152.872V152.872ZM134.475 147.957C134.554 148.091 134.673 148.197 134.815 148.262C134.674 148.195 134.556 148.089 134.475 147.957V147.957ZM116.015 140.322C111.695 143.017 107.445 145.717 104.675 147.642C107.69 145.847 112.07 142.957 116.015 140.322V140.322ZM134.61 127.007C129.705 129.727 121.77 134.837 115.74 138.732C117.96 137.347 120.49 135.782 123.365 134.012C127.325 131.577 131.59 128.957 134.61 127.007V127.007ZM134.29 130.507C131.625 131.927 127.58 134.507 123.635 137.082L124.05 136.832C127.735 134.592 131.735 132.167 134.29 130.497V130.507ZM109.705 119.277C106.405 121.342 103.405 123.287 100.905 124.957C103.495 123.302 106.565 121.317 109.705 119.277ZM145.3 99.6116C143.85 100.112 140.775 101.512 134.27 105.417C127.765 109.322 119.905 114.457 112.905 119.007C109.85 121.007 107.28 122.657 105.11 124.047C109.32 121.457 114.975 118.072 122.53 113.602C131.725 108.147 142.005 102.067 145.3 99.6116V99.6116ZM140.605 114.282L139.545 114.957C136.045 117.18 132.73 119.272 129.6 121.232C133.775 118.722 137.72 116.267 140.605 114.282ZM107.445 110.957C102.86 113.727 98.4049 116.457 95.4449 118.322C96.9449 117.557 98.7499 116.532 100.79 115.322C102.795 113.957 105.04 112.482 107.445 110.957ZM119.185 97.7466C117.265 99.0266 115.375 100.297 113.605 101.482C110.105 103.842 106.995 105.902 104.3 107.672L107.055 105.972C117.18 99.7316 131.8 90.7116 136.1 87.4416C134.51 88.1524 132.968 88.9675 131.485 89.8816C129.775 91.0766 127.6 92.5116 124.845 94.2516C123.05 95.3766 121.145 96.5466 119.185 97.7366V97.7466Z" fill="white"/>
</g>
<path id="Vector_12" d="M116.64 72.7317H116.305C98.1749 73.0667 84.5099 86.9367 84.5099 104.002C84.5019 109.098 85.7449 114.118 88.1299 118.622C89.1299 120.997 91.5499 126.812 93.9449 134.332C96.1649 141.272 97.3249 148.257 97.3249 149.332C97.3249 149.432 97.3249 149.537 97.3249 149.652C97.3149 149.965 97.368 150.278 97.481 150.571C97.594 150.864 97.7647 151.131 97.9829 151.357C98.2012 151.582 98.4625 151.762 98.7514 151.885C99.0403 152.008 99.351 152.071 99.6649 152.072H132.135C132.449 152.071 132.76 152.008 133.048 151.885C133.337 151.762 133.599 151.582 133.817 151.357C134.035 151.131 134.206 150.864 134.319 150.571C134.432 150.278 134.485 149.965 134.475 149.652C134.475 149.537 134.475 149.432 134.475 149.332C134.475 148.277 135.635 141.292 137.85 134.332C140.25 126.832 142.645 120.997 143.665 118.622C146.158 113.904 147.404 108.627 147.282 103.292C147.16 97.9569 145.676 92.7419 142.97 88.1427C140.264 83.5435 136.426 79.713 131.822 77.0155C127.218 74.3181 122 72.8434 116.665 72.7317H116.64Z" stroke="#263238" stroke-width="2" stroke-linecap="round" stroke-linejoin="round"/>
<path id="Vector_13" d="M127.595 77.7516C126.69 77.345 125.761 76.991 124.815 76.6917" stroke="#263238" stroke-width="3" stroke-linecap="round" stroke-linejoin="round"/>
<path id="Vector_14" d="M138.015 85.6915C138.015 85.6915 135.465 81.6415 129.86 78.8865" stroke="#263238" stroke-width="3" stroke-linecap="round" stroke-linejoin="round"/>
<path id="Vector_15" d="M113.825 137.891V121.831C113.825 121.831 115.06 114.011 110.995 114.011C106.93 114.011 107.24 118.081 111.93 122.456C116.62 126.831 123.82 122.771 124.76 119.331C125.7 115.891 123.195 114.331 121.63 117.141C120.065 119.951 121.63 151.866 121.63 151.866" stroke="#263238" stroke-width="3" stroke-linecap="round" stroke-linejoin="round"/>
<path id="Vector_16" d="M105.13 64.6067L106.86 70.0517" stroke="#263238" stroke-width="3" stroke-linecap="round" stroke-linejoin="round"/>
<path id="Vector_17" d="M147.52 76.4817L141.825 80.9367" stroke="#263238" stroke-width="3" stroke-linecap="round" stroke-linejoin="round"/>
<path id="Vector_18" d="M126.405 60.6316L124.26 70.0516" stroke="#263238" stroke-width="3" stroke-linecap="round" stroke-linejoin="round"/>
<path id="Vector_19" d="M133.04 154.412H98.7449C98.3059 154.412 97.95 154.768 97.95 155.207V155.602C97.95 156.041 98.3059 156.397 98.7449 156.397H133.04C133.479 156.397 133.835 156.041 133.835 155.602V155.207C133.835 154.768 133.479 154.412 133.04 154.412Z" fill="#263238" stroke="#263238" stroke-linecap="round" stroke-linejoin="round"/>
<path id="Vector_20" d="M133.04 158.882H98.7449C98.3059 158.882 97.95 159.238 97.95 159.677V160.072C97.95 160.511 98.3059 160.867 98.7449 160.867H133.04C133.479 160.867 133.835 160.511 133.835 160.072V159.677C133.835 159.238 133.479 158.882 133.04 158.882Z" fill="#263238" stroke="#263238" stroke-linecap="round" stroke-linejoin="round"/>
<path id="Vector_21" d="M133.04 163.352H98.7449C98.3059 163.352 97.95 163.707 97.95 164.147V164.542C97.95 164.981 98.3059 165.337 98.7449 165.337H133.04C133.479 165.337 133.835 164.981 133.835 164.542V164.147C133.835 163.707 133.479 163.352 133.04 163.352Z" fill="#263238" stroke="#263238" stroke-linecap="round" stroke-linejoin="round"/>
<path id="Vector_22" d="M116.945 167.717H99.335L104.405 174.717C104.84 175.318 105.411 175.807 106.071 176.144C106.732 176.482 107.463 176.657 108.205 176.657H123.705C124.448 176.656 125.181 176.479 125.842 176.14C126.504 175.801 127.075 175.31 127.51 174.707L132.54 167.742L116.945 167.717Z" fill="#263238" stroke="#263238" stroke-linecap="round" stroke-linejoin="round"/>
</g>
<g id="freepik--hand-3--inject-2">
<path id="Vector_23" d="M154.75 92.9565C154.75 92.9565 151.55 96.4565 148.93 98.1965C146.31 99.9365 144.485 102.251 146.89 103.436C148.335 104.146 150.39 103.146 150.39 103.146C150.39 103.146 147.185 104.016 146.605 106.931C146.025 109.846 152.405 108.666 152.405 108.666C152.405 108.666 147.75 111.866 149.205 113.031C150.66 114.196 153.57 113.321 155.025 113.321C156.48 113.321 163.76 108.666 165.525 108.666C167.29 108.666 170.765 112.451 170.765 115.361C170.765 118.271 175.405 117.981 176 108.956C176.595 99.9315 174.255 92.3665 170.47 90.0365C166.685 87.7065 154.75 92.9565 154.75 92.9565Z" fill="white" stroke="#263238" stroke-miterlimit="10" stroke-linecap="round"/>
<path id="Vector_24" d="M153.005 102.842L164.62 98.5016C164.62 98.5016 169.72 97.3966 173.38 103.427" stroke="#263238" stroke-miterlimit="10" stroke-linecap="round"/>
<path id="Vector_25" d="M155.04 106.336L165.54 104.591C165.54 104.591 170.2 104.301 173.11 109.831" stroke="#263238" stroke-miterlimit="10" stroke-linecap="round"/>
<g id="Vector_26">
<path d="M167.85 113.322L159.99 115.072L164.645 133.697C164.645 133.697 168.725 141.847 169.885 145.342C171.045 148.837 182.985 160.457 182.985 160.457L196.955 147.067C196.955 147.067 190.555 139.502 190.265 137.752C189.975 136.002 188.805 115.632 188.805 112.722C188.805 109.812 182.985 102.822 182.985 102.822C182.985 102.822 180.595 99.3966 179.43 93.5766C178.265 87.7566 172.93 85.3616 170.01 85.6516C167.09 85.9416 159.115 86.8166 155.915 89.1516C152.715 91.4866 149.8 94.3915 152.715 95.2665C157.55 96.7165 165.46 90.2665 169.275 94.7265C171.025 96.7615 173.09 105.727 173.38 106.912C173.38 106.912 171.925 112.442 167.85 113.312" fill="white"/>
<path d="M167.85 113.322L159.99 115.072L164.645 133.697C164.645 133.697 168.725 141.847 169.885 145.342C171.045 148.837 182.985 160.457 182.985 160.457L196.955 147.067C196.955 147.067 190.555 139.502 190.265 137.752C189.975 136.002 188.805 115.632 188.805 112.722C188.805 109.812 182.985 102.822 182.985 102.822C182.985 102.822 180.595 99.3966 179.43 93.5766C178.265 87.7566 172.93 85.3616 170.01 85.6516C167.09 85.9416 159.115 86.8166 155.915 89.1516C152.715 91.4866 149.8 94.3915 152.715 95.2665C157.55 96.7165 165.46 90.2665 169.275 94.7265C171.025 96.7615 173.09 105.727 173.38 106.912C173.38 106.912 171.925 112.442 167.85 113.312" stroke="#263238" stroke-miterlimit="10" stroke-linecap="round"/>
</g>
<path id="Vector_27" d="M138.54 86.2664C138.629 86.173 138.749 86.1146 138.877 86.1018C139.005 86.089 139.134 86.1225 139.24 86.1964L140.43 87.0214C140.547 87.1041 140.627 87.2298 140.653 87.3712C140.678 87.5125 140.646 87.6582 140.565 87.7764C140.483 87.8935 140.358 87.9735 140.218 87.9988C140.077 88.0241 139.932 87.9927 139.815 87.9114L138.625 87.0814C138.508 86.9997 138.428 86.8749 138.403 86.7343C138.377 86.5937 138.409 86.4489 138.49 86.3314C138.504 86.3077 138.521 86.2859 138.54 86.2664Z" fill="#263238" stroke="#263238" stroke-miterlimit="10" stroke-linecap="round"/>
<path id="Vector_28" d="M139.905 87.2265C140.107 87.0106 140.38 86.8749 140.674 86.8446C140.968 86.8143 141.263 86.8913 141.505 87.0615L145.235 88.9815L181.855 113.071C182.167 113.289 182.434 113.565 182.639 113.885C182.844 114.205 182.985 114.562 183.052 114.936C183.119 115.311 183.112 115.694 183.031 116.066C182.95 116.437 182.797 116.789 182.58 117.101C182.363 117.414 182.087 117.68 181.767 117.886C181.447 118.091 181.089 118.231 180.715 118.299C180.341 118.366 179.957 118.359 179.586 118.278C179.214 118.197 178.862 118.043 178.55 117.826L143.01 91.6065L140.105 89.1065C139.972 89.014 139.858 88.8961 139.77 88.7595C139.682 88.623 139.622 88.4705 139.593 88.3108C139.565 88.151 139.568 87.9872 139.602 87.8286C139.637 87.67 139.702 87.5197 139.795 87.3865C139.826 87.3297 139.863 87.2761 139.905 87.2265V87.2265Z" fill="#7FC844" stroke="#263238" stroke-miterlimit="10" stroke-linecap="round"/>
<path id="Vector_29" d="M181.86 113.072L171.29 106.122C170.474 106.358 169.755 106.848 169.236 107.52C168.718 108.193 168.427 109.013 168.405 109.862C168.406 110.029 168.419 110.196 168.445 110.362L178.555 117.822C179.185 118.26 179.964 118.43 180.72 118.294C181.476 118.158 182.147 117.727 182.585 117.097C183.023 116.466 183.193 115.687 183.057 114.931C182.921 114.176 182.49 113.505 181.86 113.067V113.072Z" fill="#263238" stroke="#263238" stroke-miterlimit="10" stroke-linecap="round"/>
<g id="Vector_30">
<path d="M169.905 145.342C166.705 140.687 162.63 128.752 160.905 126.422C159.18 124.092 154.475 118.922 152.73 113.702C150.985 108.482 149.84 104.302 149.84 99.9317C149.84 95.5617 153.595 94.8117 156.505 99.4717C159.415 104.132 162.905 111.287 162.905 111.287C162.905 111.287 165.235 114.197 169.905 113.322" fill="white"/>
<path d="M169.905 145.342C166.705 140.687 162.63 128.752 160.905 126.422C159.18 124.092 154.475 118.922 152.73 113.702C150.985 108.482 149.84 104.302 149.84 99.9317C149.84 95.5617 153.595 94.8117 156.505 99.4717C159.415 104.132 162.905 111.287 162.905 111.287C162.905 111.287 165.235 114.197 169.905 113.322" stroke="#263238" stroke-miterlimit="10" stroke-linecap="round"/>
</g>
<path id="Vector_31" d="M153.45 98.1116L154.45 100.057C154.45 100.057 154.23 100.057 152.675 100.942C151.747 101.471 150.968 102.226 150.41 103.137C150.41 103.137 148.91 98.9466 150.235 97.6366C150.557 97.2966 150.982 97.0732 151.445 97.0016C151.853 96.9589 152.264 97.0424 152.622 97.241C152.981 97.4395 153.27 97.7434 153.45 98.1116Z" fill="white" stroke="#263238" stroke-miterlimit="10" stroke-linecap="round"/>
<path id="Vector_32" d="M193.905 141.136C193.905 141.136 186.2 143.416 182.2 147.416C179.551 150.116 177.071 152.976 174.775 155.981L181.915 164.261C181.915 164.261 187.915 157.406 191.915 154.261C194.639 152.169 197.501 150.262 200.48 148.551L193.905 141.136Z" fill="white" stroke="#263238" stroke-miterlimit="10" stroke-linecap="round"/>
<g id="Vector_33">
<path d="M201.06 201.376L178.505 165.116C178.505 165.116 184.215 156.551 189.07 152.271C193.925 147.991 200.205 146.846 200.205 146.846L228.405 173.911" fill="#263238"/>
<path d="M201.06 201.376L178.505 165.116C178.505 165.116 184.215 156.551 189.07 152.271C193.925 147.991 200.205 146.846 200.205 146.846L228.405 173.911" stroke="#263238" stroke-miterlimit="10" stroke-linecap="round"/>
</g>
<path id="Vector_34" d="M157.605 108.702L158.105 108.652" stroke="#263238" stroke-miterlimit="10" stroke-linecap="round"/>
<path id="Vector_35" d="M153.25 111.121C153.25 111.121 153.515 109.526 156.72 108.856" stroke="#263238" stroke-miterlimit="10" stroke-linecap="round"/>
<path id="Vector_36" d="M156.73 109.997C156.73 109.997 156.505 110.672 154.26 111.572" stroke="#263238" stroke-miterlimit="10" stroke-linecap="round"/>
<path id="Vector_37" d="M156.64 107.862C155.517 108.038 154.449 108.471 153.52 109.127" stroke="#263238" stroke-miterlimit="10" stroke-linecap="round"/>
</g>
<g id="freepik--hand-1--inject-2">
<path id="Vector_38" d="M96.875 135.041C96.875 135.041 97.33 139.756 98.375 142.731C99.42 145.706 99.48 148.646 96.845 148.141C95.265 147.836 94.23 145.806 94.23 145.806C94.23 145.806 96.265 148.431 94.975 151.101C93.685 153.771 89.275 148.991 89.275 148.991C89.275 148.991 91.065 154.351 89.205 154.406C87.345 154.461 85.54 152.011 84.38 151.136C83.22 150.261 80.21 142.136 78.815 141.106C77.42 140.076 72.355 140.971 70.605 143.296C68.855 145.621 65.305 142.586 70.275 135.031C75.245 127.476 81.66 122.831 86.08 123.251C90.5 123.671 96.875 135.041 96.875 135.041Z" fill="white" stroke="#263238" stroke-miterlimit="10" stroke-linecap="round"/>
<path id="Vector_39" d="M92.3099 143.996L85.6499 133.531C85.6499 133.531 82.2449 129.576 75.6899 132.191" stroke="#263238" stroke-miterlimit="10" stroke-linecap="round"/>
<path id="Vector_40" d="M88.5799 145.556L81.2649 137.851C81.2649 137.851 77.7199 134.816 72.0699 137.481" stroke="#263238" stroke-miterlimit="10" stroke-linecap="round"/>
<g id="Vector_41">
<path d="M74.15 143.421L79.37 149.551L64.435 161.621C64.435 161.621 56.275 165.671 53.245 167.761C50.215 169.851 33.67 171.956 33.67 171.956L30.58 152.856C30.58 152.856 40.25 150.671 41.53 149.451C42.81 148.231 56.03 132.666 57.765 130.341C59.5 128.016 68.375 125.941 68.375 125.941C68.375 125.941 72.345 124.646 76.78 120.701C81.215 116.756 86.92 118.061 89.07 120.046C91.22 122.031 97.07 127.546 98.225 131.316C99.38 135.086 99.95 139.181 97.1 138.126C92.365 136.371 89.93 126.466 84.2 127.721C81.58 128.296 74.52 134.221 73.59 134.981C73.59 134.981 71.42 140.271 74.15 143.421" fill="white"/>
<path d="M74.15 143.421L79.37 149.551L64.435 161.621C64.435 161.621 56.275 165.671 53.245 167.761C50.215 169.851 33.67 171.956 33.67 171.956L30.58 152.856C30.58 152.856 40.25 150.671 41.53 149.451C42.81 148.231 56.03 132.666 57.765 130.341C59.5 128.016 68.375 125.941 68.375 125.941C68.375 125.941 72.345 124.646 76.78 120.701C81.215 116.756 86.92 118.061 89.07 120.046C91.22 122.031 97.07 127.546 98.225 131.316C99.38 135.086 99.95 139.181 97.1 138.126C92.365 136.371 89.93 126.466 84.2 127.721C81.58 128.296 74.52 134.221 73.59 134.981C73.59 134.981 71.42 140.271 74.15 143.421" stroke="#263238" stroke-miterlimit="10" stroke-linecap="round"/>
</g>
<path id="Vector_42" d="M113.84 139.456C113.831 139.327 113.775 139.205 113.683 139.113C113.591 139.021 113.469 138.966 113.34 138.956L111.89 138.901C111.819 138.899 111.748 138.91 111.682 138.935C111.615 138.96 111.554 138.997 111.502 139.046C111.45 139.094 111.408 139.152 111.379 139.216C111.349 139.281 111.333 139.351 111.33 139.421C111.327 139.492 111.339 139.563 111.363 139.63C111.388 139.696 111.426 139.757 111.474 139.809C111.522 139.861 111.58 139.903 111.645 139.933C111.709 139.962 111.779 139.979 111.85 139.981L113.3 140.036C113.44 140.041 113.576 139.991 113.68 139.898C113.784 139.805 113.848 139.676 113.86 139.536C113.856 139.509 113.85 139.482 113.84 139.456V139.456Z" fill="#263238" stroke="#263238" stroke-miterlimit="10" stroke-linecap="round"/>
<path id="Vector_43" d="M112.17 139.411C112.138 139.117 112.001 138.844 111.784 138.642C111.568 138.44 111.286 138.323 110.99 138.311L106.855 137.601L63.115 134.786C62.7349 134.772 62.3555 134.832 61.9986 134.964C61.6417 135.096 61.3143 135.296 61.035 135.555C60.7557 135.813 60.5301 136.124 60.371 136.47C60.2118 136.815 60.1223 137.189 60.1075 137.569C60.0928 137.949 60.153 138.328 60.2848 138.685C60.4167 139.042 60.6175 139.37 60.8759 139.649C61.1343 139.928 61.4451 140.154 61.7907 140.313C62.1363 140.472 62.5099 140.562 62.89 140.576L107.055 141.036L110.895 140.776C111.222 140.789 111.54 140.671 111.78 140.448C112.02 140.226 112.162 139.918 112.175 139.591C112.178 139.531 112.177 139.471 112.17 139.411Z" fill="#7FC844" stroke="#263238" stroke-miterlimit="10" stroke-linecap="round"/>
<path id="Vector_44" d="M63.115 134.786L75.735 135.601C76.2448 136.281 76.5249 137.105 76.5348 137.955C76.5447 138.804 76.2839 139.635 75.79 140.326C75.685 140.459 75.5732 140.586 75.4551 140.706L62.905 140.576C62.5249 140.562 62.1513 140.472 61.8057 140.313C61.4602 140.154 61.1493 139.928 60.8909 139.649C60.6325 139.37 60.4317 139.042 60.2999 138.685C60.168 138.328 60.1078 137.949 60.1225 137.569C60.1373 137.189 60.2268 136.815 60.386 136.47C60.5451 136.124 60.7707 135.813 61.05 135.555C61.3293 135.296 61.6567 135.096 62.0136 134.964C62.3705 134.832 62.7499 134.772 63.13 134.786H63.115Z" fill="#263238" stroke="#263238" stroke-miterlimit="10" stroke-linecap="round"/>
<g id="Vector_45">
<path d="M53.245 167.761C58.605 165.971 69.045 158.896 71.84 158.086C74.635 157.276 81.475 155.986 86.025 152.856C90.575 149.726 93.99 147.086 96.62 143.596C99.25 140.106 96.71 137.251 91.58 139.216C86.45 141.181 79.325 144.776 79.325 144.776C79.325 144.776 75.715 145.696 72.52 142.196" fill="white"/>
<path d="M53.245 167.761C58.605 165.971 69.045 158.896 71.84 158.086C74.635 157.276 81.475 155.986 86.025 152.856C90.575 149.726 93.99 147.086 96.62 143.596C99.25 140.106 96.71 137.251 91.58 139.216C86.45 141.181 79.325 144.776 79.325 144.776C79.325 144.776 75.715 145.696 72.52 142.196" stroke="#263238" stroke-miterlimit="10" stroke-linecap="round"/>
</g>
<path id="Vector_46" d="M94.805 139.956L92.855 140.921C92.855 140.921 93.035 141.056 93.74 142.696C94.1675 143.677 94.3395 144.751 94.24 145.816C94.24 145.816 97.965 143.376 97.7 141.511C97.6488 141.047 97.4448 140.612 97.12 140.276C96.8164 139.987 96.4295 139.8 96.0141 139.743C95.5987 139.686 95.1757 139.76 94.805 139.956Z" fill="white" stroke="#263238" stroke-miterlimit="10" stroke-linecap="round"/>
<path id="Vector_47" d="M40.495 148.741C40.495 148.741 45.275 155.206 46.06 160.806C46.5499 164.555 46.8071 168.331 46.83 172.111L32.235 175.611C32.235 175.611 31.575 166.531 30.275 161.611C29.3596 158.301 28.2237 155.055 26.875 151.896L40.495 148.741Z" fill="white" stroke="#263238" stroke-miterlimit="10" stroke-linecap="round"/>
<path id="Vector_48" d="M41.16 160.021C39.86 153.681 35.535 148.986 35.535 148.986L1 154.486V193.486L41.86 176.631C41.86 176.631 42.455 166.361 41.16 160.021Z" fill="#263238" stroke="#263238" stroke-miterlimit="10" stroke-linecap="round"/>
<path id="Vector_49" d="M31.9051 176.956C31.911 177.261 31.8255 177.561 31.6597 177.817C31.4939 178.074 31.2553 178.274 30.9745 178.394C30.6938 178.513 30.3837 178.546 30.0841 178.488C29.7846 178.43 29.5092 178.284 29.2935 178.068C29.0777 177.852 28.9314 177.577 28.8733 177.277C28.8152 176.978 28.8481 176.668 28.9676 176.387C29.0871 176.106 29.2878 175.867 29.5439 175.702C29.8001 175.536 30.1 175.45 30.4051 175.456C30.8005 175.464 31.1776 175.625 31.4572 175.904C31.7369 176.184 31.8974 176.561 31.9051 176.956Z" fill="white"/>
<path id="Vector_50" d="M36.195 175.136C36.194 175.439 36.1034 175.734 35.9347 175.985C35.766 176.236 35.5267 176.431 35.247 176.546C34.9674 176.661 34.6599 176.691 34.3635 176.631C34.067 176.572 33.7948 176.426 33.5814 176.211C33.3679 175.997 33.2227 175.725 33.164 175.428C33.1054 175.131 33.136 174.824 33.252 174.545C33.3679 174.265 33.564 174.027 33.8155 173.859C34.067 173.691 34.3626 173.601 34.665 173.601C34.8663 173.601 35.0657 173.641 35.2517 173.718C35.4376 173.795 35.6065 173.909 35.7486 174.051C35.8908 174.194 36.0034 174.363 36.08 174.549C36.1566 174.735 36.1957 174.935 36.195 175.136V175.136Z" fill="white"/>
<path id="Vector_51" d="M85.105 145.901L84.765 145.571" stroke="#263238" stroke-miterlimit="10" stroke-linecap="round"/>
<path id="Vector_52" d="M87.13 150.456C87.13 150.456 87.88 149.021 85.725 146.556" stroke="#263238" stroke-miterlimit="10" stroke-linecap="round"/>
<path id="Vector_53" d="M85.03 147.456C85.03 147.456 84.8 148.131 86.055 150.201" stroke="#263238" stroke-miterlimit="10" stroke-linecap="round"/>
<path id="Vector_54" d="M86.405 145.811C87.195 146.629 87.7853 147.618 88.13 148.701" stroke="#263238" stroke-miterlimit="10" stroke-linecap="round"/>
</g>
</g>
</g>
</svg>
