<svg width="314" height="232" viewBox="0 0 314 232" fill="none" xmlns="http://www.w3.org/2000/svg">
<g id="ecom-svg">
<g id="svg_background">
<path id="Vector" d="M265.928 56.9623C265.928 56.9623 214.538 4.32733 147.753 0.267332C80.9685 -3.79267 42.0235 39.3423 23.5685 65.0723C5.11345 90.8023 -3.35121 126.755 2.06379 166C7.47879 205.245 23.1635 241.967 99.4235 228.882C175.683 215.797 197.793 210.832 232.538 220.762C267.283 230.692 312.408 215.797 313.313 159.392C314.218 102.987 265.928 56.9623 265.928 56.9623Z" fill="#7FC844"/>
<path id="Vector_2" opacity="0.7" d="M265.928 56.9623C265.928 56.9623 214.539 4.32733 147.754 0.267332C80.9685 -3.79267 42.0235 39.3423 23.5685 65.0723C5.11348 90.8023 -3.85134 125.255 1.56366 164.5C6.97866 203.745 23.1635 241.967 99.4235 228.882C175.683 215.797 197.793 210.832 232.538 220.762C267.283 230.692 312.408 215.797 313.313 159.392C314.218 102.987 265.928 56.9623 265.928 56.9623Z" fill="white"/>
</g>
<g id="svg_vector">
<g id="freepik--Coins--inject-6">
<path id="Vector_3" d="M262.914 111.382C272.145 111.382 279.629 103.899 279.629 94.6674C279.629 85.436 272.145 77.9524 262.914 77.9524C253.682 77.9524 246.199 85.436 246.199 94.6674C246.199 103.899 253.682 111.382 262.914 111.382Z" fill="white" stroke="#263238" stroke-linecap="round" stroke-linejoin="round"/>
<path id="Vector_4" d="M272.67 104.425C278.057 99.0374 278.057 90.3029 272.67 84.9156C267.282 79.5283 258.548 79.5283 253.161 84.9156C247.773 90.3029 247.773 99.0374 253.161 104.425C258.548 109.812 267.282 109.812 272.67 104.425Z" fill="white" stroke="#263238" stroke-linecap="round" stroke-linejoin="round"/>
<path id="Vector_5" d="M262.814 106.218V104.288C261.234 104.223 260.054 103.713 259.279 102.743C258.504 101.773 258.079 100.403 258.004 98.6226L260.949 98.0476C260.969 98.6909 261.053 99.3307 261.199 99.9576C261.299 100.436 261.527 100.879 261.859 101.238C262.016 101.387 262.202 101.504 262.406 101.581C262.61 101.657 262.826 101.692 263.044 101.683C263.267 101.703 263.492 101.668 263.699 101.581C263.905 101.494 264.087 101.357 264.229 101.183C264.476 100.814 264.6 100.376 264.584 99.9326C264.615 99.2226 264.417 98.5214 264.019 97.9326C263.594 97.3564 263.104 96.8312 262.559 96.3676L260.189 94.2976C259.776 93.9294 259.398 93.5244 259.059 93.0876C258.734 92.6613 258.478 92.1873 258.299 91.6826C258.107 91.0833 258.014 90.4568 258.024 89.8276C257.989 89.2279 258.078 88.6276 258.285 88.0636C258.491 87.4995 258.811 86.9836 259.224 86.5476C260.095 85.7246 261.245 85.2605 262.444 85.2476V83.3826H263.444V85.1826C264.119 85.1931 264.783 85.3645 265.379 85.6826C265.867 85.9633 266.28 86.3578 266.584 86.8326C266.891 87.3177 267.117 87.8497 267.254 88.4076C267.401 89.0041 267.49 89.6137 267.519 90.2276L264.619 90.7276C264.593 90.1989 264.531 89.6727 264.434 89.1526C264.376 88.744 264.203 88.3604 263.934 88.0476C263.788 87.9063 263.611 87.8008 263.418 87.7392C263.224 87.6776 263.019 87.6617 262.819 87.6926C262.596 87.6828 262.375 87.7226 262.17 87.8091C261.965 87.8956 261.782 88.0266 261.634 88.1926C261.356 88.5371 261.212 88.9704 261.229 89.4126C261.203 89.9789 261.357 90.5388 261.669 91.0126C261.987 91.4509 262.349 91.8562 262.749 92.2226L265.099 94.2676C265.591 94.7163 266.049 95.201 266.469 95.7176C266.89 96.2463 267.227 96.8365 267.469 97.4676C267.734 98.1736 267.863 98.9235 267.849 99.6776C267.861 100.447 267.69 101.208 267.349 101.898C267.033 102.538 266.553 103.083 265.959 103.478C265.315 103.892 264.581 104.145 263.819 104.213V106.168L262.814 106.218Z" fill="white" stroke="#263238" stroke-linecap="round" stroke-linejoin="round"/>
<path id="Vector_6" d="M261.151 170.82C271.301 168.383 277.554 158.18 275.117 148.03C272.68 137.88 262.477 131.627 252.327 134.064C242.177 136.501 235.925 146.704 238.362 156.854C240.798 167.004 251.002 173.257 261.151 170.82Z" fill="white" stroke="#263238" stroke-linecap="round" stroke-linejoin="round"/>
<path id="Vector_7" d="M260.381 167.548C268.757 165.542 273.921 157.126 271.915 148.75C269.908 140.374 261.492 135.21 253.116 137.216C244.74 139.222 239.576 147.639 241.583 156.015C243.589 164.391 252.005 169.555 260.381 167.548Z" fill="white" stroke="#263238" stroke-linecap="round" stroke-linejoin="round"/>
<path id="Vector_8" d="M256.629 165.473V163.283C254.839 163.213 253.505 162.633 252.629 161.543C251.752 160.453 251.27 158.899 251.184 156.883L254.514 156.233C254.536 156.961 254.633 157.684 254.804 158.393C254.913 158.933 255.169 159.433 255.544 159.838C255.722 160.007 255.932 160.138 256.163 160.224C256.393 160.31 256.638 160.349 256.884 160.338C257.136 160.362 257.39 160.324 257.624 160.226C257.858 160.128 258.064 159.974 258.224 159.778C258.507 159.362 258.649 158.865 258.629 158.363C258.662 157.559 258.438 156.765 257.989 156.098C257.507 155.447 256.954 154.853 256.339 154.328L253.654 151.983C253.185 151.57 252.758 151.113 252.379 150.618C252.009 150.128 251.72 149.583 251.524 149.003C251.301 148.327 251.195 147.619 251.209 146.908C251.171 146.23 251.272 145.553 251.505 144.916C251.738 144.279 252.098 143.696 252.564 143.203C253.55 142.271 254.852 141.746 256.209 141.733V139.623H257.349V141.708C258.115 141.725 258.866 141.925 259.539 142.293C260.091 142.611 260.559 143.057 260.904 143.593C261.248 144.142 261.503 144.743 261.659 145.373C261.826 146.048 261.926 146.738 261.959 147.433L258.679 148.003C258.651 147.405 258.581 146.81 258.469 146.223C258.395 145.759 258.192 145.326 257.884 144.973C257.719 144.813 257.519 144.694 257.301 144.624C257.082 144.553 256.851 144.534 256.624 144.568C256.372 144.559 256.121 144.606 255.889 144.706C255.658 144.805 255.451 144.954 255.284 145.143C254.97 145.53 254.808 146.019 254.829 146.518C254.799 147.159 254.974 147.792 255.329 148.328C255.69 148.822 256.101 149.28 256.554 149.693L259.209 152.013C259.767 152.518 260.285 153.067 260.759 153.653C261.24 154.257 261.626 154.931 261.904 155.653C262.202 156.452 262.348 157.3 262.334 158.153C262.346 159.018 262.154 159.875 261.774 160.653C261.413 161.374 260.87 161.989 260.199 162.438C259.47 162.904 258.64 163.189 257.779 163.268V165.483L256.629 165.473Z" fill="white" stroke="#263238" stroke-linecap="round" stroke-linejoin="round"/>
<path id="Vector_9" d="M235.26 134.436C241.016 128.68 241.016 119.347 235.26 113.591C229.504 107.834 220.171 107.834 214.414 113.591C208.658 119.347 208.658 128.68 214.414 134.436C220.171 140.193 229.504 140.193 235.26 134.436Z" fill="white" stroke="#263238" stroke-linecap="round" stroke-linejoin="round"/>
<path id="Vector_10" d="M224.839 136.177C231.557 136.177 237.004 130.731 237.004 124.012C237.004 117.294 231.557 111.847 224.839 111.847C218.12 111.847 212.674 117.294 212.674 124.012C212.674 130.731 218.12 136.177 224.839 136.177Z" fill="white" stroke="#263238" stroke-linecap="round" stroke-linejoin="round"/>
<path id="Vector_11" d="M224.744 134.182V132.477C224.156 132.493 223.573 132.38 223.034 132.145C222.496 131.91 222.016 131.559 221.629 131.117C220.878 130.056 220.484 128.783 220.504 127.482L223.104 126.982C223.128 127.556 223.21 128.126 223.349 128.682C223.438 129.103 223.638 129.491 223.929 129.807C224.067 129.941 224.23 130.045 224.41 130.113C224.59 130.181 224.782 130.212 224.974 130.202C225.17 130.221 225.368 130.191 225.55 130.115C225.733 130.039 225.893 129.92 226.019 129.767C226.239 129.442 226.349 129.055 226.334 128.662C226.361 128.034 226.186 127.414 225.834 126.892C225.459 126.385 225.028 125.922 224.549 125.512L222.434 123.682C222.068 123.359 221.733 123.003 221.434 122.617C221.142 122.237 220.916 121.812 220.764 121.357C220.59 120.832 220.507 120.281 220.519 119.727C220.488 119.198 220.565 118.669 220.747 118.171C220.928 117.673 221.21 117.218 221.574 116.832C222.343 116.108 223.357 115.7 224.414 115.687V114.042H225.289V115.682C225.885 115.696 226.47 115.852 226.994 116.137C227.421 116.384 227.786 116.726 228.059 117.137C228.329 117.566 228.528 118.035 228.649 118.527C228.777 119.054 228.854 119.591 228.879 120.132L226.324 120.577C226.304 120.111 226.249 119.646 226.159 119.187C226.104 118.826 225.946 118.487 225.704 118.212C225.572 118.087 225.413 117.994 225.24 117.939C225.067 117.885 224.883 117.871 224.704 117.897C224.507 117.892 224.312 117.929 224.131 118.007C223.951 118.084 223.789 118.201 223.659 118.347C223.415 118.651 223.289 119.033 223.304 119.422C223.282 119.921 223.416 120.414 223.689 120.832C223.97 121.219 224.29 121.575 224.644 121.897L226.714 123.702C227.148 124.098 227.553 124.526 227.924 124.982C228.298 125.447 228.598 125.967 228.814 126.522C229.047 127.146 229.161 127.807 229.149 128.472C229.161 129.151 229.011 129.823 228.714 130.432C228.433 130.996 228.008 131.475 227.484 131.822C226.916 132.186 226.27 132.409 225.599 132.472V134.182H224.744Z" fill="white" stroke="#263238" stroke-linecap="round" stroke-linejoin="round"/>
<path id="Vector_12" d="M221.583 102.664C226.473 98.228 226.842 90.6675 222.406 85.7771C217.97 80.8866 210.409 80.5182 205.519 84.9541C200.628 89.39 200.26 96.9506 204.696 101.841C209.132 106.731 216.692 107.1 221.583 102.664Z" fill="white" stroke="#263238" stroke-linecap="round" stroke-linejoin="round"/>
<path id="Vector_13" d="M213.549 103.672C218.997 103.672 223.414 99.2557 223.414 93.8074C223.414 88.3591 218.997 83.9424 213.549 83.9424C208.1 83.9424 203.684 88.3591 203.684 93.8074C203.684 99.2557 208.1 103.672 213.549 103.672Z" fill="white" stroke="#263238" stroke-linecap="round" stroke-linejoin="round"/>
<path id="Vector_14" d="M213.474 102.068V100.683C213.001 100.693 212.533 100.599 212.101 100.408C211.669 100.217 211.284 99.9338 210.974 99.5775C210.363 98.7182 210.043 97.6865 210.059 96.6325L212.169 96.2175C212.181 96.6792 212.241 97.1384 212.349 97.5875C212.419 97.9283 212.581 98.2432 212.819 98.4975C212.93 98.6068 213.062 98.692 213.207 98.7479C213.353 98.8038 213.508 98.8292 213.664 98.8225C213.823 98.8358 213.984 98.8105 214.132 98.7487C214.28 98.6869 214.411 98.5905 214.514 98.4675C214.692 98.2024 214.782 97.887 214.769 97.5675C214.789 97.0599 214.648 96.5589 214.364 96.1375C214.059 95.7254 213.709 95.3496 213.319 95.0175L211.624 93.5175C211.328 93.2556 211.059 92.966 210.819 92.6525C210.585 92.3506 210.401 92.0129 210.274 91.6525C210.134 91.2249 210.067 90.7772 210.074 90.3275C210.05 89.8987 210.114 89.4695 210.262 89.0663C210.41 88.6631 210.638 88.2943 210.934 87.9825C211.558 87.394 212.381 87.062 213.239 87.0525V85.7175H213.944V87.0325C214.428 87.0467 214.903 87.1752 215.329 87.4075C215.678 87.6065 215.973 87.888 216.189 88.2275C216.417 88.574 216.585 88.9559 216.689 89.3575C216.785 89.7929 216.839 90.2367 216.849 90.6825L214.774 91.0425C214.757 90.6649 214.714 90.289 214.644 89.9175C214.598 89.6243 214.47 89.3502 214.274 89.1275C214.169 89.0266 214.042 88.9511 213.903 88.9068C213.765 88.8626 213.618 88.8509 213.474 88.8725C213.314 88.8667 213.156 88.8959 213.009 88.9581C212.862 89.0203 212.73 89.114 212.624 89.2325C212.428 89.4792 212.327 89.7878 212.339 90.1025C212.32 90.5072 212.428 90.9076 212.649 91.2475C212.879 91.56 213.138 91.8496 213.424 92.1125L215.104 93.5775C215.461 93.8983 215.795 94.2442 216.104 94.6125C216.407 94.9924 216.651 95.4154 216.829 95.8675C217.017 96.3726 217.108 96.9086 217.099 97.4475C217.107 97.9965 216.986 98.5397 216.744 99.0325C216.517 99.4918 216.172 99.882 215.744 100.163C215.283 100.458 214.758 100.638 214.214 100.688V102.088L213.474 102.068Z" fill="white" stroke="#263238" stroke-linecap="round" stroke-linejoin="round"/>
<path id="Vector_15" d="M191.314 122.632C196.933 122.632 201.489 118.077 201.489 112.457C201.489 106.838 196.933 102.282 191.314 102.282C185.694 102.282 181.139 106.838 181.139 112.457C181.139 118.077 185.694 122.632 191.314 122.632Z" fill="white" stroke="#263238" stroke-linecap="round" stroke-linejoin="round"/>
<path id="Vector_16" d="M191.314 120.853C195.95 120.853 199.709 117.094 199.709 112.458C199.709 107.821 195.95 104.062 191.314 104.062C186.677 104.062 182.919 107.821 182.919 112.458C182.919 117.094 186.677 120.853 191.314 120.853Z" fill="white" stroke="#263238" stroke-linecap="round" stroke-linejoin="round"/>
<path id="Vector_17" d="M191.249 119.488V118.313C190.843 118.324 190.44 118.246 190.068 118.084C189.696 117.921 189.365 117.678 189.099 117.373C188.583 116.642 188.311 115.767 188.324 114.873L190.114 114.523C190.129 114.915 190.181 115.305 190.269 115.688C190.33 115.977 190.468 116.245 190.669 116.463C190.764 116.555 190.876 116.627 191 116.675C191.124 116.722 191.256 116.743 191.389 116.738C191.525 116.751 191.662 116.73 191.789 116.678C191.915 116.626 192.027 116.543 192.114 116.438C192.27 116.217 192.353 115.953 192.349 115.683C192.366 115.25 192.247 114.824 192.009 114.463C191.748 114.114 191.449 113.796 191.119 113.513L189.674 112.253C189.422 112.028 189.193 111.781 188.989 111.513C188.79 111.25 188.633 110.958 188.524 110.648C188.407 110.282 188.351 109.901 188.359 109.518C188.337 109.152 188.39 108.786 188.514 108.443C188.639 108.099 188.833 107.784 189.084 107.518C189.616 107.017 190.318 106.735 191.049 106.728V105.593H191.649V106.683C192.06 106.689 192.464 106.797 192.824 106.998C193.122 107.169 193.376 107.409 193.564 107.698C193.749 107.994 193.885 108.318 193.969 108.658C194.058 109.02 194.112 109.39 194.129 109.763L192.364 110.073C192.348 109.75 192.312 109.43 192.254 109.113C192.211 108.863 192.102 108.63 191.939 108.438C191.848 108.353 191.741 108.29 191.623 108.253C191.505 108.216 191.381 108.206 191.259 108.223C191.122 108.217 190.987 108.242 190.861 108.296C190.736 108.35 190.624 108.43 190.534 108.533C190.367 108.742 190.28 109.005 190.289 109.273C190.272 109.618 190.367 109.96 190.559 110.248C190.753 110.513 190.972 110.759 191.214 110.983L192.644 112.228C192.943 112.502 193.223 112.797 193.479 113.113C193.737 113.434 193.945 113.793 194.094 114.178C194.255 114.607 194.333 115.064 194.324 115.523C194.332 115.99 194.229 116.453 194.024 116.873C193.832 117.262 193.54 117.593 193.179 117.833C192.787 118.087 192.339 118.241 191.874 118.283V119.473L191.249 119.488Z" fill="white" stroke="#263238" stroke-linecap="round" stroke-linejoin="round"/>
</g>
<g id="freepik--Device--inject-6">
<path id="Vector_18" d="M129.609 203.887L128.254 189.297H100.194L98.8487 203.887C98.6831 205.615 98.0947 207.276 97.1355 208.722C96.1763 210.169 94.8758 211.357 93.3487 212.182L83.9187 217.332H144.529L135.089 212.182C133.566 211.354 132.269 210.165 131.314 208.719C130.358 207.272 129.773 205.613 129.609 203.887V203.887Z" fill="white" stroke="#263238" stroke-linecap="round" stroke-linejoin="round"/>
<path id="Vector_19" d="M129.054 197.882L128.254 189.297H100.194L99.3937 197.882H129.054Z" fill="#263238" stroke="#263238" stroke-linecap="round" stroke-linejoin="round"/>
<path id="Vector_20" d="M144.494 217.332H83.9187V220.067H144.494V217.332Z" fill="#263238" stroke="#263238" stroke-linecap="round" stroke-linejoin="round"/>
<path id="Vector_21" d="M30.5587 66.3022H197.889C198.398 66.3022 198.901 66.4027 199.371 66.5979C199.841 66.7931 200.268 67.0791 200.627 67.4396C200.986 67.8001 201.27 68.2279 201.464 68.6986C201.657 69.1692 201.756 69.6734 201.754 70.1822V184.932C201.754 186.478 201.139 187.961 200.046 189.055C198.953 190.148 197.47 190.762 195.924 190.762H32.5237C30.9775 190.762 29.4946 190.148 28.4013 189.055C27.308 187.961 26.6937 186.478 26.6937 184.932V70.1822C26.6937 69.1572 27.1009 68.1741 27.8258 67.4493C28.5506 66.7245 29.5337 66.3172 30.5587 66.3172V66.3022Z" fill="#263238" stroke="#263238" stroke-linecap="round" stroke-linejoin="round"/>
<path id="Vector_22" d="M196.909 71.7073H31.7388V171.402H196.909V71.7073Z" fill="white" stroke="#263238" stroke-linecap="round" stroke-linejoin="round"/>
<g id="Vector_23">
<path d="M67.7138 88.7322H86.3688V114.012H40.3438V88.7322H64.2738" fill="white"/>
<path d="M67.7138 88.7322H86.3688V114.012H40.3438V88.7322H64.2738" stroke="#263238" stroke-linecap="round" stroke-linejoin="round"/>
</g>
<g id="Vector_24">
<path d="M104.724 114.012H90.2238V88.7322H136.249V114.012H107.089" fill="white"/>
<path d="M104.724 114.012H90.2238V88.7322H136.249V114.012H107.089" stroke="#263238" stroke-linecap="round" stroke-linejoin="round"/>
</g>
<g id="Vector_25">
<path d="M186.129 97.2322V114.012H140.104V88.7322H186.129V93.5722" fill="white"/>
<path d="M186.129 97.2322V114.012H140.104V88.7322H186.129V93.5722" stroke="#263238" stroke-linecap="round" stroke-linejoin="round"/>
</g>
<path id="Vector_26" d="M40.9337 125.177H84.7237" stroke="#263238" stroke-linecap="round" stroke-linejoin="round"/>
<path id="Vector_27" d="M40.9337 131.352H84.7237" stroke="#263238" stroke-linecap="round" stroke-linejoin="round"/>
<path id="Vector_28" d="M40.9337 137.522H84.7237" stroke="#263238" stroke-linecap="round" stroke-linejoin="round"/>
<path id="Vector_29" d="M40.9337 143.697H84.7237" stroke="#263238" stroke-linecap="round" stroke-linejoin="round"/>
<path id="Vector_30" d="M40.9337 149.867H84.7237" stroke="#263238" stroke-linecap="round" stroke-linejoin="round"/>
<path id="Vector_31" d="M40.9337 156.042H84.7237" stroke="#263238" stroke-linecap="round" stroke-linejoin="round"/>
<path id="Vector_32" d="M40.9337 162.212H84.7237" stroke="#263238" stroke-linecap="round" stroke-linejoin="round"/>
<path id="Vector_33" d="M122.364 125.177H135.869V162.802H89.4287V125.177H119.139" stroke="#263238" stroke-linecap="round" stroke-linejoin="round"/>
<path id="Vector_34" d="M135.869 145.567V162.802H89.4287L101.774 148.102L112.354 151.337L123.229 137.522L135.869 145.567Z" fill="white" stroke="#263238" stroke-linecap="round" stroke-linejoin="round"/>
<path id="Vector_35" d="M102.924 139.592C105.039 137.82 105.316 134.67 103.544 132.555C101.772 130.441 98.6211 130.164 96.5069 131.936C94.3927 133.708 94.1154 136.859 95.8876 138.973C97.6597 141.087 100.81 141.364 102.924 139.592Z" fill="white" stroke="#263238" stroke-linecap="round" stroke-linejoin="round"/>
<path id="Vector_36" d="M155.319 152.367H142.869C140.544 152.367 138.659 154.252 138.659 156.577V159.032C138.659 161.357 140.544 163.242 142.869 163.242H155.319C157.644 163.242 159.529 161.357 159.529 159.032V156.577C159.529 154.252 157.644 152.367 155.319 152.367Z" fill="white" stroke="#263238" stroke-linecap="round" stroke-linejoin="round"/>
<path id="Vector_37" d="M142.629 157.802H154.974" stroke="#263238" stroke-linecap="round" stroke-linejoin="round"/>
<path id="Vector_38" d="M185.834 125.472H140.864V131.352H185.834V125.472Z" fill="white" stroke="#263238" stroke-linecap="round" stroke-linejoin="round"/>
<path id="Vector_39" d="M185.834 135.762H140.864V141.642H185.834V135.762Z" fill="white" stroke="#263238" stroke-linecap="round" stroke-linejoin="round"/>
<path id="Vector_40" d="M196.909 71.7073H193.474V171.402H196.909V71.7073Z" fill="#D1D1D1" stroke="#263238" stroke-linecap="round" stroke-linejoin="round"/>
<path id="Vector_41" d="M196.909 71.7073H31.7388V81.3873H196.909V71.7073Z" fill="#7FC844" stroke="#263238" stroke-linecap="round" stroke-linejoin="round"/>
<path id="Vector_42" d="M151.154 74.9172H40.6387V78.4422H151.154V74.9172Z" fill="white" stroke="#263238" stroke-linecap="round" stroke-linejoin="round"/>
<path id="Vector_43" d="M26.6937 176.182V184.917C26.6937 185.683 26.8445 186.441 27.1375 187.148C27.4305 187.856 27.8599 188.498 28.4013 189.04C28.9427 189.581 29.5854 190.01 30.2927 190.303C31 190.596 31.7581 190.747 32.5237 190.747H195.924C197.47 190.747 198.953 190.133 200.046 189.04C201.139 187.946 201.754 186.463 201.754 184.917V176.182H26.6937Z" fill="white" stroke="#263238" stroke-linecap="round" stroke-linejoin="round"/>
</g>
<g id="freepik--Cart--inject-6">
<path id="Vector_44" d="M248.729 51.0774H220.749C219.528 51.0774 218.539 52.0668 218.539 53.2874V67.5074C218.539 68.7279 219.528 69.7174 220.749 69.7174H248.729C249.949 69.7174 250.939 68.7279 250.939 67.5074V53.2874C250.939 52.0668 249.949 51.0774 248.729 51.0774Z" fill="white" stroke="#263238" stroke-linecap="round" stroke-linejoin="round"/>
<path id="Vector_45" d="M225.419 53.3174H228.524L231.459 62.3324L240.309 60.6474L240.389 55.8474L229.489 55.6924" stroke="#263238" stroke-linecap="round" stroke-linejoin="round"/>
<path id="Vector_46" d="M231.459 62.3323C231.256 62.3475 231.065 62.4302 230.916 62.5671C230.766 62.704 230.667 62.8872 230.634 63.0873C230.635 63.366 230.737 63.6349 230.92 63.8444C231.104 64.0539 231.357 64.1899 231.634 64.2273C231.939 64.2273 232.854 64.1523 232.854 64.1523L240.319 62.8573" stroke="#263238" stroke-linecap="round" stroke-linejoin="round"/>
<path id="Vector_47" d="M239.169 66.4374C239.757 66.4374 240.234 65.9606 240.234 65.3724C240.234 64.7842 239.757 64.3074 239.169 64.3074C238.581 64.3074 238.104 64.7842 238.104 65.3724C238.104 65.9606 238.581 66.4374 239.169 66.4374Z" fill="#263238" stroke="#263238" stroke-linecap="round" stroke-linejoin="round"/>
<path id="Vector_48" d="M233.224 65.3723C233.225 65.1603 233.163 64.9527 233.045 64.776C232.928 64.5993 232.761 64.4614 232.566 64.3798C232.37 64.2982 232.154 64.2766 231.946 64.3177C231.738 64.3588 231.547 64.4608 231.397 64.6108C231.247 64.7607 231.145 64.9518 231.104 65.1598C231.063 65.3679 231.085 65.5834 231.166 65.7791C231.248 65.9749 231.386 66.1419 231.562 66.2591C231.739 66.3763 231.947 66.4383 232.159 66.4374C232.441 66.4374 232.712 66.3251 232.912 66.1254C233.112 65.9257 233.224 65.6548 233.224 65.3723V65.3723Z" fill="#263238" stroke="#263238" stroke-linecap="round" stroke-linejoin="round"/>
</g>
<g id="freepik--speech-bubbles--inject-6">
<path id="Vector_49" d="M119.424 72.1824H101.484C100.688 72.1824 99.9249 72.4985 99.3623 73.0611C98.7997 73.6237 98.4836 74.3867 98.4836 75.1824V83.7624C98.4836 84.558 98.7997 85.3211 99.3623 85.8837C99.9249 86.4463 100.688 86.7624 101.484 86.7624H118.134L122.434 92.1824V75.1824C122.434 74.7876 122.356 74.3967 122.204 74.032C122.053 73.6674 121.831 73.3362 121.551 73.0575C121.272 72.7788 120.94 72.5581 120.575 72.4079C120.21 72.2577 119.818 72.1811 119.424 72.1824V72.1824Z" fill="#263238" stroke="#263238" stroke-linecap="round" stroke-linejoin="round"/>
<path id="Vector_50" d="M120.549 70.7373H102.614C101.818 70.7373 101.055 71.0534 100.492 71.616C99.9298 72.1786 99.6138 72.9417 99.6138 73.7373V82.3123C99.6138 83.108 99.9298 83.8711 100.492 84.4337C101.055 84.9963 101.818 85.3123 102.614 85.3123H119.259L123.564 90.7273V73.7273C123.562 73.333 123.483 72.9427 123.331 72.5789C123.179 72.2151 122.956 71.8849 122.676 71.6072C122.396 71.3295 122.064 71.1097 121.699 70.9604C121.334 70.8112 120.943 70.7354 120.549 70.7373V70.7373Z" fill="white" stroke="#263238" stroke-linecap="round" stroke-linejoin="round"/>
<path id="Vector_51" d="M95.9037 82.3623H107.774C108.304 82.3623 108.813 82.573 109.188 82.9481C109.563 83.3232 109.774 83.8319 109.774 84.3623V90.0323C109.774 90.5627 109.563 91.0714 109.188 91.4465C108.813 91.8216 108.304 92.0323 107.774 92.0323H96.7737L93.9237 95.6223V84.3573C93.925 83.8312 94.1335 83.3268 94.5042 82.9533C94.8748 82.5799 95.3776 82.3676 95.9037 82.3623Z" fill="#263238" stroke="#263238" stroke-linecap="round" stroke-linejoin="round"/>
<path id="Vector_52" d="M96.8488 81.2673H108.699C109.229 81.2673 109.738 81.478 110.113 81.8531C110.488 82.2282 110.699 82.7369 110.699 83.2673V88.9473C110.699 89.4778 110.488 89.9865 110.113 90.3615C109.738 90.7366 109.229 90.9473 108.699 90.9473H97.6988L94.8488 94.5123V83.2573C94.8514 82.7286 95.0633 82.2225 95.4381 81.8496C95.8129 81.4767 96.3201 81.2673 96.8488 81.2673Z" fill="white" stroke="#263238" stroke-linecap="round" stroke-linejoin="round"/>
<path id="Vector_53" d="M103.874 74.8623H119.109" stroke="#263238" stroke-linecap="round" stroke-linejoin="round"/>
<path id="Vector_54" d="M103.874 78.0623H119.109" stroke="#263238" stroke-linecap="round" stroke-linejoin="round"/>
<path id="Vector_55" d="M103.874 81.2573H119.109" stroke="#263238" stroke-linecap="round" stroke-linejoin="round"/>
<path id="Vector_56" d="M97.2937 85.0173H108.719" stroke="#263238" stroke-linecap="round" stroke-linejoin="round"/>
<path id="Vector_57" d="M97.2937 87.6523H108.719" stroke="#263238" stroke-linecap="round" stroke-linejoin="round"/>
</g>
<g id="freepik--Cursors--inject-6">
<path id="Vector_58" d="M162.239 112.117L159.049 110.432C158.88 110.343 158.696 110.288 158.506 110.271C158.316 110.254 158.125 110.274 157.943 110.331C157.761 110.389 157.592 110.481 157.447 110.604C157.301 110.727 157.181 110.878 157.094 111.047V111.047C156.935 111.36 156.895 111.72 156.983 112.06C157.07 112.399 157.279 112.695 157.569 112.892L164.104 117.337C166.369 118.164 168.867 118.076 171.069 117.092L171.324 116.962C172.334 116.408 173.108 115.505 173.502 114.423C173.897 113.341 173.885 112.152 173.469 111.077L171.784 106.627C171.571 106.058 171.149 105.591 170.603 105.322C170.058 105.054 169.43 105.004 168.849 105.182H168.789C168.353 104.916 167.859 104.76 167.349 104.728C166.84 104.695 166.33 104.788 165.864 104.997C165.422 104.771 164.925 104.674 164.431 104.718C163.937 104.761 163.465 104.943 163.069 105.242L160.849 99.9024C160.764 99.6957 160.638 99.5082 160.479 99.3509C160.321 99.1937 160.132 99.0699 159.925 98.9869C159.717 98.9039 159.495 98.8634 159.272 98.8678C159.048 98.8721 158.828 98.9213 158.624 99.0124V99.0124C158.224 99.1883 157.908 99.5138 157.745 99.9193C157.581 100.325 157.583 100.778 157.749 101.182L162.239 112.117Z" fill="#263238" stroke="#263238" stroke-linecap="round" stroke-linejoin="round"/>
<path id="Vector_59" d="M162.624 110.682L159.434 108.997C159.265 108.909 159.081 108.855 158.891 108.838C158.702 108.822 158.511 108.843 158.33 108.901C158.148 108.958 157.98 109.051 157.835 109.174C157.69 109.297 157.57 109.448 157.484 109.617V109.617C157.324 109.929 157.284 110.289 157.37 110.629C157.457 110.968 157.664 111.265 157.954 111.462L164.494 115.907C166.76 116.731 169.258 116.641 171.459 115.657L171.714 115.532C172.714 114.977 173.48 114.08 173.872 113.005C174.264 111.931 174.256 110.751 173.849 109.682L172.169 105.232C171.955 104.659 171.529 104.19 170.979 103.922C170.429 103.654 169.797 103.607 169.214 103.792H169.154C168.717 103.527 168.223 103.372 167.714 103.34C167.205 103.308 166.695 103.4 166.229 103.607C165.786 103.382 165.288 103.285 164.793 103.329C164.298 103.374 163.825 103.557 163.429 103.857L161.224 98.4873C161.139 98.28 161.013 98.0919 160.854 97.9342C160.695 97.7765 160.506 97.6524 160.298 97.5694C160.089 97.4864 159.867 97.446 159.643 97.4508C159.419 97.4556 159.198 97.5054 158.994 97.5973V97.5973C158.599 97.775 158.289 98.099 158.128 98.501C157.968 98.903 157.97 99.3516 158.134 99.7523L162.624 110.682Z" fill="white" stroke="#263238" stroke-linecap="round" stroke-linejoin="round"/>
<path id="Vector_60" d="M169.159 103.787L170.369 106.457" stroke="#263238" stroke-linecap="round" stroke-linejoin="round"/>
<path id="Vector_61" d="M166.184 103.787L167.654 107.132" stroke="#263238" stroke-linecap="round" stroke-linejoin="round"/>
<path id="Vector_62" d="M163.469 103.957L165.279 107.982" stroke="#263238" stroke-linecap="round" stroke-linejoin="round"/>
<path id="Vector_63" d="M152.034 96.4573L156.089 97.9773" stroke="#263238" stroke-linecap="round" stroke-linejoin="round"/>
<path id="Vector_64" d="M157.104 92.2322L158.459 95.2772" stroke="#263238" stroke-linecap="round" stroke-linejoin="round"/>
<path id="Vector_65" d="M161.159 95.6123L163.019 92.5723" stroke="#263238" stroke-linecap="round" stroke-linejoin="round"/>
<path id="Vector_66" d="M153.724 101.867L156.429 100.512" stroke="#263238" stroke-linecap="round" stroke-linejoin="round"/>
<path id="Vector_67" d="M163.189 97.8123L165.889 96.4573" stroke="#263238" stroke-linecap="round" stroke-linejoin="round"/>
<path id="Vector_68" d="M108.349 170.727L111.539 169.042C111.707 168.953 111.891 168.898 112.081 168.881C112.27 168.864 112.461 168.884 112.643 168.942C112.824 168.999 112.992 169.091 113.138 169.214C113.283 169.337 113.402 169.488 113.489 169.657V169.657C113.65 169.969 113.691 170.329 113.604 170.669C113.517 171.009 113.309 171.305 113.019 171.502L106.484 175.952C104.218 176.775 101.72 176.686 99.5189 175.702L99.2639 175.572C98.2511 175.019 97.4741 174.117 97.0776 173.033C96.6811 171.949 96.6922 170.758 97.1089 169.682L98.7939 165.232C99.0087 164.66 99.435 164.192 99.9849 163.925C100.535 163.658 101.166 163.612 101.749 163.797H101.809C102.245 163.531 102.739 163.375 103.248 163.342C103.758 163.31 104.268 163.403 104.734 163.612C105.176 163.386 105.672 163.289 106.167 163.333C106.661 163.376 107.133 163.558 107.529 163.857L109.734 158.487C109.819 158.28 109.945 158.093 110.105 157.936C110.264 157.778 110.453 157.655 110.661 157.572C110.869 157.49 111.092 157.45 111.316 157.455C111.539 157.46 111.76 157.51 111.964 157.602C112.165 157.687 112.348 157.81 112.502 157.966C112.656 158.121 112.777 158.306 112.859 158.508C112.941 158.711 112.983 158.928 112.981 159.146C112.979 159.365 112.934 159.581 112.849 159.782L108.349 170.727Z" fill="#263238" stroke="#263238" stroke-linecap="round" stroke-linejoin="round"/>
<path id="Vector_69" d="M107.949 169.302L111.144 167.622C111.312 167.533 111.496 167.478 111.686 167.461C111.875 167.444 112.066 167.464 112.248 167.522C112.429 167.579 112.597 167.672 112.743 167.794C112.888 167.917 113.007 168.068 113.094 168.237V168.237C113.253 168.549 113.294 168.909 113.207 169.248C113.121 169.588 112.913 169.885 112.624 170.082L106.084 174.527C103.818 175.351 101.321 175.263 99.1189 174.282L98.8639 174.152C97.8548 173.597 97.0814 172.694 96.687 171.612C96.2925 170.53 96.3039 169.342 96.7188 168.267L98.4038 163.817C98.6186 163.247 99.0434 162.781 99.591 162.514C100.139 162.247 100.768 162.2 101.349 162.382H101.409C101.844 162.116 102.338 161.959 102.848 161.926C103.357 161.893 103.867 161.984 104.334 162.192C104.777 161.968 105.275 161.872 105.77 161.916C106.265 161.96 106.737 162.143 107.134 162.442L109.349 157.092C109.434 156.885 109.56 156.697 109.719 156.539C109.878 156.381 110.067 156.257 110.275 156.174C110.483 156.091 110.706 156.051 110.93 156.056C111.154 156.061 111.375 156.11 111.579 156.202V156.202C111.974 156.381 112.284 156.706 112.445 157.109C112.605 157.512 112.603 157.961 112.439 158.362L107.949 169.302Z" fill="white" stroke="#263238" stroke-linecap="round" stroke-linejoin="round"/>
<path id="Vector_70" d="M101.419 162.402L100.209 165.067" stroke="#263238" stroke-linecap="round" stroke-linejoin="round"/>
<path id="Vector_71" d="M104.389 162.402L102.924 165.742" stroke="#263238" stroke-linecap="round" stroke-linejoin="round"/>
<path id="Vector_72" d="M107.109 162.572L105.299 166.592" stroke="#263238" stroke-linecap="round" stroke-linejoin="round"/>
<path id="Vector_73" d="M118.544 155.067L114.489 156.587" stroke="#263238" stroke-linecap="round" stroke-linejoin="round"/>
<path id="Vector_74" d="M113.474 150.842L112.119 153.887" stroke="#263238" stroke-linecap="round" stroke-linejoin="round"/>
<path id="Vector_75" d="M109.419 154.222L107.559 151.182" stroke="#263238" stroke-linecap="round" stroke-linejoin="round"/>
<path id="Vector_76" d="M116.854 160.477L114.149 159.122" stroke="#263238" stroke-linecap="round" stroke-linejoin="round"/>
<path id="Vector_77" d="M107.389 156.422L104.684 155.067" stroke="#263238" stroke-linecap="round" stroke-linejoin="round"/>
<path id="Vector_78" d="M48.3488 101.952L51.5388 100.267C51.7069 100.178 51.8911 100.123 52.0805 100.106C52.27 100.089 52.4611 100.109 52.6425 100.167C52.824 100.224 52.9923 100.317 53.1376 100.439C53.2828 100.562 53.4022 100.713 53.4888 100.882V100.882C53.6484 101.194 53.6887 101.554 53.6022 101.894C53.5157 102.233 53.3083 102.53 53.0188 102.727L46.4688 107.182C44.2009 108.006 41.7019 107.916 39.4988 106.932L39.2488 106.802C38.2386 106.249 37.464 105.348 37.0693 104.266C36.6747 103.184 36.6869 101.996 37.1038 100.922L38.7888 96.4673C39.0026 95.8954 39.428 95.4274 39.9771 95.1603C40.5261 94.8933 41.1569 94.8474 41.7388 95.0323H41.8038C42.2386 94.7659 42.7319 94.6098 43.2408 94.5776C43.7498 94.5454 44.2588 94.6379 44.7238 94.8473C45.1668 94.6216 45.6645 94.5253 46.1598 94.5695C46.655 94.6137 47.1278 94.7967 47.5238 95.0973L49.7288 89.7223C49.8142 89.5154 49.9403 89.3279 50.0997 89.1707C50.259 89.0135 50.4483 88.89 50.6564 88.8075C50.8644 88.7249 51.0869 88.685 51.3106 88.6901C51.5343 88.6953 51.7548 88.7453 51.9588 88.8373V88.8373C52.3543 89.014 52.6654 89.338 52.826 89.7403C52.9866 90.1427 52.984 90.5918 52.8188 90.9923L48.3488 101.952Z" fill="#263238" stroke="#263238" stroke-linecap="round" stroke-linejoin="round"/>
<path id="Vector_79" d="M47.9438 100.527L51.1338 98.8471C51.3023 98.7579 51.4869 98.703 51.6767 98.6857C51.8666 98.6683 52.058 98.6889 52.2399 98.7461C52.4217 98.8033 52.5904 98.8961 52.7362 99.019C52.8819 99.1419 53.0018 99.2925 53.0888 99.4621V99.4621C53.2485 99.7742 53.2888 100.134 53.2023 100.473C53.1157 100.813 52.9083 101.11 52.6188 101.307L46.0788 105.752C43.813 106.575 41.3162 106.487 39.1138 105.507L38.8588 105.377C37.8498 104.822 37.0764 103.919 36.682 102.837C36.2875 101.755 36.2989 100.567 36.7138 99.4921L38.3988 95.0421C38.6137 94.4698 39.04 94.0018 39.5899 93.7348C40.1398 93.4678 40.7712 93.4221 41.3538 93.6071H41.4138C41.8495 93.3408 42.3433 93.1843 42.8529 93.1512C43.3624 93.1181 43.8724 93.2094 44.3388 93.4171C44.7822 93.1926 45.2796 93.097 45.7746 93.1412C46.2696 93.1854 46.7423 93.3676 47.1388 93.6671L49.3488 88.3171C49.4338 88.1105 49.5594 87.923 49.7182 87.7657C49.877 87.6085 50.0657 87.4847 50.2731 87.4017C50.4806 87.3187 50.7027 87.2782 50.9261 87.2825C51.1495 87.2869 51.3698 87.3361 51.5738 87.4271V87.4271C51.9698 87.605 52.2813 87.9295 52.4426 88.3324C52.604 88.7354 52.6026 89.1852 52.4388 89.5871L47.9438 100.527Z" fill="white" stroke="#263238" stroke-linecap="round" stroke-linejoin="round"/>
<path id="Vector_80" d="M41.4139 93.6272L40.2039 96.2922" stroke="#263238" stroke-linecap="round" stroke-linejoin="round"/>
<path id="Vector_81" d="M44.3838 93.6272L42.9188 96.9722" stroke="#263238" stroke-linecap="round" stroke-linejoin="round"/>
<path id="Vector_82" d="M47.0988 93.7974L45.2938 97.8174" stroke="#263238" stroke-linecap="round" stroke-linejoin="round"/>
<path id="Vector_83" d="M58.5339 86.2922L54.4789 87.8172" stroke="#263238" stroke-linecap="round" stroke-linejoin="round"/>
<path id="Vector_84" d="M53.4689 82.0723L52.1139 85.1123" stroke="#263238" stroke-linecap="round" stroke-linejoin="round"/>
<path id="Vector_85" d="M49.4088 85.4472L47.5538 82.4072" stroke="#263238" stroke-linecap="round" stroke-linejoin="round"/>
<path id="Vector_86" d="M56.8438 91.7022L54.1438 90.3472" stroke="#263238" stroke-linecap="round" stroke-linejoin="round"/>
<path id="Vector_87" d="M47.3838 87.6472L44.6788 86.2922" stroke="#263238" stroke-linecap="round" stroke-linejoin="round"/>
</g>
</g>
</g>
</svg>
