<svg width="74" height="74" viewBox="0 0 74 74" fill="none" xmlns="http://www.w3.org/2000/svg">
<rect x="19.2025" y="32.1899" width="49.7567" height="37.6729" fill="black"/>
<path d="M0.0107422 0.914062V73.0911H73.9355V0.914062H0.0107422ZM40.2416 57.2044C40.2416 64.2288 36.0174 67.4355 29.8631 67.4355C24.3029 67.4355 21.0846 64.6335 19.4345 61.2334L25.095 57.8978C26.1854 59.7822 27.1754 61.3778 29.5674 61.3778C31.8433 61.3778 33.2954 60.5065 33.2954 57.109V34.0536H40.2416V57.2044ZM56.6741 67.4355C50.2215 67.4355 46.0474 64.4402 44.0171 60.5065L49.6776 57.3178C51.164 59.6868 53.1098 61.4422 56.5262 61.4422C59.3961 61.4422 61.2468 60.0399 61.2468 58.0912C61.2468 55.7712 59.3644 54.9489 56.1803 53.5801L54.4484 52.8557C49.4321 50.7781 46.116 48.1514 46.116 42.6247C46.116 37.5336 50.0921 33.667 56.2807 33.667C60.7029 33.667 63.8712 35.1646 66.1496 39.0957L60.7373 42.4803C59.5492 40.4026 58.2608 39.5803 56.2648 39.5803C54.2372 39.5803 52.9488 40.8383 52.9488 42.4803C52.9488 44.5116 54.2372 45.3313 57.2232 46.6047L58.9552 47.3291C64.8639 49.7934 68.1799 52.3247 68.1799 57.9932C68.1799 64.0844 63.2613 67.4329 56.6767 67.4329L56.6741 67.4355Z" fill="#F7DF1E"/>
</svg>
