<svg width="74" height="74" viewBox="0 0 74 74" fill="none" xmlns="http://www.w3.org/2000/svg">
<path d="M36.9624 73.9247C57.3761 73.9247 73.9247 57.3761 73.9247 36.9624C73.9247 16.5486 57.3761 0 36.9624 0C16.5486 0 0 16.5486 0 36.9624C0 57.3761 16.5486 73.9247 36.9624 73.9247Z" fill="#13AA52"/>
<path d="M46.8426 32.446C44.5079 22.142 38.9903 18.754 38.3961 17.4596C37.7464 16.5464 37.088 14.922 37.088 14.922C37.0772 14.8946 37.0598 14.8462 37.0396 14.7993C36.9725 15.7125 36.9378 16.0648 36.0744 16.986C34.7374 18.0314 27.8777 23.7872 27.3197 35.4939C26.7992 46.4122 35.2067 52.9182 36.3437 53.7477L36.4729 53.8394V53.8314C36.4801 53.8863 36.8339 56.4303 37.0822 59.126H37.9731C38.1821 57.2205 38.4954 55.3279 38.9116 53.4568L38.9838 53.4098C39.4924 53.0452 39.9773 52.6485 40.4356 52.2223L40.4875 52.1753C42.9045 49.9424 47.2498 44.7778 47.2072 36.5436C47.1982 35.17 47.0762 33.7995 46.8426 32.446ZM36.9877 47.5832C36.9877 47.5832 36.9877 32.2698 37.493 32.2727C37.8872 32.2727 38.3976 52.0252 38.3976 52.0252C37.6959 51.9407 36.9877 48.7744 36.9877 47.5832Z" fill="white"/>
</svg>
