<svg width="82" height="55" viewBox="0 0 82 55" fill="none" xmlns="http://www.w3.org/2000/svg">
<path d="M75.5373 49.7984H66.6444V31.5548H69.6391V47.5572H75.5373V49.7984ZM64.321 50.2387L60.8905 48.5887C61.1946 48.3438 61.4834 48.0742 61.7494 47.765C63.2138 46.1026 63.941 43.6166 63.941 40.3438C63.941 34.3006 61.5138 31.2876 56.6569 31.2876C54.2803 31.2876 52.4207 32.047 51.088 33.5807C49.6363 35.2554 48.8964 37.7291 48.8964 40.9895C48.8964 44.1979 49.5425 46.543 50.8372 48.0494C52.0254 49.3902 53.8066 50.0729 56.1958 50.0729C57.08 50.0729 57.8983 49.969 58.6381 49.7514L63.1125 52.3018L64.3388 50.2412L64.321 50.2387ZM53.1985 46.1397C52.4334 44.9548 52.0634 43.0476 52.0634 40.4181C52.0634 35.8194 53.4899 33.5263 56.3528 33.5263C57.8451 33.5263 58.9523 34.0804 59.6516 35.1763C60.4041 36.3735 60.7867 38.256 60.7867 40.8584C60.7867 45.4842 59.3476 47.8169 56.4973 47.8169C54.9923 47.8169 53.8978 47.2628 53.1858 46.167L53.1985 46.1397ZM47.6018 44.7495C47.6018 46.2956 47.0216 47.572 45.846 48.5491C44.6856 49.5411 43.1401 50.0433 41.174 50.0433C39.3397 50.0433 37.5839 49.4768 35.856 48.3413L36.6616 46.7705C38.1387 47.4929 39.4714 47.854 40.6875 47.854C41.8099 47.854 42.6942 47.6091 43.3276 47.1317C43.961 46.6419 44.3435 45.9592 44.3435 45.0958C44.3435 44.0124 43.5657 43.0847 42.152 42.3129C40.8446 41.6054 38.2198 40.1484 38.2198 40.1484C36.7934 39.1317 36.0941 38.0482 36.0941 36.2573C36.0941 34.7755 36.6211 33.5906 37.6776 32.6877C38.7468 31.7601 40.1048 31.3099 41.7947 31.3099C43.5227 31.3099 45.1062 31.7601 46.5326 32.663L45.808 34.2338C44.5944 33.7316 43.3934 33.4744 42.2178 33.4744C41.2551 33.4744 40.5153 33.7069 40.0009 34.1571C39.4866 34.6073 39.1699 35.1738 39.1699 35.8837C39.1699 36.9672 39.9629 37.8949 41.4122 38.6914C42.7448 39.3989 45.4229 40.8955 45.4229 40.8955C46.8873 41.8998 47.6144 42.9833 47.6144 44.747L47.6018 44.7495Z" fill="#E48E00"/>
<path d="M56.2587 6.27757C55.8635 6.27757 55.6 6.32952 55.334 6.39383V6.43341H55.3745C55.5595 6.76736 55.8635 7.0271 56.0991 7.33632C56.2841 7.68511 56.4412 8.0438 56.6134 8.39259L56.6667 8.34064C56.9834 8.12048 57.143 7.77416 57.143 7.24479C57.0112 7.08895 56.9834 6.92321 56.8668 6.77973C56.7351 6.55957 56.4437 6.44578 56.2587 6.27757ZM20.3271 49.7975H17.2007C17.0942 44.6448 16.7775 39.7988 16.2911 35.2521H16.2658L11.5026 49.7975H9.11338L4.38821 35.2521H4.34767C4.00563 39.6058 3.78014 44.4642 3.68893 49.7975H0.838623C1.02358 43.304 1.48469 37.2237 2.22451 31.5539H6.10346L10.6158 44.954H10.6411L15.194 31.5539H18.888C19.7064 38.2032 20.1954 44.2836 20.3398 49.7975H20.3271ZM33.8921 36.3356C32.6253 43.0863 30.9353 47.9967 28.8654 51.0492C27.2287 53.4067 25.4475 54.5916 23.5068 54.5916C22.9925 54.5916 22.3591 54.4357 21.5939 54.1265V52.5038C21.9765 52.5557 22.4123 52.5928 22.9013 52.5928C23.8108 52.5928 24.538 52.3355 25.0928 51.8581C25.7516 51.2644 26.0835 50.5965 26.0835 49.8618C26.0835 49.3473 25.8327 48.3158 25.3057 46.745L21.8878 36.3356H24.9636L27.4187 44.1179C27.9736 45.8965 28.2117 47.121 28.1053 47.8284C29.4633 44.3232 30.4008 40.484 30.9303 36.3356H33.8921ZM79.2867 25.4364C77.4777 25.3969 76.0792 25.5774 74.9061 26.0672C74.5767 26.1959 74.0345 26.1959 73.9813 26.609C74.1663 26.7896 74.1916 27.074 74.3512 27.3165C74.6274 27.7543 75.091 28.348 75.5268 28.6572C76.0031 29.0184 76.4769 29.3795 76.9659 29.6887C77.8501 30.2181 78.8408 30.5273 79.7098 31.0542C80.1988 31.3634 80.7005 31.7617 81.1869 32.0858C81.4377 32.254 81.5948 32.5508 81.9115 32.6522V32.5879C81.7519 32.395 81.7139 32.1105 81.5543 31.8805C81.3288 31.6603 81.1058 31.4673 80.8803 31.2497C80.2216 30.3863 79.4159 29.6393 78.5317 29.0208C77.8071 28.5434 76.2236 27.873 75.9322 27.0617L75.8917 27.0097C76.3807 26.9701 76.9608 26.7896 77.4346 26.6609C78.1998 26.468 78.9117 26.5051 79.7047 26.3121C80.062 26.2231 80.4167 26.1192 80.7866 26.0029V25.81C80.3787 25.4117 80.0747 24.87 79.6515 24.4964C78.5038 23.5292 77.237 22.5768 75.9297 21.7902C75.2177 21.34 74.3208 21.0555 73.5683 20.682C73.3049 20.5533 72.8437 20.489 72.6968 20.2689C72.2889 19.7791 72.0507 19.1483 71.7594 18.567C71.1133 17.3548 70.4799 16.0166 69.9124 14.7278C69.5044 13.8644 69.2663 13.0135 68.7646 12.2145C66.4413 8.46433 63.9077 6.19841 60.0288 3.9696C59.1977 3.50454 58.1944 3.31159 57.1379 3.0667C56.5704 3.04196 56.0155 3.00238 55.448 2.97764C55.0781 2.8218 54.7234 2.41116 54.4067 2.20337C53.1145 1.40436 49.7879 -0.309916 48.8505 1.95847C48.2424 3.40065 49.7474 4.80571 50.2769 5.52804C50.6595 6.04257 51.1485 6.61152 51.4246 7.178C51.5842 7.5639 51.6222 7.96464 51.7819 8.36291C52.1391 9.33013 52.4811 10.4111 52.9575 11.314C53.2083 11.7791 53.4718 12.2664 53.7885 12.6795C53.9734 12.9244 54.2901 13.0283 54.356 13.4266C54.0393 13.8768 54.014 14.5348 53.8417 15.0765C53.0233 17.575 53.34 20.6548 54.4878 22.4977C54.8577 23.0518 55.714 24.2639 56.8643 23.7988C57.8803 23.4006 57.6573 22.1489 57.9461 21.0407C58.012 20.771 57.9715 20.6028 58.1057 20.4222V20.4742C58.4351 21.0926 58.7518 21.6863 59.0432 22.3047C59.7298 23.3882 60.9561 24.5088 61.972 25.2559C62.5142 25.6541 62.9348 26.3393 63.6087 26.5818V26.5175H63.5555C63.4111 26.3245 63.2262 26.233 63.0412 26.0796C62.6333 25.6813 62.1823 25.1915 61.8529 24.7537C60.9155 23.5168 60.0718 22.1514 59.332 20.7463C58.9621 20.0512 58.6454 19.3041 58.3566 18.6214C58.2248 18.3641 58.2248 17.9634 57.9993 17.8347C57.6573 18.3122 57.1556 18.7228 56.9175 19.3289C56.4817 20.2689 56.4412 21.4414 56.2714 22.6535C56.1929 22.6783 56.2309 22.6535 56.1929 22.7055C55.4683 22.5249 55.2174 21.8026 54.9514 21.1841C54.2648 19.6133 54.1584 17.1 54.7411 15.2967C54.9007 14.8317 55.5721 13.3771 55.3086 12.9393C55.1642 12.5138 54.7158 12.2689 54.4776 11.9349C54.1736 11.5218 53.8696 10.9949 53.6593 10.5299C53.1171 9.29302 52.8536 7.92753 52.2607 6.69068C51.9972 6.1242 51.5209 5.53051 51.1383 5.00361C50.7025 4.40992 50.2288 3.98692 49.8969 3.28933C49.7778 3.04443 49.6207 2.64617 49.8056 2.38643C49.8462 2.20585 49.9374 2.14153 50.1223 2.08958C50.4137 1.84468 51.2574 2.1539 51.5488 2.2949C52.3798 2.61648 53.0791 2.92569 53.7783 3.39075C54.095 3.61091 54.4371 4.02155 54.8475 4.13781H55.3238C56.0485 4.29366 56.8541 4.17739 57.5281 4.38271C58.729 4.75624 59.8109 5.29798 60.7863 5.8892C63.743 7.73211 66.1702 10.3345 67.8196 13.439C68.0958 13.9411 68.2148 14.4062 68.4657 14.9331C68.9268 16.0289 69.5222 17.1223 69.996 18.1662C70.4698 19.2101 70.9207 20.2664 71.6048 21.1297C71.9468 21.5948 73.2947 21.8372 73.9129 22.0697C74.3614 22.275 75.0606 22.4556 75.4559 22.6882C76.2337 23.1532 76.9988 23.6801 77.726 24.1946C78.0959 24.4395 79.2183 24.9936 79.2842 25.4315L79.2867 25.4364Z" fill="#00618A"/>
</svg>
