<svg width="75" height="84" viewBox="0 0 75 84" fill="none" xmlns="http://www.w3.org/2000/svg">
<path d="M37.5575 83.3371C36.4414 83.3371 35.3331 83.0443 34.3546 82.481L24.1599 76.4453C22.6372 75.5938 23.3802 75.2926 23.8824 75.1191C25.9127 74.4082 26.3247 74.2477 28.4917 73.017C28.7195 72.887 29.0176 72.9329 29.2508 73.0705L37.0828 77.718C37.3656 77.8709 37.7669 77.8709 38.0291 77.718L68.5667 60.0911C68.8495 59.9305 69.033 59.6018 69.033 59.2655V24.0269C69.033 23.6753 68.8495 23.3618 68.5606 23.186L38.0352 5.57436C37.7524 5.40619 37.3778 5.40619 37.095 5.57436L6.57573 23.186C6.2799 23.3542 6.09187 23.6829 6.09187 24.0192V59.2579C6.09187 59.5942 6.27532 59.9152 6.56579 60.0758L14.9283 64.9068C19.4688 67.177 22.2436 64.5016 22.2436 61.811V27.0309C22.2436 26.5341 22.6334 26.1519 23.1302 26.1519H26.9981C27.4797 26.1519 27.8772 26.5341 27.8772 27.0309V61.8262C27.8772 67.8803 24.575 71.3583 18.8343 71.3583C17.0686 71.3583 15.6774 71.3583 11.7943 69.4473L3.78339 64.8303C1.8036 63.6837 0.580566 61.5434 0.580566 59.2579V24.0192C0.580566 21.726 1.8036 19.5857 3.78339 18.4544L34.3516 0.819815C36.2855 -0.273271 38.8539 -0.273271 40.7725 0.819815L71.3025 18.4621C73.2746 19.601 74.5053 21.7337 74.5053 24.0269V59.2655C74.5053 61.5511 73.2746 63.6837 71.3025 64.8303L40.7725 82.4649C39.7941 83.0306 38.6857 83.3211 37.5544 83.3211" fill="#689F63"/>
<path d="M46.9901 59.0555C33.6284 59.0555 30.8269 52.922 30.8269 47.7776C30.8269 47.2884 31.2213 46.8985 31.7113 46.8985H35.6556C36.0913 46.8985 36.4582 47.2158 36.527 47.6461C37.1232 51.6653 38.8966 53.6925 46.9763 53.6925C53.4125 53.6925 56.1491 52.2386 56.1491 48.8256C56.1491 46.8611 55.3694 45.4011 45.3711 44.4227C37.0086 43.5971 31.8413 41.7549 31.8413 35.0665C31.8413 28.9054 37.0391 25.2363 45.7456 25.2363C55.5222 25.2363 60.3685 28.6302 60.98 35.9226C61.003 36.1748 60.9112 36.4194 60.7431 36.6029C60.5749 36.7787 60.3379 36.8857 60.0933 36.8857H56.1261C55.7133 36.8857 55.3541 36.5952 55.27 36.1978C54.3145 31.9707 52.006 30.6177 45.7303 30.6177C38.7055 30.6177 37.8876 33.0637 37.8876 34.8983C37.8876 37.1227 38.8508 37.7724 48.3293 39.026C57.7161 40.272 62.1725 42.0301 62.1725 48.6268C62.1725 55.2771 56.623 59.0914 46.9457 59.0914" fill="#689F63"/>
</svg>
