<svg width="75" height="65" viewBox="0 0 75 65" fill="none" xmlns="http://www.w3.org/2000/svg">
<path d="M37.3925 26.082C33.7587 26.082 30.7994 28.9713 30.7994 32.5193C30.7994 36.0672 33.7587 38.9566 37.3925 38.9566C41.0264 38.9566 43.9857 36.0672 43.9857 32.5193C43.9857 28.9713 41.0264 26.082 37.3925 26.082ZM18.9345 45.3127L17.4791 44.9608C6.64909 42.2812 0.430176 37.7476 0.430176 32.508C0.430176 27.2684 6.65141 22.7348 17.4791 20.0552L18.9345 19.7033L19.3434 21.113C20.4384 24.8008 21.8452 28.3962 23.5432 31.8742L23.8551 32.508L23.5432 33.1531C21.8476 36.6176 20.4384 40.2129 19.3434 43.9142L18.9345 45.3127ZM16.8068 23.3438C8.57576 25.5993 3.52346 29.0638 3.52346 32.508C3.52346 35.9522 8.57807 39.4032 16.8068 41.6722C17.8187 38.5348 19.0338 35.4808 20.4522 32.508C19.0315 29.5352 17.8164 26.4812 16.8068 23.3438V23.3438ZM55.8506 45.3127L55.4417 43.9029C54.3467 40.2151 52.9398 36.6198 51.2419 33.1531L50.93 32.508L51.2419 31.8629C52.9375 28.3984 54.3467 24.8031 55.4417 21.1018L55.8506 19.7033L57.306 20.0552C68.136 22.7348 74.3549 27.2684 74.3549 32.508C74.3549 37.7476 68.1337 42.2812 57.306 44.9608L55.8506 45.3127ZM54.3329 32.508C55.8137 35.6319 57.0404 38.6994 57.9783 41.6722C66.2209 39.4054 71.2616 35.9522 71.2616 32.508C71.2616 29.0638 66.207 25.6128 57.9783 23.3438C56.9664 26.4677 55.7513 29.5352 54.3329 32.508ZM16.7814 23.3325L16.3725 21.9228C13.3277 11.4436 14.2541 3.92588 18.9114 1.30495C23.4831 -1.26861 30.8109 1.77411 38.4991 9.48126L39.5456 10.5278L38.4991 11.5744C35.7685 14.3464 33.2782 17.3305 31.0396 20.5018L30.6192 21.077L29.8961 21.1356C25.9619 21.4401 22.0624 22.0513 18.2368 22.9693L16.7814 23.3325ZM22.6284 3.39809C21.799 3.39809 21.0644 3.56274 20.4499 3.91461C17.3936 5.64234 16.853 11.633 18.9576 19.7146C22.2426 18.9974 25.5623 18.4921 28.9212 18.1989C30.8456 15.5193 32.964 12.9593 35.2372 10.5504C30.4367 5.98067 25.888 3.39583 22.6284 3.39583V3.39809ZM52.1683 64.6245C52.1567 64.6245 52.1567 64.6245 52.1683 64.6245C47.7767 64.6245 42.133 61.4059 36.286 55.5325L35.2395 54.4859L36.286 53.4393C39.0166 50.6673 41.5069 47.6832 43.7455 44.5119L44.1543 43.9368L44.8774 43.8669C48.8116 43.5736 52.7111 42.9624 56.5483 42.0331L58.0037 41.6812L58.4126 43.091C61.4574 53.5702 60.531 61.0766 55.8737 63.6952C54.7418 64.329 53.4666 64.6471 52.1683 64.6223V64.6245ZM39.5456 54.4633C44.3461 59.0331 48.8948 61.6179 52.1544 61.6179H52.1659C52.9837 61.6179 53.7184 61.442 54.3329 61.1014C57.3892 59.3736 57.9436 53.3829 55.8252 45.3014C52.5402 46.0186 49.2066 46.5239 45.8615 46.8058C43.9372 49.4967 41.8188 52.0454 39.5456 54.4656V54.4633ZM58.0037 23.3325L56.5483 22.9693C52.7111 22.0536 48.8116 21.4423 44.8774 21.1356L44.1543 21.077L43.7455 20.5018C41.5069 17.3305 39.0166 14.3464 36.286 11.5744L35.2395 10.5278L36.286 9.48126C43.9742 1.77411 51.3019 -1.26861 55.8737 1.30495C60.531 3.92363 61.4574 11.4436 58.4126 21.9228L58.0037 23.3325ZM45.8639 18.1989C49.3776 18.5169 52.7227 19.0222 55.8275 19.7146C57.9459 11.633 57.3915 5.64009 54.3352 3.91461C51.2904 2.2004 45.5635 4.83035 39.5479 10.5526C41.8211 12.9728 43.928 15.5216 45.8639 18.2012V18.1989ZM22.6284 64.6245C21.3278 64.6471 20.041 64.3313 18.9114 63.6975C14.2541 61.0788 13.3277 53.5702 16.3725 43.0932L16.7814 41.6835L18.2368 42.0354C21.799 42.9173 25.7217 43.5263 29.8961 43.8691L30.6192 43.939L31.0281 44.5142C33.2666 47.6855 35.757 50.6695 38.4876 53.4416L39.5341 54.4882L38.4876 55.5347C32.6521 61.4081 27.0084 64.6268 22.6284 64.6268V64.6245ZM18.9599 45.3014C16.8415 53.3829 17.3959 59.3759 20.4522 61.1014C23.497 62.793 29.2123 60.1856 35.2395 54.4633C32.9663 52.0432 30.8479 49.4944 28.9235 46.8036C25.5669 46.5216 22.2449 46.0164 18.9599 45.2991V45.3014ZM37.3925 47.1915C34.8537 47.1915 32.2548 47.0855 29.6443 46.8735L28.9212 46.8148L28.5008 46.2284C27.0338 44.1601 25.6362 42.0354 24.3494 39.8498C23.0488 37.6641 21.8591 35.4334 20.7525 33.1531L20.4407 32.508L20.7525 31.8629C21.8591 29.5848 23.0511 27.3518 24.3494 25.1662C25.6247 23.0167 27.02 20.8672 28.5008 18.7876L28.9212 18.2012L29.6443 18.1425C34.8052 17.7185 39.9915 17.7185 45.1408 18.1425L45.8639 18.2012L46.2843 18.7876C49.2321 22.922 51.831 27.3045 54.0325 31.8629L54.3444 32.508L54.0325 33.1531C51.831 37.7115 49.2436 42.094 46.2843 46.2284L45.8639 46.8148L45.1408 46.8735C42.5419 47.0855 39.9314 47.1915 37.3925 47.1915V47.1915ZM30.6307 43.9255C35.1794 44.2661 39.6057 44.2661 44.1659 43.9255C46.7047 40.2963 48.9664 36.4777 50.9277 32.5057C48.9779 28.536 46.7163 24.7174 44.1543 21.086C39.6542 20.7454 35.1309 20.7454 30.6307 21.086C28.0688 24.7151 25.8048 28.5337 23.8574 32.5057C25.8187 36.4755 28.0803 40.2941 30.6307 43.9255Z" fill="#61DBFB"/>
</svg>
