<svg width="74" height="56" viewBox="0 0 74 56" fill="none" xmlns="http://www.w3.org/2000/svg">
<path d="M63.6182 31.8514C61.0407 31.8649 58.8006 32.4856 56.9248 33.4033C56.2365 32.0403 55.5483 30.8258 55.4268 29.9351C55.2919 28.896 55.13 28.2618 55.2919 27.0202C55.4538 25.7787 56.1826 24.0109 56.1691 23.8759C56.1556 23.741 56.0071 23.1067 54.5227 23.0932C53.0383 23.0797 51.7562 23.3766 51.6078 23.768C51.4594 24.1593 51.176 25.05 50.987 25.9676C50.7306 27.3171 48.0182 32.1348 46.4663 34.6583C45.967 33.6732 45.5351 32.8095 45.4407 32.1213C45.3057 31.0822 45.1438 30.4479 45.3057 29.2064C45.4677 27.9649 46.1964 26.197 46.1829 26.0621C46.1694 25.9271 46.0209 25.2929 44.5365 25.2794C43.0521 25.2659 41.7701 25.5628 41.6216 25.9541C41.4732 26.3455 41.3112 27.2631 41.0009 28.1538C40.6905 29.0445 37.0874 37.0874 36.1427 39.1656C35.6569 40.2317 35.2386 41.0819 34.9417 41.6621C34.9417 41.6621 34.9282 41.7026 34.8877 41.7701C34.6313 42.2694 34.4829 42.5393 34.4829 42.5393C34.4829 42.5393 34.4829 42.5393 34.4829 42.5528C34.2804 42.9171 34.0645 43.2545 33.9566 43.2545C33.8756 43.2545 33.7271 42.2829 33.9835 40.9604C34.5233 38.167 35.8054 33.8216 35.7919 33.6732C35.7919 33.5922 36.0348 32.8365 34.9552 32.4452C33.9026 32.0538 33.5247 32.7016 33.4303 32.7016C33.3358 32.7016 33.2683 32.931 33.2683 32.931C33.2683 32.931 34.4424 28.0458 31.0282 28.0458C28.896 28.0458 25.9541 30.3804 24.4967 32.4856C23.579 32.9849 21.6223 34.051 19.5306 35.1981C18.7344 35.6434 17.9112 36.0888 17.142 36.5071C17.088 36.4531 17.034 36.3856 16.98 36.3317C12.8506 31.9189 5.21255 28.8015 5.53642 22.8773C5.65788 20.7181 6.40009 15.0503 20.2053 8.16794C31.568 2.56758 40.6095 4.11949 42.1749 7.56067C44.4151 12.4728 37.3303 21.5953 25.5898 22.9178C21.1095 23.4171 18.7614 21.6898 18.1676 21.042C17.5468 20.3673 17.4524 20.3268 17.223 20.4617C16.8451 20.6642 17.088 21.2714 17.223 21.6223C17.5738 22.5399 19.0178 24.1593 21.4603 24.9555C23.6195 25.6573 28.869 26.0486 35.2251 23.5925C42.3369 20.8396 47.8967 13.188 46.2638 6.77797C44.631 0.273456 33.8351 -1.87222 23.6195 1.75789C17.5468 3.91706 10.9613 7.31776 6.22466 11.7441C0.597311 17.0071 -0.293348 21.5818 0.0710125 23.4981C1.38001 30.2995 10.7589 34.7258 14.5105 38.005C14.3216 38.113 14.1461 38.2075 13.9977 38.2884C12.1219 39.2196 4.96964 42.9576 3.18832 46.9116C1.16409 51.3919 3.5122 54.6037 5.0641 55.0355C9.88176 56.3715 14.8344 53.9694 17.4929 50.0019C20.1513 46.0345 19.8275 40.8794 18.5994 38.5178C18.5859 38.4908 18.5724 38.4639 18.5454 38.4369C19.0313 38.1535 19.5306 37.8566 20.0164 37.5732C20.9745 37.0064 21.9192 36.4801 22.7288 36.0483C22.27 37.3033 21.9327 38.8012 21.7707 40.9604C21.5683 43.4974 22.6074 46.7902 23.9704 48.0857C24.5776 48.6525 25.2929 48.666 25.7517 48.666C27.3441 48.666 28.0593 47.3435 28.8555 45.7781C29.8271 43.8618 30.7043 41.6351 30.7043 41.6351C30.7043 41.6351 29.6112 47.6538 32.5801 47.6538C33.6597 47.6538 34.7528 46.2504 35.2386 45.5351C35.2386 45.5486 35.2386 45.5486 35.2386 45.5486C35.2386 45.5486 35.2656 45.5082 35.3195 45.4137C35.4275 45.2383 35.495 45.1303 35.495 45.1303C35.495 45.1303 35.495 45.1168 35.495 45.1033C35.9268 44.3476 36.8984 42.6338 38.3424 39.7863C40.2047 36.1157 41.9995 31.5275 41.9995 31.5275C41.9995 31.5275 42.1614 32.6476 42.7147 34.5099C43.0386 35.6029 43.7133 36.804 44.2531 37.9645C43.8213 38.5718 43.5514 38.9092 43.5514 38.9092C43.5514 38.9092 43.5514 38.9092 43.5649 38.9227C43.214 39.3815 42.8362 39.8808 42.4178 40.3666C40.9469 42.121 39.1926 44.1317 38.9496 44.712C38.6663 45.4002 38.7337 45.8995 39.2735 46.3044C39.6649 46.6012 40.3666 46.6417 41.0818 46.6012C42.4043 46.5068 43.3355 46.1829 43.7943 45.9805C44.5095 45.7241 45.3462 45.3327 46.1289 44.7524C47.5728 43.6864 48.45 42.1614 48.369 40.1507C48.3286 39.0441 47.9642 37.9376 47.5189 36.8985C47.6538 36.7095 47.7753 36.5206 47.9102 36.3317C50.1908 32.9984 51.9587 29.3413 51.9587 29.3413C51.9587 29.3413 52.1206 30.4614 52.6739 32.3237C52.9438 33.2683 53.4971 34.2939 53.9829 35.2926C51.8372 37.0334 50.5147 39.0576 50.0424 40.3801C49.1922 42.8362 49.8535 43.9428 51.1085 44.1992C51.6753 44.3206 52.485 44.0507 53.0787 43.7943C53.8345 43.5514 54.7251 43.1331 55.5753 42.5123C57.0192 41.4462 58.4092 39.9618 58.3282 37.9511C58.2878 37.0334 58.0448 36.1292 57.7075 35.2521C59.5293 34.4964 61.8774 34.078 64.8732 34.4289C71.2968 35.1846 72.5653 39.1926 72.3224 40.8794C72.0795 42.5663 70.73 43.4839 70.2847 43.7673C69.8393 44.0507 69.6909 44.1452 69.7314 44.3476C69.7854 44.6445 70.0013 44.631 70.3791 44.577C70.9054 44.4826 73.7528 43.214 73.8743 40.1102C74.0767 36.1427 70.2982 31.8109 63.6182 31.8514ZM14.0652 48.558C11.933 50.8791 8.96411 51.7563 7.6821 51.0141C6.30563 50.2179 6.84542 46.7902 9.46342 44.3341C11.0558 42.8362 13.107 41.4462 14.47 40.596C14.7804 40.4071 15.2392 40.1372 15.7925 39.7998C15.887 39.7459 15.9409 39.7189 15.9409 39.7189C16.0489 39.6514 16.1569 39.5839 16.2648 39.5164C17.223 43.0251 16.3053 46.1154 14.0652 48.558ZM29.5842 38.005C28.842 39.8133 27.2901 44.4421 26.3455 44.1857C25.5358 43.9697 25.0365 40.4611 26.1835 36.9929C26.7638 35.2521 27.9918 33.1739 28.7071 32.3642C29.8676 31.0687 31.1496 30.6368 31.46 31.1631C31.8514 31.8514 30.0431 36.8715 29.5842 38.005ZM42.3908 44.1317C42.0805 44.2936 41.7836 44.4016 41.6486 44.3206C41.5542 44.2666 41.7836 44.0507 41.7836 44.0507C41.7836 44.0507 43.3895 42.3234 44.0237 41.5407C44.3881 41.0819 44.8199 40.5421 45.2787 39.9348C45.2787 39.9888 45.2787 40.0562 45.2787 40.1102C45.2787 42.1749 43.2815 43.5649 42.3908 44.1317ZM52.2691 41.878C52.0396 41.7161 52.0801 41.1763 52.8493 39.4895C53.1462 38.8282 53.8479 37.7216 55.049 36.6555C55.1839 37.0874 55.2784 37.5057 55.2649 37.8971C55.2514 40.5016 53.3891 41.4732 52.2691 41.878Z" fill="#CD6799"/>
</svg>
