<svg width="375" height="362" viewBox="0 0 375 362" fill="none" xmlns="http://www.w3.org/2000/svg">
<path d="M374.983 214.862C374.983 214.862 377.618 113.01 317.215 65.2192C263.875 23.0411 189.151 15.357 137.492 65.7009C119.09 83.6465 108.584 114.399 85.7688 127.069C60.1415 141.281 25.697 150.443 7.2867 196.571C-11.1236 242.7 6.75331 295.203 45.1498 318.488C83.5463 341.774 137.985 304.204 190.816 293.517C243.646 282.83 367.055 341.308 374.983 214.862Z" fill="#7FC844"/>
<path opacity="0.7" d="M374.983 214.862C374.983 214.862 377.618 113.01 317.215 65.2192C263.875 23.0411 189.151 15.357 137.492 65.7009C119.09 83.6465 108.584 114.399 85.7688 127.069C60.1415 141.281 25.697 150.443 7.2867 196.571C-11.1236 242.7 6.75331 295.203 45.1498 318.488C83.5463 341.774 137.985 304.204 190.816 293.517C243.646 282.83 367.055 341.308 374.983 214.862Z" fill="white"/>
<path d="M30.8046 285.576C32.7523 286.379 37.5044 286.299 37.5044 286.299C37.5044 286.299 36.478 283.216 36.3891 283.023C35.3385 280.863 32.0411 277.282 29.3579 277.651C28.9134 277.727 28.4898 277.895 28.1143 278.143C27.7389 278.391 27.4199 278.715 27.1778 279.093C26.9357 279.471 26.776 279.896 26.7089 280.339C26.6417 280.782 26.6687 281.234 26.7879 281.666C27.2405 283.497 29.1478 284.862 30.8046 285.576Z" fill="#263238"/>
<path d="M32.4615 299.25C34.482 299.539 38.7168 298.311 39.0563 298.214C39.759 300.624 40.623 302.985 41.6424 305.28C42.2243 306.621 42.8547 307.954 43.5093 309.295C43.1214 308.733 42.7658 308.235 42.7011 308.171C41.0848 306.356 36.9873 303.779 34.4901 304.83C34.0856 305.021 33.7253 305.293 33.4322 305.629C33.1391 305.966 32.9195 306.359 32.7873 306.784C32.6551 307.209 32.6132 307.656 32.6642 308.098C32.7153 308.54 32.8582 308.967 33.0838 309.351C34.0052 311.021 36.2115 311.84 37.9976 312.097C39.7836 312.354 43.4447 311.374 44.4064 311.109C44.6569 311.615 44.9075 312.121 45.1661 312.627C46.3945 315.036 47.6391 317.444 48.7786 319.853C49.1827 320.696 49.5868 321.547 49.9182 322.399C49.5707 321.901 49.2797 321.483 49.2231 321.419C47.6068 319.612 43.5093 317.027 41.0121 318.087C40.6076 318.277 40.2473 318.55 39.9542 318.886C39.6611 319.222 39.4415 319.615 39.3093 320.04C39.1771 320.465 39.1352 320.913 39.1862 321.355C39.2373 321.797 39.3802 322.223 39.6058 322.607C40.5271 324.269 42.7335 325.088 44.5195 325.345C46.3056 325.602 49.6111 324.727 50.7506 324.406C51.1062 325.289 51.4618 326.172 51.7608 327.039C51.9467 327.642 52.1811 328.204 52.3346 328.814L52.8438 330.605C53.1185 331.753 53.4176 332.933 53.6519 334.065C53.8297 334.868 53.9833 335.599 54.1369 336.353C53.7489 335.502 52.9407 333.856 52.8599 333.728C51.5749 331.696 47.8735 328.517 45.255 329.191C44.8257 329.318 44.4277 329.533 44.0861 329.82C43.7446 330.108 43.467 330.464 43.2709 330.864C43.0749 331.264 42.9647 331.7 42.9473 332.145C42.9299 332.589 43.0057 333.033 43.1699 333.447C43.8245 335.229 45.8773 336.37 47.6068 336.891C49.5141 337.47 53.7166 336.94 54.2419 336.891C54.5005 338.136 54.7349 339.356 54.9369 340.513C55.0905 341.364 55.2279 342.183 55.3572 342.97H57.0463C56.8847 342.086 56.7069 341.171 56.5129 340.216C56.2624 338.947 55.9633 337.59 55.6481 336.201C56.9137 335.692 58.1495 335.113 59.3496 334.467C60.7397 335.952 64.2876 337.678 64.7482 337.911C64.2714 339.1 63.7865 340.24 63.3177 341.316C63.0753 341.886 62.8328 342.416 62.5904 342.922H64.3765L64.7967 341.91C65.2897 340.713 65.7988 339.421 66.2999 338.088C66.8091 338.2 70.9793 339.027 72.9189 338.594C74.6807 338.192 76.8143 337.205 77.5982 335.47C77.7929 335.068 77.9012 334.631 77.9162 334.185C77.9312 333.739 77.8526 333.295 77.6853 332.881C77.518 332.467 77.2658 332.092 76.9447 331.78C76.6236 331.469 76.2406 331.227 75.8202 331.07C73.2583 330.219 69.3548 333.126 67.9082 335.085C67.8274 335.197 67.0515 336.538 66.5747 337.389C66.7767 336.843 66.9788 336.321 67.1808 335.783C67.593 334.667 67.989 333.551 68.3689 332.347L68.9022 330.564C69.0962 329.978 69.2174 329.328 69.3872 328.702C69.7266 327.248 70.0095 325.755 70.26 324.245C71.2379 324.599 74.7292 325.795 76.5395 325.666C78.3498 325.538 80.5804 324.864 81.6391 323.258C81.893 322.89 82.067 322.474 82.1501 322.035C82.2331 321.597 82.2234 321.146 82.1215 320.712C82.0196 320.278 81.8278 319.869 81.5583 319.513C81.2888 319.156 80.9475 318.859 80.5562 318.641C78.1316 317.412 73.8402 319.693 72.1269 321.387C72.0218 321.491 70.9308 322.848 70.3489 323.603C70.4944 322.696 70.6398 321.788 70.753 320.865C71.0843 318.199 71.3268 315.485 71.5612 312.787C71.642 311.984 71.7309 311.133 71.8117 310.306C72.1592 310.435 76.2809 311.952 78.2771 311.808C80.0793 311.679 82.318 311.005 83.3767 309.399C83.6306 309.031 83.8046 308.615 83.8876 308.177C83.9707 307.738 83.961 307.288 83.8591 306.854C83.7572 306.419 83.5654 306.011 83.2959 305.654C83.0264 305.298 82.6851 305.001 82.2937 304.782C79.8692 303.554 75.5778 305.834 73.8645 307.528C73.7351 307.657 72.1673 309.608 71.7955 310.122C71.9895 308.307 72.1915 306.5 72.4744 304.718C72.831 302.318 73.3467 299.944 74.018 297.612C74.1796 297.676 78.4791 299.282 80.5562 299.13C82.3584 299.001 84.597 298.327 85.6558 296.721C85.9096 296.353 86.0836 295.937 86.1667 295.498C86.2498 295.06 86.24 294.61 86.1382 294.175C86.0363 293.741 85.8445 293.332 85.575 292.976C85.3055 292.619 84.9642 292.322 84.5728 292.104C82.1483 290.875 77.8569 293.156 76.1435 294.85C76.0061 294.986 74.3251 297.082 74.0423 297.484C74.0827 297.355 74.115 297.211 74.1554 297.074C74.8928 294.752 75.8367 292.501 76.9759 290.345C77.5902 289.149 78.2448 288.041 78.9075 286.973C79.6752 287.35 83.207 289.053 85.09 289.125C86.9731 289.197 89.2198 288.78 90.424 287.31C90.7167 286.973 90.9354 286.578 91.0663 286.152C91.1971 285.725 91.2372 285.277 91.184 284.834C91.1308 284.391 90.9854 283.965 90.7572 283.581C90.5289 283.197 90.2228 282.865 89.8583 282.605C87.6035 281.12 83.0615 282.918 81.1785 284.42C81.0734 284.5 80.1197 285.448 79.4409 286.138C79.748 285.664 80.0551 285.166 80.3541 284.717C81.4856 283.023 82.6251 281.505 83.6434 280.228C84.2334 279.49 84.7748 278.831 85.2597 278.229C86.2134 278.229 90.0442 278.085 91.7252 277.306C93.4062 276.527 95.2246 275.114 95.6125 273.251C95.7146 272.818 95.7249 272.368 95.6429 271.931C95.5608 271.493 95.3882 271.078 95.1359 270.71C94.8836 270.342 94.5572 270.031 94.1774 269.795C93.7976 269.559 93.3726 269.405 92.9293 269.341C90.2381 269.052 87.0458 272.721 86.0679 274.961C85.979 275.154 85.0011 278.269 85.0496 278.269H85.1062C84.597 278.847 84.0556 279.466 83.4898 280.156C82.4392 281.449 81.2674 282.91 80.0955 284.588C78.8088 286.39 77.6321 288.267 76.5718 290.209C75.3695 292.364 74.3634 294.621 73.5654 296.954V297.042C73.5654 296.239 73.5654 294.047 73.5169 293.878C73.2018 291.47 71.1894 287.077 68.5224 286.596C68.0787 286.532 67.6265 286.56 67.1944 286.679C66.7622 286.797 66.3597 287.004 66.0124 287.286C65.665 287.567 65.3805 287.918 65.1768 288.315C64.973 288.711 64.8546 289.146 64.829 289.591C64.6755 291.486 66.0655 293.381 67.4152 294.569C68.9346 295.918 73.1533 297.219 73.4846 297.323C72.7319 299.717 72.1406 302.158 71.7147 304.63C71.4561 306.067 71.246 307.528 71.052 308.99C71.052 308.307 71.052 307.697 71.052 307.617C70.7368 305.208 68.7245 300.816 66.0575 300.326C65.6138 300.263 65.1617 300.292 64.7301 300.412C64.2984 300.532 63.8965 300.74 63.5499 301.022C63.2034 301.304 62.9197 301.655 62.717 302.052C62.5142 302.45 62.3968 302.884 62.3722 303.329C62.2186 305.224 63.6006 307.111 64.9503 308.307C66.2999 309.503 69.8882 310.716 70.8419 310.997C70.7691 311.559 70.6964 312.121 70.6317 312.683C70.3085 315.381 70.0014 318.079 69.6134 320.712C69.4841 321.644 69.3144 322.551 69.1528 323.466C69.1528 322.856 69.1528 322.35 69.1528 322.27C68.8457 319.861 66.8252 315.469 64.1663 314.987C63.7219 314.928 63.2699 314.961 62.839 315.084C62.4081 315.208 62.0077 315.419 61.6634 315.704C61.3191 315.99 61.0383 316.343 60.8389 316.742C60.6396 317.142 60.5259 317.577 60.5053 318.023C60.3517 319.917 61.7337 321.812 63.0834 323.001C64.433 324.189 67.6819 325.281 68.8053 325.634C68.6113 326.566 68.4173 327.497 68.183 328.388C68.0133 328.991 67.8839 329.585 67.6819 330.179C67.4799 330.773 67.294 331.367 67.1081 331.953C66.704 333.061 66.2999 334.21 65.8716 335.286C65.5806 336.032 65.2897 336.739 65.0068 337.454C65.1442 336.538 65.3948 334.724 65.3948 334.571C65.3677 332.457 64.7915 330.385 63.7218 328.557C63.7299 328.32 63.7136 328.084 63.6733 327.85C63.6169 327.401 63.4653 326.968 63.2285 326.581C62.9918 326.194 62.6752 325.861 62.2997 325.603C61.9242 325.346 61.4981 325.171 61.0496 325.089C60.601 325.007 60.1401 325.021 59.6971 325.129C57.0786 325.819 55.4299 330.388 55.3087 332.788C55.3087 332.925 55.3976 334.475 55.4703 335.446C55.341 334.884 55.2198 334.33 55.0743 333.752C54.7996 332.604 54.4844 331.464 54.1611 330.235C53.9833 329.649 53.7974 329.055 53.6115 328.461C53.4257 327.866 53.1913 327.248 52.9812 326.638C52.4639 325.233 51.8659 323.836 51.2355 322.439C52.2457 322.198 55.8259 321.282 57.2645 320.182C58.7031 319.082 60.2143 317.3 60.1982 315.405C60.2061 314.959 60.1204 314.516 59.9465 314.105C59.7725 313.693 59.5142 313.322 59.188 313.016C58.8618 312.709 58.4749 312.473 58.0519 312.323C57.6288 312.173 57.179 312.113 56.7311 312.145C54.0399 312.442 51.7123 316.706 51.2274 319.058C51.2274 319.211 51.0415 320.937 50.9688 321.885C50.589 321.082 50.1606 320.215 49.7889 319.379C48.5766 316.971 47.2835 314.562 45.9985 312.153L44.8509 309.993C45.2146 309.905 49.4979 308.909 51.1062 307.681C52.5367 306.589 54.056 304.798 54.0399 302.863C54.0478 302.417 53.9621 301.974 53.7881 301.563C53.6142 301.151 53.3559 300.78 53.0297 300.474C52.7035 300.167 52.3166 299.931 51.8936 299.781C51.4705 299.632 51.0207 299.571 50.5728 299.603C47.8816 299.9 45.554 304.164 45.0691 306.517C45.0287 306.693 44.8105 309.182 44.7862 309.817C43.9296 308.211 43.0972 306.605 42.3617 304.943C41.3316 302.743 40.4461 300.479 39.7109 298.166C39.8806 298.126 44.3498 297.106 45.9985 295.846C47.429 294.754 48.9484 292.963 48.9322 291.028C48.9401 290.582 48.8544 290.139 48.6805 289.728C48.5065 289.316 48.2482 288.945 47.922 288.639C47.5958 288.332 47.2089 288.096 46.7859 287.946C46.3629 287.796 45.913 287.736 45.4651 287.768C42.7739 288.065 40.4463 292.329 39.9614 294.681C39.9614 294.866 39.6866 297.54 39.6786 298.03C39.6786 297.893 39.5735 297.757 39.5331 297.628C38.8648 295.285 38.4051 292.889 38.1592 290.466C38.0056 289.133 37.9329 287.848 37.8925 286.596C38.7007 286.491 42.6365 285.969 44.2448 284.99C45.853 284.01 47.4775 282.445 47.6876 280.558C47.744 280.115 47.7071 279.666 47.5792 279.239C47.4514 278.812 47.2354 278.415 46.945 278.076C46.6546 277.736 46.2962 277.46 45.8925 277.265C45.4888 277.07 45.0488 276.961 44.6004 276.944C41.893 276.944 39.1128 280.959 38.3693 283.215C38.3693 283.336 38.0541 284.645 37.8763 285.624C37.8763 285.062 37.8763 284.476 37.8763 283.938C37.8763 281.899 38.0056 280.036 38.1349 278.39C38.2077 277.45 38.2966 276.607 38.3936 275.82C39.2017 275.282 42.3051 273.082 43.2426 271.509C44.1801 269.935 44.9479 267.767 44.2367 266C44.08 265.581 43.8369 265.199 43.5229 264.878C43.2088 264.558 42.8309 264.306 42.4131 264.139C41.9954 263.972 41.5472 263.893 41.0972 263.908C40.6471 263.923 40.2052 264.031 39.7998 264.226C37.3753 265.463 36.7772 270.28 37.1732 272.649C37.1732 272.849 38.1188 275.989 38.1673 275.965C38.0622 276.72 37.9652 277.571 37.8682 278.43C37.7066 280.076 37.5369 281.947 37.4884 283.986C37.4194 286.185 37.4761 288.386 37.6581 290.578C37.8556 293.038 38.2721 295.475 38.9027 297.861V297.941C38.4744 297.283 37.2217 295.46 37.1086 295.332C35.4922 293.517 31.3867 290.94 28.8975 291.991C28.4912 292.181 28.1291 292.453 27.8344 292.79C27.5397 293.126 27.3188 293.52 27.1857 293.946C27.0527 294.372 27.0104 294.821 27.0616 295.264C27.1128 295.707 27.2564 296.135 27.4832 296.52C28.4691 298.174 30.6755 298.993 32.4615 299.25Z" fill="#263238"/>
<path d="M78.875 286.54C78.875 286.54 79.7398 283.4 79.764 283.199C80.0954 280.791 79.3276 276.029 76.8869 274.865C76.4762 274.687 76.0328 274.596 75.5847 274.597C75.1367 274.599 74.6938 274.692 74.2842 274.873C73.8746 275.053 73.5072 275.316 73.2054 275.645C72.9035 275.974 72.6738 276.362 72.5309 276.784C71.8762 278.575 72.7087 280.759 73.6946 282.268C74.8503 284.034 78.875 286.54 78.875 286.54Z" fill="#263238"/>
<path d="M290.537 285.576C292.477 286.379 297.229 286.299 297.237 286.299C297.245 286.299 296.21 283.216 296.121 283.023C295.071 280.863 291.765 277.282 289.082 277.651C288.638 277.728 288.216 277.897 287.841 278.145C287.467 278.394 287.148 278.718 286.907 279.096C286.666 279.474 286.507 279.898 286.44 280.34C286.374 280.783 286.401 281.235 286.52 281.666C286.965 283.497 288.88 284.862 290.537 285.576Z" fill="#263238"/>
<path d="M292.193 299.25C294.214 299.539 298.449 298.31 298.788 298.214C299.488 300.624 300.349 302.984 301.366 305.28C301.956 306.621 302.587 307.954 303.233 309.294C302.845 308.732 302.498 308.235 302.425 308.17C300.809 306.356 296.703 303.778 294.214 304.83C293.809 305.02 293.448 305.292 293.154 305.628C292.86 305.963 292.639 306.356 292.506 306.781C292.373 307.207 292.331 307.654 292.381 308.097C292.432 308.539 292.574 308.966 292.799 309.351C293.721 311.021 295.927 311.84 297.713 312.097C299.499 312.354 303.168 311.374 304.122 311.109C304.381 311.615 304.631 312.121 304.882 312.627C306.118 315.035 307.355 317.444 308.502 319.853C308.906 320.696 309.27 321.547 309.642 322.398L308.947 321.419C307.331 319.612 303.225 317.027 300.736 318.087C300.331 318.277 299.97 318.548 299.676 318.884C299.382 319.22 299.161 319.613 299.028 320.038C298.895 320.463 298.853 320.911 298.903 321.353C298.954 321.795 299.096 322.222 299.321 322.607C300.243 324.269 302.449 325.088 304.235 325.345C306.021 325.602 309.335 324.727 310.474 324.406C310.822 325.289 311.177 326.172 311.476 327.039C311.67 327.641 311.897 328.204 312.058 328.814C312.22 329.424 312.398 330.01 312.559 330.604C312.842 331.753 313.133 332.933 313.368 334.065C313.537 334.868 313.691 335.599 313.853 336.353C313.457 335.502 312.656 333.856 312.576 333.728C311.282 331.696 307.589 328.517 304.971 329.191C304.541 329.317 304.142 329.531 303.799 329.818C303.457 330.106 303.178 330.461 302.982 330.861C302.785 331.262 302.674 331.698 302.656 332.143C302.638 332.588 302.713 333.032 302.877 333.447C303.54 335.229 305.593 336.369 307.322 336.891C309.222 337.469 313.432 336.939 313.958 336.891C314.216 338.136 314.451 339.356 314.653 340.513C314.806 341.364 314.944 342.183 315.073 342.969H316.754C316.592 342.086 316.423 341.171 316.229 340.215C315.978 338.947 315.679 337.59 315.364 336.201C316.629 335.692 317.865 335.113 319.065 334.466C320.447 335.952 324.003 337.678 324.464 337.911C323.979 339.099 323.502 340.24 323.033 341.315C322.783 341.886 322.54 342.415 322.306 342.921H324.084L324.512 341.91C325.005 340.713 325.506 339.421 326.016 338.088C326.525 338.2 330.695 339.027 332.635 338.593C334.396 338.192 336.53 337.204 337.314 335.47C337.509 335.068 337.617 334.63 337.632 334.185C337.647 333.739 337.568 333.295 337.401 332.881C337.234 332.467 336.981 332.092 336.66 331.78C336.339 331.468 335.956 331.227 335.536 331.07C332.966 330.219 329.07 333.126 327.624 335.085C327.535 335.197 326.759 336.538 326.282 337.389C326.484 336.843 326.694 336.321 326.896 335.783C327.301 334.667 327.705 333.551 328.084 332.347C328.262 331.758 328.44 331.164 328.618 330.564C328.804 329.978 328.933 329.328 329.095 328.701C329.442 327.248 329.725 325.755 329.976 324.245C330.954 324.598 334.445 325.795 336.255 325.666C338.065 325.538 340.296 324.863 341.355 323.257C341.609 322.89 341.783 322.473 341.866 322.035C341.949 321.597 341.939 321.146 341.837 320.712C341.735 320.278 341.543 319.869 341.274 319.513C341.004 319.156 340.663 318.859 340.272 318.641C337.847 317.412 333.556 319.692 331.843 321.387C331.737 321.491 330.646 322.848 330.065 323.603C330.202 322.695 330.347 321.788 330.461 320.865C330.792 318.199 331.042 315.485 331.269 312.787C331.35 311.984 331.438 311.133 331.527 310.306C331.875 310.435 335.997 311.952 337.993 311.808C339.795 311.679 342.034 311.005 343.092 309.399C343.346 309.031 343.52 308.615 343.603 308.177C343.686 307.738 343.677 307.288 343.575 306.853C343.473 306.419 343.281 306.011 343.012 305.654C342.742 305.297 342.401 305 342.009 304.782C339.585 303.553 335.293 305.834 333.58 307.528C333.451 307.656 331.883 309.608 331.511 310.121C331.697 308.307 331.907 306.5 332.182 304.718C332.545 302.318 333.063 299.945 333.734 297.612C333.895 297.676 338.195 299.282 340.264 299.129C342.066 299.001 344.305 298.326 345.371 296.721C345.625 296.353 345.799 295.936 345.882 295.498C345.965 295.06 345.956 294.609 345.854 294.175C345.752 293.741 345.56 293.332 345.291 292.976C345.021 292.619 344.68 292.322 344.288 292.104C341.864 290.875 337.564 293.156 335.851 294.85C335.722 294.986 334.041 297.082 333.758 297.483C333.758 297.355 333.823 297.21 333.863 297.074C334.603 294.752 335.55 292.5 336.692 290.345C337.306 289.149 337.96 288.041 338.615 286.973C339.423 287.35 342.923 289.053 344.806 289.125C346.689 289.197 348.927 288.78 350.14 287.31C350.432 286.972 350.651 286.578 350.782 286.151C350.913 285.725 350.953 285.276 350.9 284.834C350.846 284.391 350.701 283.965 350.473 283.581C350.245 283.197 349.938 282.865 349.574 282.605C347.311 281.12 342.777 282.918 340.886 284.42C340.789 284.5 339.835 285.447 339.148 286.138C339.456 285.664 339.763 285.166 340.07 284.717C341.193 283.022 342.341 281.505 343.359 280.228C343.941 279.49 344.49 278.831 344.975 278.229C345.921 278.229 349.752 278.084 351.441 277.306C353.13 276.527 354.948 275.114 355.336 273.251C355.438 272.818 355.449 272.368 355.367 271.931C355.285 271.493 355.112 271.077 354.86 270.71C354.607 270.342 354.281 270.031 353.901 269.795C353.521 269.559 353.096 269.404 352.653 269.34C349.962 269.051 346.77 272.721 345.784 274.961C345.703 275.154 344.717 278.269 344.765 278.269H344.983C344.474 278.847 343.933 279.465 343.367 280.156C342.317 281.449 341.137 282.91 339.965 284.588C338.684 286.392 337.51 288.269 336.449 290.209C335.247 292.364 334.241 294.621 333.443 296.953C333.439 296.983 333.439 297.012 333.443 297.042C333.443 296.239 333.443 294.047 333.394 293.878C333.079 291.469 331.059 287.077 328.4 286.596C327.956 286.531 327.504 286.56 327.072 286.678C326.64 286.797 326.237 287.004 325.89 287.286C325.542 287.567 325.258 287.918 325.054 288.314C324.85 288.711 324.732 289.146 324.706 289.59C324.553 291.485 325.935 293.38 327.284 294.569C328.804 295.918 333.022 297.218 333.362 297.323C332.605 299.715 332.014 302.157 331.592 304.629C331.333 306.067 331.123 307.528 330.929 308.989C330.929 308.307 330.929 307.697 330.929 307.616C330.614 305.208 328.602 300.815 325.935 300.326C325.49 300.261 325.038 300.29 324.605 300.409C324.172 300.528 323.769 300.736 323.422 301.018C323.074 301.301 322.79 301.652 322.587 302.05C322.384 302.448 322.266 302.883 322.241 303.329C322.088 305.224 323.478 307.11 324.819 308.307C326.161 309.503 329.766 310.716 330.711 310.997C330.646 311.559 330.574 312.121 330.501 312.683C330.186 315.381 329.879 318.079 329.491 320.712C329.353 321.644 329.192 322.551 329.022 323.466C329.022 322.856 329.022 322.35 329.022 322.27C328.707 319.861 326.694 315.469 324.027 314.987C323.584 314.923 323.132 314.951 322.699 315.07C322.267 315.189 321.865 315.396 321.517 315.677C321.17 315.959 320.886 316.309 320.682 316.706C320.478 317.103 320.36 317.537 320.334 317.982C320.189 319.877 321.571 321.772 322.92 322.96C324.27 324.149 327.511 325.241 328.642 325.594C328.44 326.525 328.246 327.457 328.02 328.348C327.842 328.95 327.721 329.544 327.511 330.139C327.301 330.733 327.131 331.327 326.945 331.913C326.533 333.021 326.137 334.169 325.7 335.245C325.418 335.992 325.127 336.699 324.836 337.413C324.981 336.498 325.232 334.683 325.232 334.531C325.197 332.416 324.619 330.346 323.551 328.517C323.557 328.28 323.544 328.044 323.51 327.81C323.449 327.368 323.295 326.944 323.06 326.565C322.825 326.185 322.512 325.859 322.143 325.606C321.773 325.353 321.355 325.179 320.914 325.095C320.473 325.012 320.02 325.02 319.582 325.12C316.972 325.811 315.315 330.379 315.202 332.78C315.202 332.917 315.283 334.466 315.364 335.438C315.226 334.876 315.105 334.322 314.968 333.744C314.685 332.596 314.378 331.455 314.055 330.227C313.869 329.641 313.691 329.047 313.505 328.452C313.319 327.858 313.085 327.24 312.875 326.63C312.349 325.225 311.759 323.828 311.129 322.43C312.139 322.19 315.719 321.274 317.158 320.174C318.597 319.074 320.108 317.292 320.092 315.397C320.1 314.951 320.014 314.508 319.84 314.096C319.666 313.685 319.408 313.314 319.081 313.007C318.755 312.701 318.368 312.465 317.945 312.315C317.522 312.165 317.072 312.104 316.625 312.137C313.933 312.434 311.606 316.698 311.121 319.05C311.121 319.203 310.927 320.929 310.862 321.876C310.474 321.073 310.054 320.206 309.674 319.371C308.47 316.962 307.177 314.554 305.892 312.145C305.496 311.414 305.084 310.676 304.728 309.945C305.092 309.857 309.375 308.861 310.983 307.632C312.414 306.54 313.933 304.75 313.917 302.815C313.925 302.369 313.839 301.926 313.665 301.514C313.492 301.103 313.233 300.732 312.907 300.425C312.581 300.119 312.194 299.883 311.771 299.733C311.348 299.583 310.898 299.522 310.45 299.555C307.759 299.852 305.423 304.116 304.938 306.468C304.938 306.645 304.68 309.134 304.655 309.768C303.807 308.162 302.974 306.556 302.231 304.894C301.198 302.695 300.31 300.431 299.572 298.118C299.742 298.077 304.219 297.058 305.868 295.797C307.298 294.705 308.818 292.915 308.801 290.98C308.809 290.533 308.724 290.091 308.55 289.679C308.376 289.268 308.117 288.897 307.791 288.59C307.465 288.283 307.078 288.048 306.655 287.898C306.232 287.748 305.782 287.687 305.334 287.72C302.643 288.017 300.316 292.28 299.831 294.633C299.79 294.818 299.548 297.491 299.54 297.981C299.499 297.845 299.443 297.708 299.402 297.58C298.728 295.238 298.265 292.841 298.02 290.417C297.867 289.085 297.802 287.8 297.754 286.547C298.61 286.443 302.506 285.921 304.114 284.941C305.722 283.962 307.347 282.396 307.557 280.509C307.613 280.067 307.576 279.618 307.448 279.191C307.321 278.763 307.105 278.367 306.814 278.027C306.524 277.687 306.165 277.411 305.762 277.216C305.358 277.022 304.918 276.913 304.47 276.896C301.762 276.896 298.974 280.911 298.23 283.167C298.23 283.287 297.923 284.596 297.737 285.576C297.737 285.014 297.737 284.428 297.737 283.89C297.737 281.85 297.867 279.987 297.988 278.341C298.069 277.402 298.158 276.559 298.255 275.772C299.063 275.234 302.166 273.034 303.104 271.46C304.041 269.887 304.809 267.719 304.106 265.952C303.951 265.534 303.711 265.152 303.4 264.831C303.088 264.51 302.713 264.257 302.298 264.087C301.883 263.918 301.437 263.837 300.989 263.848C300.54 263.86 300.099 263.964 299.693 264.154C297.269 265.39 296.663 270.208 297.067 272.576C297.067 272.777 298.012 275.917 298.053 275.892H298.101C297.996 276.647 297.891 277.498 297.802 278.357C297.632 280.003 297.471 281.874 297.422 283.914C297.349 286.112 297.406 288.314 297.592 290.506C297.787 292.965 298.201 295.402 298.829 297.788V297.869C298.4 297.21 297.147 295.388 297.034 295.259C295.418 293.445 291.312 290.867 288.823 291.919C288.417 292.109 288.055 292.381 287.76 292.717C287.466 293.054 287.245 293.448 287.112 293.874C286.978 294.3 286.936 294.749 286.987 295.192C287.039 295.635 287.182 296.063 287.409 296.448C288.201 298.174 290.407 298.993 292.193 299.25Z" fill="#263238"/>
<path d="M338.607 286.54C338.647 286.54 339.464 283.4 339.496 283.199C339.827 280.791 339.051 276.029 336.611 274.865C336.2 274.687 335.757 274.596 335.308 274.597C334.86 274.599 334.418 274.692 334.008 274.873C333.598 275.053 333.231 275.316 332.929 275.645C332.627 275.974 332.398 276.362 332.255 276.784C331.608 278.575 332.441 280.759 333.418 282.268C334.574 284.034 338.599 286.54 338.607 286.54Z" fill="#263238"/>
<path d="M322.815 125.415C318.588 125.405 314.412 126.329 310.589 128.119C306.765 129.909 303.389 132.521 300.706 135.765C298.022 139.009 296.097 142.805 295.07 146.879C294.044 150.953 293.941 155.202 294.769 159.32C295.597 163.438 297.335 167.322 299.858 170.691C302.382 174.06 305.627 176.83 309.359 178.801C313.091 180.772 317.218 181.895 321.44 182.088C325.662 182.281 329.875 181.54 333.774 179.918V179.918L334.033 179.805L334.841 179.436C335.261 179.235 335.689 179.035 336.102 178.818C336.514 178.601 336.861 178.4 337.233 178.183C337.605 177.967 337.969 177.75 338.324 177.517C339.043 177.051 339.73 176.569 340.401 176.048C341.755 175.001 343.005 173.829 344.135 172.547C344.418 172.234 344.684 171.912 344.943 171.575C345.202 171.238 345.388 171.021 345.606 170.772C345.646 170.716 345.695 170.644 345.743 170.588C345.994 170.25 346.236 169.905 346.471 169.56L347.141 168.516C347.152 168.489 347.168 168.464 347.19 168.444C347.4 168.083 347.61 167.721 347.812 167.36C348.014 166.991 348.208 166.613 348.386 166.236L348.725 165.529L349.041 164.807C349.21 164.413 349.372 164.004 349.525 163.594C349.525 163.506 349.59 163.417 349.622 163.329C349.881 162.598 350.115 161.844 350.317 161.073C350.39 160.816 350.447 160.559 350.511 160.27L350.657 159.62L350.705 159.379C350.754 159.154 350.786 158.921 350.835 158.696C350.883 158.471 350.932 158.15 350.964 157.893C350.996 157.636 351.029 157.379 351.069 157.09L351.118 156.609C351.118 156.408 351.166 156.199 351.174 155.982C351.182 155.766 351.174 155.637 351.174 155.452C351.174 155.268 351.174 155.035 351.174 154.834C351.174 154.497 351.174 154.152 351.174 153.806C351.185 146.311 348.208 139.116 342.893 133.795C337.579 128.474 330.36 125.461 322.815 125.415V125.415ZM329.281 169.255C327.234 170.109 325.035 170.549 322.815 170.548C319.474 170.549 316.207 169.566 313.428 167.723C310.649 165.879 308.483 163.259 307.203 160.192C305.924 157.125 305.589 153.75 306.24 150.494C306.892 147.238 308.501 144.247 310.863 141.9C313.226 139.553 316.237 137.954 319.514 137.307C322.791 136.66 326.188 136.993 329.275 138.264C332.361 139.535 334.999 141.687 336.855 144.448C338.71 147.209 339.7 150.455 339.698 153.774C339.705 156.315 339.124 158.823 338.001 161.105C336.197 164.783 333.105 167.68 329.305 169.255H329.281Z" fill="#7FC844" stroke="#263238" stroke-linecap="round" stroke-linejoin="round"/>
<path d="M348.475 166.163C348.297 166.541 348.103 166.918 347.901 167.287C347.699 167.649 347.489 168.01 347.279 168.371C347.257 168.391 347.241 168.416 347.23 168.443L346.56 169.487C346.325 169.833 346.083 170.178 345.832 170.515C345.784 170.571 345.735 170.644 345.695 170.7C345.477 170.989 345.258 171.262 345.032 171.503C344.806 171.744 344.491 172.161 344.224 172.474C343.088 173.75 341.838 174.922 340.49 175.975C339.819 176.489 339.132 176.979 338.413 177.444C338.058 177.677 337.686 177.902 337.322 178.111C336.958 178.32 336.57 178.536 336.191 178.745C335.423 179.147 334.631 179.548 333.831 179.845L329.362 169.158C333.162 167.584 336.254 164.686 338.058 161.008L348.475 166.163Z" fill="white" stroke="#263238" stroke-linecap="round" stroke-linejoin="round"/>
<path d="M351.344 153.774C351.344 154.119 351.344 154.465 351.344 154.802C351.344 155.003 351.344 155.211 351.344 155.42C351.344 155.629 351.344 155.773 351.344 155.95C351.344 156.127 351.344 156.376 351.287 156.576L351.239 157.058C351.198 157.315 351.174 157.572 351.134 157.861C351.093 158.15 351.053 158.415 351.004 158.664C350.956 158.913 350.924 159.122 350.875 159.347L350.827 159.587L350.681 160.238C350.616 160.495 350.56 160.752 350.487 161.041C350.285 161.803 350.051 162.566 349.792 163.297C349.792 163.385 349.719 163.474 349.695 163.562C349.542 163.971 349.38 164.365 349.21 164.774L348.895 165.497L348.556 166.204L338.049 161.145C339.173 158.863 339.753 156.355 339.746 153.814C339.748 151.611 339.312 149.428 338.464 147.392C337.616 145.355 336.373 143.505 334.805 141.946C333.237 140.387 331.376 139.15 329.327 138.305C327.278 137.461 325.082 137.026 322.864 137.025V125.415C330.424 125.429 337.669 128.424 343.008 133.741C348.348 139.058 351.346 146.263 351.344 153.774V153.774Z" fill="#263238" stroke="#263238" stroke-linecap="round" stroke-linejoin="round"/>
<path d="M329.733 194.049H343.69" stroke="#263238" stroke-linecap="round" stroke-linejoin="round"/>
<path d="M329.733 198.08H343.69" stroke="#263238" stroke-linecap="round" stroke-linejoin="round"/>
<path d="M343.69 202.103H329.733" stroke="#263238" stroke-linecap="round" stroke-linejoin="round"/>
<path d="M271.844 145.914H285.801" stroke="#263238" stroke-linecap="round" stroke-linejoin="round"/>
<path d="M271.844 149.936H285.801" stroke="#263238" stroke-linecap="round" stroke-linejoin="round"/>
<path d="M285.801 153.967H271.844" stroke="#263238" stroke-linecap="round" stroke-linejoin="round"/>
<path d="M339.189 171.688L348.192 180.183V202.657" stroke="#263238" stroke-linecap="round" stroke-linejoin="round"/>
<path d="M301.649 145.938H289.648" stroke="#263238" stroke-linecap="round" stroke-linejoin="round"/>
<path d="M305.351 74.6777H296.259V101.769H305.351V74.6777Z" fill="#7FC844" stroke="#263238" stroke-linecap="round" stroke-linejoin="round"/>
<path d="M318.33 65.6523H309.238V101.768H318.33V65.6523Z" fill="#263238" stroke="#263238" stroke-linecap="round" stroke-linejoin="round"/>
<path d="M331.317 55.3345H322.225V101.768H331.317V55.3345Z" fill="#7FC844" stroke="#263238" stroke-linecap="round" stroke-linejoin="round"/>
<path d="M344.297 48.0205H335.205V101.769H344.297V48.0205Z" fill="#263238" stroke="#263238" stroke-linecap="round" stroke-linejoin="round"/>
<path d="M296.687 71.6741L332.037 38.7939" stroke="#263238" stroke-width="2" stroke-linecap="round" stroke-linejoin="round"/>
<path d="M334.421 43.4838L337.371 33.8325L327.479 36.1209L334.421 43.4838Z" fill="#263238"/>
<path d="M99.9927 52.7974V106.2H28.6953V52.7974H37.6418V54.6602C37.6418 54.9796 37.7696 55.2859 37.9969 55.5118C38.2242 55.7377 38.5326 55.8646 38.8541 55.8646C39.1756 55.8646 39.484 55.7377 39.7113 55.5118C39.9386 55.2859 40.0664 54.9796 40.0664 54.6602V52.7974H50.3949V54.6602C50.3949 54.9796 50.5226 55.2859 50.7499 55.5118C50.9773 55.7377 51.2856 55.8646 51.6071 55.8646C51.9286 55.8646 52.237 55.7377 52.4643 55.5118C52.6917 55.2859 52.8194 54.9796 52.8194 54.6602V52.7974H63.1398V54.6602C63.1398 54.9796 63.2675 55.2859 63.4949 55.5118C63.7222 55.7377 64.0306 55.8646 64.3521 55.8646C64.6736 55.8646 64.9819 55.7377 65.2093 55.5118C65.4366 55.2859 65.5644 54.9796 65.5644 54.6602V52.7974H75.8605V54.6602C75.8605 54.9796 75.9883 55.2859 76.2156 55.5118C76.4429 55.7377 76.7513 55.8646 77.0728 55.8646C77.3943 55.8646 77.7027 55.7377 77.93 55.5118C78.1573 55.2859 78.2851 54.9796 78.2851 54.6602V52.7974H88.6297V54.6602C88.6297 54.9796 88.7574 55.2859 88.9848 55.5118C89.2121 55.7377 89.5205 55.8646 89.842 55.8646C90.1635 55.8646 90.4719 55.7377 90.6992 55.5118C90.9265 55.2859 91.0543 54.9796 91.0543 54.6602V52.7974H99.9927Z" fill="#7FC844" stroke="#263238" stroke-linecap="round" stroke-linejoin="round"/>
<path d="M44.5356 67.4106H36.6155V75.2794H44.5356V67.4106Z" fill="white" stroke="#263238" stroke-linecap="round" stroke-linejoin="round"/>
<path d="M56.416 67.4106H48.4958V75.2794H56.416V67.4106Z" fill="white" stroke="#263238" stroke-linecap="round" stroke-linejoin="round"/>
<path d="M68.3042 67.4106H60.384V75.2794H68.3042V67.4106Z" fill="white" stroke="#263238" stroke-linecap="round" stroke-linejoin="round"/>
<path d="M80.1843 67.4106H72.2642V75.2794H80.1843V67.4106Z" fill="white" stroke="#263238" stroke-linecap="round" stroke-linejoin="round"/>
<path d="M92.0644 67.4106H84.1443V75.2794H92.0644V67.4106Z" fill="#263238" stroke="#263238" stroke-linecap="round" stroke-linejoin="round"/>
<path d="M44.5356 80.3384H36.6155V88.2071H44.5356V80.3384Z" fill="white" stroke="#263238" stroke-linecap="round" stroke-linejoin="round"/>
<path d="M56.416 80.3384H48.4958V88.2071H56.416V80.3384Z" fill="white" stroke="#263238" stroke-linecap="round" stroke-linejoin="round"/>
<path d="M68.3042 80.3384H60.384V88.2071H68.3042V80.3384Z" fill="#263238" stroke="#263238" stroke-linecap="round" stroke-linejoin="round"/>
<path d="M80.1843 80.3384H72.2642V88.2071H80.1843V80.3384Z" fill="white" stroke="#263238" stroke-linecap="round" stroke-linejoin="round"/>
<path d="M92.0644 80.3384H84.1443V88.2071H92.0644V80.3384Z" fill="white" stroke="#263238" stroke-linecap="round" stroke-linejoin="round"/>
<path d="M44.5356 93.2734H36.6155V101.142H44.5356V93.2734Z" fill="white" stroke="#263238" stroke-linecap="round" stroke-linejoin="round"/>
<path d="M56.416 93.2734H48.4958V101.142H56.416V93.2734Z" fill="#263238" stroke="#263238" stroke-linecap="round" stroke-linejoin="round"/>
<path d="M68.3042 93.2734H60.384V101.142H68.3042V93.2734Z" fill="white" stroke="#263238" stroke-linecap="round" stroke-linejoin="round"/>
<path d="M80.1843 93.2734H72.2642V101.142H80.1843V93.2734Z" fill="white" stroke="#263238" stroke-linecap="round" stroke-linejoin="round"/>
<path d="M92.0644 93.2734H84.1443V101.142H92.0644V93.2734Z" fill="#263238" stroke="#263238" stroke-linecap="round" stroke-linejoin="round"/>
<path d="M40.0583 47.7791V54.6602C40.0583 54.9797 39.9306 55.286 39.7033 55.5119C39.4759 55.7378 39.1676 55.8646 38.8461 55.8646C38.5245 55.8646 38.2162 55.7378 37.9889 55.5119C37.7615 55.286 37.6338 54.9797 37.6338 54.6602V47.7791C37.6338 47.4597 37.7615 47.1533 37.9889 46.9275C38.2162 46.7016 38.5245 46.5747 38.8461 46.5747C39.1676 46.5747 39.4759 46.7016 39.7033 46.9275C39.9306 47.1533 40.0583 47.4597 40.0583 47.7791Z" fill="#263238" stroke="#263238" stroke-linecap="round" stroke-linejoin="round"/>
<path d="M52.8034 47.7791V54.6602C52.8034 54.9797 52.6757 55.286 52.4484 55.5119C52.221 55.7378 51.9127 55.8646 51.5912 55.8646C51.2697 55.8646 50.9613 55.7378 50.734 55.5119C50.5066 55.286 50.3789 54.9797 50.3789 54.6602V47.7791C50.3789 47.4597 50.5066 47.1533 50.734 46.9275C50.9613 46.7016 51.2697 46.5747 51.5912 46.5747C51.9127 46.5747 52.221 46.7016 52.4484 46.9275C52.6757 47.1533 52.8034 47.4597 52.8034 47.7791V47.7791Z" fill="#263238" stroke="#263238" stroke-linecap="round" stroke-linejoin="round"/>
<path d="M65.5483 47.7791V54.6602C65.5483 54.9797 65.4206 55.286 65.1932 55.5119C64.9659 55.7378 64.6576 55.8646 64.336 55.8646C64.0145 55.8646 63.7062 55.7378 63.4788 55.5119C63.2515 55.286 63.1238 54.9797 63.1238 54.6602V47.7791C63.1238 47.4597 63.2515 47.1533 63.4788 46.9275C63.7062 46.7016 64.0145 46.5747 64.336 46.5747C64.6576 46.5747 64.9659 46.7016 65.1932 46.9275C65.4206 47.1533 65.5483 47.4597 65.5483 47.7791V47.7791Z" fill="#263238" stroke="#263238" stroke-linecap="round" stroke-linejoin="round"/>
<path d="M78.2851 47.7791V54.6602C78.2851 54.9797 78.1574 55.286 77.9301 55.5119C77.7027 55.7378 77.3944 55.8646 77.0729 55.8646C76.7513 55.8646 76.443 55.7378 76.2157 55.5119C75.9883 55.286 75.8606 54.9797 75.8606 54.6602V47.7791C75.8606 47.6209 75.892 47.4643 75.9529 47.3182C76.0138 47.1721 76.1031 47.0393 76.2157 46.9275C76.3282 46.8156 76.4619 46.7269 76.6089 46.6664C76.756 46.6059 76.9137 46.5747 77.0729 46.5747C77.2321 46.5747 77.3897 46.6059 77.5368 46.6664C77.6839 46.7269 77.8175 46.8156 77.9301 46.9275C78.0426 47.0393 78.1319 47.1721 78.1928 47.3182C78.2538 47.4643 78.2851 47.6209 78.2851 47.7791V47.7791Z" fill="#263238" stroke="#263238" stroke-linecap="round" stroke-linejoin="round"/>
<path d="M91.0464 47.7791V54.6602C91.0464 54.9797 90.9186 55.286 90.6913 55.5119C90.464 55.7378 90.1556 55.8646 89.8341 55.8646C89.5126 55.8646 89.2042 55.7378 88.9769 55.5119C88.7495 55.286 88.6218 54.9797 88.6218 54.6602V47.7791C88.6218 47.4597 88.7495 47.1533 88.9769 46.9275C89.2042 46.7016 89.5126 46.5747 89.8341 46.5747C90.1556 46.5747 90.464 46.7016 90.6913 46.9275C90.9186 47.1533 91.0464 47.4597 91.0464 47.7791Z" fill="#263238" stroke="#263238" stroke-linecap="round" stroke-linejoin="round"/>
<path d="M74.1552 164.959C74.1539 163.699 74.0621 162.441 73.8805 161.193L78.6083 159.106L76.2403 151.879L71.2862 152.923C70.0522 150.47 68.4468 148.22 66.526 146.251L69.1122 141.795L62.9297 137.306L59.5434 141.04C57.0912 139.774 54.4584 138.888 51.7364 138.414L51.1788 133.348H43.5334L43 138.342C40.2713 138.745 37.6199 139.557 35.1364 140.751L31.6774 136.945L25.4626 141.377L27.9922 145.737C26.0225 147.659 24.3601 149.868 23.0623 152.289L18.0112 151.229L15.6432 158.455L20.266 160.503C20.0192 161.965 19.8949 163.445 19.8942 164.927C19.8969 166.184 19.986 167.44 20.1609 168.685L15.4412 170.78L17.8091 178.007L22.7632 176.963C23.9973 179.416 25.6027 181.666 27.5234 183.635L24.9453 188.14L31.144 192.612L34.5303 188.879C36.9814 190.145 39.6148 191.028 42.3373 191.496L42.8788 196.611H50.5403L51.0656 191.608C53.7989 191.214 56.4543 190.402 58.9373 189.2L62.3963 193.014L68.595 188.541L66.0654 184.181C68.0312 182.253 69.6932 180.042 70.9953 177.621L76.0464 178.689L78.4143 171.463L73.7916 169.415C74.0379 167.943 74.1595 166.452 74.1552 164.959V164.959ZM31.5805 164.959C31.5805 161.924 32.4862 158.958 34.1833 156.434C35.8803 153.911 38.2924 151.944 41.1145 150.783C43.9365 149.622 47.0419 149.318 50.0378 149.91C53.0336 150.502 55.7855 151.963 57.9455 154.109C60.1054 156.255 61.5763 158.989 62.1722 161.966C62.7682 164.942 62.4623 168.027 61.2934 170.831C60.1244 173.635 58.1449 176.031 55.6051 177.717C53.0653 179.403 50.0793 180.303 47.0247 180.303C42.9293 180.301 39.0022 178.684 36.1063 175.807C33.2104 172.93 31.5826 169.028 31.5805 164.959V164.959Z" fill="#263238" stroke="#263238" stroke-linecap="round" stroke-linejoin="round"/>
<path d="M111.186 140.655C111.183 139.849 111.127 139.044 111.016 138.246L114.023 136.913L112.511 132.312L109.359 132.971C108.575 131.408 107.553 129.976 106.329 128.723L107.945 125.889L104.001 123.046L101.843 125.455C100.286 124.648 98.6119 124.085 96.8811 123.785L96.5336 120.573H91.6846L91.3532 123.785C89.6129 124.043 87.9229 124.566 86.3425 125.335L84.1443 122.926L80.2004 125.768L81.8167 128.546C80.5634 129.768 79.5059 131.174 78.681 132.714L75.4483 132.039L73.9451 136.56L76.8868 137.86C76.7309 138.789 76.6525 139.729 76.6525 140.671C76.6552 141.476 76.7119 142.281 76.8222 143.079L73.8239 144.404L75.3271 149.013L78.4789 148.355C79.2675 149.921 80.2923 151.359 81.5177 152.618L79.9013 155.453L83.8452 158.295L86.0031 155.886C87.5636 156.694 89.24 157.257 90.9734 157.556L91.3128 160.808H96.1619L96.4932 157.596C98.2335 157.338 99.9235 156.815 101.504 156.047L103.702 158.456L107.654 155.613L106.038 152.835C107.292 151.614 108.349 150.208 109.174 148.668L112.406 149.342L113.918 144.734L110.976 143.433C111.122 142.514 111.192 141.585 111.186 140.655V140.655ZM84.0877 140.655C84.0877 138.722 84.6645 136.833 85.7453 135.226C86.826 133.619 88.3621 132.366 90.1593 131.627C91.9565 130.887 93.9341 130.694 95.842 131.071C97.7499 131.448 99.5025 132.378 100.878 133.745C102.253 135.112 103.19 136.853 103.57 138.748C103.949 140.644 103.754 142.609 103.01 144.394C102.266 146.18 101.005 147.706 99.3875 148.779C97.7701 149.853 95.8685 150.426 93.9232 150.426C91.3147 150.426 88.813 149.397 86.9685 147.564C85.1239 145.732 84.0877 143.246 84.0877 140.655V140.655Z" fill="#7FC844" stroke="#263238" stroke-linecap="round" stroke-linejoin="round"/>
<path d="M108.187 225.79C108.504 222.746 108.66 219.688 108.656 216.628C108.741 209.472 107.816 202.34 105.908 195.439L150.762 143.786C149.333 171.112 149.479 198.497 151.199 225.806L108.187 225.79Z" stroke="#263238" stroke-linecap="round" stroke-linejoin="round"/>
<path d="M280.838 216.628C280.834 219.688 280.991 222.746 281.307 225.789H237.278C239.027 198.057 239.146 170.247 237.633 142.501L283.562 195.43C281.662 202.335 280.745 209.47 280.838 216.628V216.628Z" stroke="#263238" stroke-linecap="round" stroke-linejoin="round"/>
<path d="M304.47 216.628C304.485 221.275 304.12 225.915 303.379 230.503H281.946C281.692 228.994 281.485 227.423 281.323 225.79C281.007 222.746 280.851 219.688 280.855 216.628C280.77 209.47 281.694 202.335 283.602 195.431C285.768 188.205 289.025 183.556 292.67 183.556C299.176 183.556 304.47 198.386 304.47 216.628Z" stroke="#263238" stroke-linecap="round" stroke-linejoin="round"/>
<path d="M303.378 230.503C303.378 230.503 303.378 230.575 303.378 230.607C303.281 231.196 303.176 231.774 303.063 232.342C302.7 234.237 302.255 236.019 301.786 237.673H283.562C283.077 236.019 282.649 234.237 282.285 232.342C282.172 231.769 282.067 231.191 281.97 230.607C281.97 230.607 281.97 230.535 281.97 230.503H303.378Z" stroke="#263238" stroke-linecap="round" stroke-linejoin="round"/>
<path d="M303.378 230.503C303.378 230.503 303.378 230.575 303.378 230.607C303.281 231.196 303.176 231.774 303.063 232.342C302.7 234.237 302.255 236.019 301.786 237.673H283.562C283.077 236.019 282.649 234.237 282.285 232.342C282.172 231.769 282.067 231.191 281.97 230.607C281.97 230.607 281.97 230.535 281.97 230.503H303.378Z" stroke="#263238" stroke-linecap="round" stroke-linejoin="round"/>
<path d="M152.451 122.05C151.716 129.277 151.166 136.608 150.762 143.73C149.334 171.055 149.479 198.44 151.199 225.749C151.255 226.552 151.288 226.994 151.288 226.994H237.189C237.189 226.994 237.189 226.568 237.278 225.749C239.027 198.017 239.146 170.207 237.633 142.461C237.108 133.492 236.356 124.339 235.298 115.29C234.083 105.104 232.313 94.9906 229.996 84.995M228.275 77.8409C226.408 70.47 224.379 63.4925 222.318 57.0449H166.158C160.832 73.7299 155.652 93.9798 153.179 115.29M194.234 209.377C188.9 209.377 183.686 207.806 179.251 204.862C174.816 201.918 171.359 197.733 169.318 192.837C167.277 187.941 166.743 182.554 167.784 177.356C168.824 172.159 171.393 167.385 175.164 163.637C178.936 159.89 183.741 157.338 188.973 156.305C194.204 155.271 199.627 155.801 204.555 157.829C209.483 159.857 213.695 163.291 216.658 167.698C219.621 172.104 221.203 177.284 221.203 182.584C221.208 186.106 220.515 189.594 219.162 192.849C217.809 196.105 215.823 199.063 213.318 201.556C210.814 204.048 207.839 206.025 204.564 207.374C201.289 208.723 197.779 209.418 194.234 209.418V209.377ZM194.234 141.401C189.772 141.402 185.379 140.302 181.449 138.202C177.519 136.101 174.175 133.065 171.717 129.365C169.258 125.665 167.762 121.416 167.362 117.001C166.963 112.585 167.671 108.14 169.426 104.063C171.18 99.9864 173.925 96.4058 177.414 93.6421C180.903 90.8783 185.028 89.0177 189.419 88.227C193.81 87.4363 198.33 87.7401 202.574 89.1112C206.818 90.4824 210.653 92.878 213.736 96.0835L218.447 102.772C220.464 106.862 221.4 111.394 221.166 115.942C220.932 120.491 219.537 124.905 217.112 128.769C214.686 132.634 211.31 135.821 207.302 138.031C203.294 140.241 198.786 141.401 194.202 141.401H194.234Z" stroke="#263238" stroke-linecap="round" stroke-linejoin="round"/>
<path d="M220.863 186.98C223.276 172.377 213.316 158.597 198.618 156.201C183.92 153.804 170.05 163.699 167.638 178.302C165.226 192.904 175.185 206.684 189.883 209.081C204.581 211.477 218.451 201.582 220.863 186.98Z" stroke="#263238" stroke-linecap="round" stroke-linejoin="round"/>
<path d="M221.203 114.639C221.2 120.86 219.016 126.885 215.028 131.681C211.04 136.476 205.496 139.743 199.348 140.919C193.2 142.096 186.831 141.109 181.335 138.128C175.84 135.147 171.56 130.359 169.231 124.584C166.902 118.81 166.67 112.41 168.573 106.484C170.476 100.558 174.397 95.4751 179.662 92.1082C184.927 88.7412 191.207 87.3004 197.425 88.0331C203.642 88.7658 209.409 91.6263 213.735 96.1234L218.447 102.812C220.264 106.493 221.206 110.539 221.203 114.639V114.639Z" stroke="#263238" stroke-linecap="round" stroke-linejoin="round"/>
<path d="M175.686 30.6689C176.344 29.063 176.971 27.5428 177.569 26.1082L177.86 25.4177L178.418 24.0929L179.323 22.0052L179.727 21.0979C180.293 19.8213 180.794 18.6891 181.222 17.7818C181.279 17.6453 181.344 17.5168 181.4 17.3884L181.449 17.276L181.723 16.6898C181.998 16.0956 182.225 15.6139 182.402 15.2445L182.532 14.9796L182.863 14.2971C184.601 10.4036 186.805 6.73196 189.425 3.36112C189.991 2.62684 190.72 2.03191 191.554 1.62245C192.389 1.21299 193.307 1 194.238 1C195.169 1 196.087 1.21299 196.922 1.62245C197.756 2.03191 198.485 2.62684 199.051 3.36112C201.669 6.73242 203.869 10.4041 205.605 14.2971C205.605 14.2971 206.066 15.2285 206.882 16.9789C206.922 17.0752 206.971 17.1716 207.019 17.276C207.682 18.7212 208.563 20.6643 209.606 23.0651C209.74 23.3809 209.878 23.7021 210.018 24.0286C210.705 25.6345 211.456 27.409 212.248 29.3521C212.337 29.5608 212.426 29.7857 212.515 30.0024C212.701 30.4441 212.879 30.8857 213.057 31.3433C213.08 31.3867 213.099 31.4325 213.113 31.4798C213.283 31.8893 213.444 32.2828 213.614 32.7324L213.897 33.447C215.028 36.3215 216.233 39.469 217.461 42.8574C217.671 43.4195 217.873 43.9976 218.083 44.5757C218.471 45.6677 218.892 46.7757 219.255 47.9079C219.385 48.2692 219.514 48.6385 219.635 49.0079C220.535 51.5933 221.429 54.2858 222.318 57.0854H191.963" stroke="#263238" stroke-linecap="round" stroke-linejoin="round"/>
<path d="M184.673 57.0696H166.158C166.586 55.7367 167.007 54.4279 167.435 53.1432C167.58 52.6936 167.734 52.252 167.88 51.8104C168.833 48.9599 169.787 46.1898 170.724 43.6285L171.621 41.1715C171.726 40.8985 171.831 40.6175 171.928 40.3686C172.133 39.8333 172.335 39.298 172.535 38.7627" stroke="#263238" stroke-linecap="round" stroke-linejoin="round"/>
<path d="M191.963 57.0854H184.673" stroke="#263238" stroke-linecap="round" stroke-linejoin="round"/>
<path d="M218.447 102.836L213.735 96.148C209.053 91.2953 202.7 88.3772 195.946 87.977C189.193 87.5769 182.535 89.7243 177.306 93.9898C172.077 98.2553 168.661 104.325 167.741 110.984C166.822 117.644 168.466 124.403 172.346 129.91C176.225 135.417 182.054 139.267 188.667 140.689C195.28 142.111 202.189 141.001 208.013 137.58C213.838 134.16 218.148 128.681 220.083 122.239C222.017 115.798 221.433 108.868 218.447 102.836V102.836ZM194.202 134.239C190.304 134.241 186.494 133.094 183.253 130.944C180.012 128.794 177.485 125.737 175.992 122.16C174.5 118.584 174.109 114.647 174.868 110.85C175.627 107.052 177.503 103.563 180.258 100.825C183.014 98.086 186.524 96.2208 190.347 95.4649C194.169 94.7089 198.131 95.0961 201.732 96.5775C205.333 98.0589 208.41 100.568 210.576 103.787C212.741 107.007 213.897 110.792 213.897 114.664C213.891 119.844 211.817 124.811 208.132 128.476C204.446 132.141 199.448 134.204 194.234 134.215L194.202 134.239Z" stroke="#263238" stroke-linecap="round" stroke-linejoin="round"/>
<path d="M194.234 155.83C188.9 155.83 183.686 157.402 179.251 160.346C174.816 163.29 171.359 167.474 169.318 172.37C167.277 177.266 166.743 182.654 167.783 187.851C168.824 193.049 171.393 197.823 175.164 201.57C178.936 205.317 183.741 207.869 188.973 208.903C194.204 209.937 199.627 209.406 204.555 207.378C209.483 205.35 213.695 201.916 216.658 197.51C219.621 193.104 221.203 187.923 221.203 182.624C221.203 175.518 218.362 168.703 213.304 163.678C208.246 158.653 201.387 155.83 194.234 155.83ZM194.234 202.191C190.339 202.191 186.531 201.044 183.292 198.894C180.053 196.744 177.529 193.688 176.038 190.112C174.547 186.537 174.157 182.602 174.917 178.807C175.677 175.011 177.553 171.524 180.307 168.788C183.062 166.051 186.571 164.187 190.392 163.432C194.212 162.677 198.172 163.065 201.771 164.546C205.37 166.027 208.446 168.535 210.61 171.753C212.774 174.971 213.929 178.754 213.929 182.624C213.929 187.814 211.854 192.791 208.161 196.46C204.467 200.13 199.458 202.191 194.234 202.191Z" stroke="#263238" stroke-linecap="round" stroke-linejoin="round"/>
<path d="M237.278 227.034H151.288V251.596H237.278V227.034Z" stroke="#263238" stroke-linecap="round" stroke-linejoin="round"/>
<path d="M162.36 251.588V227.773" stroke="#263238" stroke-linecap="round" stroke-linejoin="round"/>
<path d="M178.467 251.588V227.773" stroke="#263238" stroke-linecap="round" stroke-linejoin="round"/>
<path d="M194.574 251.588V227.773" stroke="#263238" stroke-linecap="round" stroke-linejoin="round"/>
<path d="M210.681 251.588V227.773" stroke="#263238" stroke-linecap="round" stroke-linejoin="round"/>
<path d="M226.788 251.588V227.773" stroke="#263238" stroke-linecap="round" stroke-linejoin="round"/>
<path d="M108.648 216.628C108.652 219.688 108.496 222.746 108.18 225.79C108.029 227.396 107.821 228.967 107.557 230.503H86.1163C85.3744 225.915 85.0096 221.275 85.0253 216.628C85.0253 198.362 90.3108 183.556 96.8408 183.556C100.486 183.556 103.743 188.181 105.9 195.439C107.808 202.34 108.733 209.473 108.648 216.628Z" stroke="#263238" stroke-linecap="round" stroke-linejoin="round"/>
<path d="M107.557 230.503C107.509 230.832 107.452 231.153 107.396 231.466L107.323 231.868C107.169 232.671 107 233.474 106.822 234.277C106.741 234.67 106.644 235.08 106.547 235.441L106.256 236.565C106.159 236.934 106.054 237.304 105.949 237.657H87.7246C87.5629 237.111 87.4094 236.557 87.2639 235.979C87.1885 235.701 87.1157 235.411 87.0457 235.112C86.9083 234.526 86.7709 233.931 86.6416 233.321C86.585 233.016 86.5204 232.703 86.4557 232.39C86.3345 231.804 86.2294 231.201 86.1324 230.591C86.1324 230.591 86.1324 230.519 86.1324 230.487L107.557 230.503Z" stroke="#263238" stroke-linecap="round" stroke-linejoin="round"/>
<path d="M107.565 230.503C107.509 230.824 107.46 231.145 107.396 231.466L107.323 231.868C107.169 232.671 107 233.474 106.822 234.277C106.741 234.67 106.644 235.08 106.547 235.441L106.256 236.565C106.159 236.934 106.054 237.304 105.949 237.657H87.7246C87.5629 237.111 87.4094 236.557 87.2639 235.979C87.1885 235.701 87.1157 235.411 87.0457 235.112C86.9083 234.526 86.7709 233.931 86.6416 233.321C86.585 233.016 86.5204 232.703 86.4557 232.39C86.3426 231.804 86.2375 231.201 86.1324 230.591C86.1324 230.591 86.1324 230.519 86.1324 230.487L107.565 230.503Z" stroke="#263238" stroke-linecap="round" stroke-linejoin="round"/>
<path d="M228.453 348.67C228.453 348.67 227.232 350.341 226.78 350.341C224.914 350.758 223.083 351.314 221.3 352.003C219.773 352.605 218.876 353.014 219.926 354.411C223.28 358.803 231.5 359.558 235.767 360.465C240.034 361.373 242.774 361.373 243.226 358.193C243.679 355.014 242.919 349.417 242.919 349.417C242.919 349.417 234.546 351.095 228.453 348.67Z" fill="white" stroke="#263238" stroke-linecap="round" stroke-linejoin="round"/>
<path d="M243.21 358.306C238.502 359.129 233.668 358.888 229.067 357.599C223.119 355.865 220.831 353.793 219.967 352.621C219.377 353.023 219.231 353.512 219.926 354.42C223.28 358.812 231.499 359.566 235.767 360.474C240.034 361.381 242.709 361.381 243.21 358.306Z" fill="white" stroke="#263238" stroke-linecap="round" stroke-linejoin="round"/>
<path d="M259.98 348.221C259.98 348.221 256.933 350.791 256.327 351.393C255.721 351.995 252.367 352.308 252.819 354.123C253.272 355.937 255.866 357.335 258 357.599C260.133 357.864 265.314 360.321 266.526 360.169C267.738 360.016 271.375 360.321 272.013 356.845C272.652 353.368 271.706 348.518 271.706 348.518L259.98 348.221Z" fill="white" stroke="#263238" stroke-linecap="round" stroke-linejoin="round"/>
<path d="M264.699 357.446C261.96 356.539 260.739 356.539 256.933 355.632C255.418 355.263 254.008 354.554 252.811 353.56C252.767 353.745 252.767 353.937 252.811 354.122C253.272 355.937 255.858 357.334 257.991 357.599C260.125 357.864 265.305 360.321 266.518 360.168C267.73 360.016 271.367 360.321 271.997 356.868C270.235 358.225 266.954 358.169 264.699 357.446Z" fill="white" stroke="#263238" stroke-linecap="round" stroke-linejoin="round"/>
<path d="M225.713 238.532C225.713 238.532 223.733 255.932 224.646 272.127C225.559 288.322 228.153 307.231 228.76 312.523C229.366 317.814 230.133 340.216 230.133 341.581C230.027 342.817 229.769 344.036 229.366 345.21L228.153 346.117L227.846 348.839C230.707 350.281 233.721 351.398 236.833 352.171C241.092 353.079 243.379 351.866 243.533 350.806C243.687 349.747 243.379 347.33 243.379 345.362C243.379 343.395 243.072 341.276 243.072 339.003C243.072 336.731 243.533 312.675 243.687 309.351C243.84 306.027 243.84 303.594 243.986 300.872C244.131 298.15 245.966 273.187 245.966 273.187L248.253 269.1C248.253 269.1 249.926 297.7 250.839 300.117C251.752 302.534 259.066 341.276 259.672 342.183C260.278 343.09 258.46 343.845 258.614 344.752C258.767 345.66 260.133 350.052 260.133 350.052C260.133 350.052 264.247 351.866 266.833 352.019C269.419 352.171 270.639 351.866 271.682 349.899C272.534 348.38 272.855 346.624 272.595 344.905C272.33 343.124 271.974 341.358 271.528 339.614C271.076 337.494 271.229 317.974 270.009 311.463C268.789 304.951 266.202 301.177 266.049 295.878C265.895 290.578 267.568 270.007 267.116 264.258C266.663 258.509 266.962 255.482 265.588 250.335C264.214 245.189 262.089 239.592 262.089 239.592C262.089 239.592 243.226 245.478 225.713 238.532Z" fill="#263238" stroke="#263238" stroke-linecap="round" stroke-linejoin="round"/>
<path d="M237.035 185.892C237.035 185.892 230.125 190.115 227.337 191.167C224.549 192.219 219.773 193.014 219.255 195.655C218.738 198.297 217.922 202.52 217.922 202.52C217.922 202.52 213.008 215.448 212.216 217.953C211.424 220.458 211.82 224.416 213.679 225.476C215.538 226.536 217.663 226.4 219.651 225.87C221.64 225.34 226.691 219.013 226.691 219.013C226.691 219.013 225.882 233.393 225.495 234.445C225.107 235.497 223.765 239.062 224.961 240.122C226.157 241.182 240.769 245.534 244.487 245.534C248.204 245.534 259.495 243.815 261.216 242.627C262.937 241.439 263.479 241.174 263.641 239.062C263.802 236.95 263.511 237.352 263.778 234.445C264.045 231.538 268.021 212.943 268.554 210.959C269.088 208.976 272.409 200.144 271.747 196.314C271.084 192.484 264.473 185.876 261.386 185.073C258.298 184.27 242.345 184.84 237.035 185.892Z" fill="#7FC844" stroke="#263238" stroke-linecap="round" stroke-linejoin="round"/>
<path d="M240.357 155.942C240.357 155.942 237.124 160.688 237.561 162.406C237.997 164.124 237.965 164.646 237.561 165.176C237.156 165.706 234.643 167.159 235.306 168.083C236.074 168.987 236.918 169.825 237.827 170.588C237.827 170.588 238.231 174.546 238.894 174.94C239.557 175.333 240.615 175.598 241.319 172.965C242.022 170.331 244.107 162.8 244.107 161.724C244.107 160.648 244.47 155.148 240.357 155.942Z" fill="white" stroke="#263238" stroke-linecap="round" stroke-linejoin="round"/>
<path d="M244.867 150.796C244.867 150.796 238.49 151.061 237.965 153.301C237.44 155.541 240.616 158.055 241.149 158.448C241.683 158.841 239.686 160.431 240.22 161.66C240.701 162.596 241.281 163.478 241.949 164.293C241.949 164.293 240.22 173.005 239.953 173.399C239.686 173.792 238.094 169.047 237.828 170.628C237.561 172.21 237.698 173.792 237.432 174.587C237.165 175.382 235.443 178.409 236.235 179.597C237.027 180.786 237.561 181.316 239.953 180.786L242.378 180.256L241.982 184.744L257.652 183.291C257.652 183.291 257.248 177.887 257.781 175.775C258.315 173.664 264.691 165.61 262.962 159.283C261.232 152.956 248.455 149.873 244.867 150.796Z" fill="white" stroke="#263238" stroke-linecap="round" stroke-linejoin="round"/>
<path d="M262.93 159.243C261.2 152.908 248.455 149.873 244.867 150.796C244.867 150.796 238.49 151.061 237.965 153.301C237.44 155.541 240.616 158.054 241.149 158.448C241.683 158.841 239.686 160.431 240.22 161.66C240.701 162.596 241.281 163.478 241.949 164.293C241.949 164.293 240.22 173.005 239.953 173.398C239.686 173.792 238.094 169.047 237.828 170.628C237.561 172.21 237.698 173.792 237.432 174.587C237.165 175.382 235.443 178.409 236.235 179.597C237.027 180.785 237.561 181.315 239.953 180.785L242.378 180.256C242.378 180.256 244.374 178.65 244.503 177.485C244.632 176.321 244.77 170.757 244.899 169.833C245.028 168.91 245.828 167.722 246.758 167.858C247.645 168.943 248.158 170.283 248.221 171.68C248.487 174.322 249.417 175.775 251.809 176.305C253.888 176.595 256.008 176.28 257.911 175.398C258.921 172.796 264.57 165.249 262.93 159.243Z" fill="#263238" stroke="#263238" stroke-linecap="round" stroke-linejoin="round"/>
<path d="M243.404 169.006C243.404 169.006 244.866 164.646 246.063 166.236C247.259 167.826 246.992 172.17 245.529 173.358C244.066 174.546 242.878 171.086 243.404 169.006Z" fill="white" stroke="#263238" stroke-linecap="round" stroke-linejoin="round"/>
<path d="M234.91 187.61C234.91 187.61 237.827 183.122 241.286 181.933C244.745 180.745 256.286 180.48 258.145 180.617C260.004 180.753 261.337 185.097 261.337 185.097L234.91 187.61Z" fill="#7FC844" stroke="#263238" stroke-linecap="round" stroke-linejoin="round"/>
<path d="M225.373 207.796C226.036 212.284 226.699 219.037 226.699 219.037L221.122 202.28" stroke="#263238" stroke-linecap="round" stroke-linejoin="round"/>
<path d="M226.674 219.013C226.674 219.013 218.31 218.346 215.917 217.56" stroke="#263238" stroke-linecap="round" stroke-linejoin="round"/>
<path d="M227.071 221.518C227.071 221.518 229.495 233.128 233.714 237.617" stroke="#263238" stroke-linecap="round" stroke-linejoin="round"/>
<path d="M226.545 224.947C226.545 224.947 227.07 236.557 228.929 238.934" stroke="#263238" stroke-linecap="round" stroke-linejoin="round"/>
<path d="M216.047 207.137C216.047 207.137 213.663 207.137 213.259 208.061C212.855 208.984 214.455 211.224 214.455 211.224L216.047 207.137Z" fill="white" stroke="#263238" stroke-linecap="round" stroke-linejoin="round"/>
<path d="M213.251 209.377C213.251 209.377 210.6 210.301 211.634 211.489C212.184 212.153 212.863 212.699 213.631 213.095L214.439 211.248L213.251 209.377Z" fill="white" stroke="#263238" stroke-linecap="round" stroke-linejoin="round"/>
<path d="M211.634 211.489C211.634 211.489 210.826 213.055 211.214 213.529C211.85 214.02 212.563 214.405 213.323 214.669L213.63 213.063L211.634 211.489Z" fill="white" stroke="#263238" stroke-linecap="round" stroke-linejoin="round"/>
<path d="M211.368 213.946C211.234 214.136 211.144 214.351 211.102 214.578C211.06 214.806 211.068 215.039 211.125 215.263C211.368 215.921 212.693 216.403 212.693 216.403L213.356 214.669L211.368 213.946Z" stroke="#263238" stroke-linecap="round" stroke-linejoin="round"/>
<path d="M193.733 183.129C193.733 183.129 193.377 178.127 192.658 179.323C191.939 180.519 192.537 184.679 192.537 184.679C192.537 184.679 189.902 180.271 189.547 181.579C189.191 182.888 190.864 185.538 190.864 185.538C190.864 185.538 187.866 183.514 187.866 184.47C187.866 185.425 189.304 187.561 189.304 187.561L188.706 188.637C188.706 188.637 190.145 189.352 190.864 188.87C191.583 188.388 193.377 185.417 193.377 185.417L193.733 183.129Z" fill="white" stroke="#263238" stroke-linecap="round" stroke-linejoin="round"/>
<path d="M129.289 198.747L111.8 199.814L113.117 226.239L130.962 224.448L129.289 198.747Z" fill="#7FC844" stroke="#263238" stroke-linecap="round" stroke-linejoin="round"/>
<path d="M116.27 199.1C116.27 199.1 116.868 197.438 117.587 197.438C118.306 197.438 119.623 201.123 118.783 201.123C117.942 201.123 117.466 199.461 117.466 199.461L116.27 199.1Z" fill="white" stroke="#263238" stroke-linecap="round" stroke-linejoin="round"/>
<path d="M118.508 197.791C118.508 197.791 119.704 196.362 120.302 196.988C120.9 197.615 121.498 201.276 120.779 201.156C120.06 201.035 119.583 199.373 119.583 199.373L118.508 197.791Z" fill="white" stroke="#263238" stroke-linecap="round" stroke-linejoin="round"/>
<path d="M120.31 196.956C120.31 196.956 121.749 196.153 122.226 197.317C122.703 198.481 122.589 200.529 122.104 200.77C121.62 201.011 121.296 200.055 121.296 200.055C121.056 198.996 120.726 197.96 120.31 196.956Z" fill="white" stroke="#263238" stroke-linecap="round" stroke-linejoin="round"/>
<path d="M122.217 197.318C122.217 197.318 123.777 196.242 123.898 197.318C124.094 198.321 123.967 199.361 123.535 200.288C123.388 200.522 123.165 200.697 122.902 200.785C122.64 200.873 122.355 200.868 122.096 200.77C122.096 200.77 122.581 198.265 122.217 197.318Z" fill="white" stroke="#263238" stroke-linecap="round" stroke-linejoin="round"/>
<path d="M123.656 233.618C123.656 233.618 118.492 246.65 118.492 255.98C118.492 265.31 128.19 289.109 128.667 290.98C129.144 292.851 126.477 301.418 127.107 306.067C127.737 310.716 129.92 328.926 130.081 330.018C130.243 331.11 128.635 352.075 128.635 354.106C128.635 356.138 130.194 356.595 131.447 356.748C132.7 356.901 135.205 356.748 135.989 356.282C136.773 355.817 137.864 355.038 137.864 355.038C138.174 354.135 138.335 353.189 138.341 352.235C138.494 350.06 138.341 343.403 138.341 342.6C138.341 341.797 140.062 319.114 140.062 319.114C140.062 319.114 140.709 341.741 140.377 348.02C140.337 348.823 138.114 356.451 140.305 357.23C142.495 358.009 148.435 356.732 150.31 356.563C153.244 356.298 157.446 354.082 156.816 353.464C155.973 352.347 154.749 351.573 153.373 351.288C152.104 350.903 148.378 348.574 147.91 347.024C147.441 345.475 147.78 339.718 147.78 338.939C147.78 338.16 152.589 322.511 153.219 319.669C154.203 313.554 154.829 307.388 155.094 301.201C155.256 295.918 154.941 292.65 155.256 290.763C155.571 288.876 162.926 275.676 162.764 263.857C162.602 252.037 159.006 235.08 159.006 235.08L123.656 233.618Z" fill="white" stroke="#263238" stroke-linecap="round" stroke-linejoin="round"/>
<path d="M138.405 349.963C137.554 350.863 136.408 351.432 135.173 351.569C133.032 351.682 130.888 351.41 128.845 350.766C128.74 352.452 128.675 353.68 128.675 354.098C128.675 356.121 130.235 356.587 131.488 356.74C132.74 356.892 135.246 356.74 136.029 356.274C136.813 355.808 137.904 355.029 137.904 355.029C138.215 354.127 138.376 353.181 138.381 352.227C138.373 351.697 138.397 350.886 138.405 349.963Z" fill="white" stroke="#263238" stroke-linecap="round" stroke-linejoin="round"/>
<path d="M156.848 353.504C156.005 352.387 154.781 351.613 153.405 351.328C152.358 350.922 151.369 350.382 150.463 349.722L150.875 351.858C150.875 351.858 143.731 353.199 139.747 351.416C139.302 353.865 139.019 356.82 140.337 357.294C142.527 358.097 148.467 356.796 150.342 356.627C153.276 356.338 157.486 354.154 156.848 353.504Z" fill="white" stroke="#263238" stroke-linecap="round" stroke-linejoin="round"/>
<path d="M133.241 189.938C133.241 189.938 121.62 193.744 121.498 194.932C121.377 196.121 112.875 221.951 112.398 223.035C111.921 224.119 111.8 224.946 113.352 226.134C114.904 227.323 116.585 230.414 119.106 229.82C121.628 229.226 123.535 226.849 124.02 226.014C124.45 225.242 124.725 224.393 124.828 223.517C125.109 221.942 125.489 220.387 125.968 218.86C126.202 218.378 126.323 223.621 125.725 225.877C125.127 228.134 122.848 232.542 123.689 233.618C124.517 234.459 125.492 235.144 126.566 235.641C126.566 235.641 130.994 237.664 142.018 237.664C153.042 237.664 158.068 237.424 159.03 236.709C159.992 235.994 159.838 234.565 159.984 233.377C160.129 232.188 158.788 224.545 158.909 223.974C159.03 223.404 159.871 218.498 159.871 218.498C159.871 218.498 168.615 228.134 171.848 227.901C172.733 227.877 173.597 227.622 174.353 227.163C175.109 226.704 175.73 226.056 176.155 225.283L188.617 193.029C188.617 193.029 190.654 191.6 191.495 190.886C192.335 190.171 194.727 185.41 195.083 183.988C195.422 182.542 195.463 181.043 195.204 179.58C194.97 178.512 194.25 180.174 194.129 181.13C194.008 182.085 193.766 183.153 193.766 183.153C193.766 183.153 191.85 186.959 191.495 187.321C190.613 187.831 189.692 188.268 188.739 188.629C188.739 188.629 191.252 185.297 191.373 184.462C191.495 183.627 192.093 182.053 190.897 183.153C189.805 184.318 188.841 185.593 188.019 186.959C188.019 186.959 184.544 189.224 184.423 190.171C184.302 191.118 183.615 193.503 183.615 193.864C183.615 194.226 172.001 212.79 172.001 212.79L168.041 206.952C168.041 206.952 165.528 197.317 163.257 196.008C160.986 194.7 156.662 193.985 156.662 193.985C156.662 193.985 147.918 188.862 143.844 188.035C139.771 187.208 133.241 189.938 133.241 189.938Z" fill="white" stroke="#263238" stroke-linecap="round" stroke-linejoin="round"/>
<path d="M125.935 218.86L123.535 203.741" stroke="#263238" stroke-linecap="round" stroke-linejoin="round"/>
<path d="M158.699 163.426C159.458 164.579 159.896 165.912 159.967 167.288C160.186 169.801 159.79 172.338 160.186 172.981C160.582 173.623 162.748 174.466 162.384 175.526C162.02 176.586 160.283 177.598 160.283 177.598C160.283 177.598 160.17 182.415 159.224 183.588C158.278 184.76 153.567 183.78 153.567 183.78L152.007 189.457L139.472 185.539C139.472 185.539 141.088 184.961 139.941 181.074C139.506 179.319 138.863 177.621 138.025 176.016C138.025 176.016 137.468 169.432 145.59 165.232C153.712 161.033 158.699 163.426 158.699 163.426Z" fill="white" stroke="#263238" stroke-linecap="round" stroke-linejoin="round"/>
<path d="M158.666 171.72C158.796 172.523 158.666 173.221 158.367 173.269C158.068 173.318 157.729 172.699 157.559 171.888C157.39 171.077 157.559 170.379 157.85 170.331C158.141 170.283 158.529 170.909 158.666 171.72Z" fill="#263238"/>
<path d="M156.007 169.303C156.007 169.303 157.405 167.392 158.69 168.677" stroke="#263238" stroke-linecap="round" stroke-linejoin="round"/>
<path d="M159.046 178.617C158.589 178.653 158.13 178.579 157.708 178.402C157.286 178.224 156.914 177.948 156.622 177.597" stroke="#263238" stroke-linecap="round" stroke-linejoin="round"/>
<path d="M154.254 167.135C154.254 167.135 152.347 171.607 151.021 172.394C150.36 172.814 149.665 173.179 148.944 173.486C147.675 175.704 146.206 177.803 144.556 179.757C142.487 181.949 142.632 181.548 141.186 181.146C139.739 180.745 136.086 178.778 133.637 174.088C131.188 169.399 131.625 162.253 137.104 158.383C142.584 154.513 152.395 154.368 155.498 155.003C158.602 155.637 162.125 158.118 161.649 160.792C161.172 163.466 157.163 166.348 154.254 167.135Z" fill="#263238" stroke="#263238" stroke-linecap="round" stroke-linejoin="round"/>
<path d="M150.795 174.899C150.795 174.899 148.37 170.323 147.117 172.812C145.865 175.301 147.877 179.235 149.542 178.601" fill="white"/>
<path d="M150.795 174.899C150.795 174.899 148.37 170.323 147.117 172.812C145.865 175.301 147.877 179.235 149.542 178.601" stroke="#263238" stroke-linecap="round" stroke-linejoin="round"/>
<path d="M137.77 170.437C138.308 165.968 135.709 161.984 131.965 161.538C128.22 161.092 124.747 164.354 124.208 168.823C123.67 173.292 126.269 177.276 130.014 177.722C133.758 178.168 137.231 174.906 137.77 170.437Z" fill="#263238" stroke="#263238" stroke-linecap="round" stroke-linejoin="round"/>
<path d="M133.241 189.938C133.241 189.938 135.156 186.245 136.231 185.65C137.306 185.056 141.985 184.462 146.899 185.65C151.813 186.839 155.28 190.412 155.789 191.841C156.014 192.572 156.284 193.288 156.597 193.985C156.597 193.985 145.339 189.697 141.63 189.223C137.92 188.75 133.241 189.938 133.241 189.938Z" fill="white" stroke="#263238" stroke-linecap="round" stroke-linejoin="round"/>
<path d="M161.39 203.146L159.838 218.499L162.95 209.931" stroke="#263238" stroke-linecap="round" stroke-linejoin="round"/>
<path d="M171.937 212.79L174.571 216.242" stroke="#263238" stroke-linecap="round" stroke-linejoin="round"/>
<path d="M194.097 181.13C193.976 182.077 193.733 183.153 193.733 183.153C193.733 183.153 191.818 186.959 191.462 187.321C190.581 187.831 189.659 188.268 188.706 188.629C188.706 188.629 191.22 185.297 191.341 184.462C191.462 183.627 192.06 182.053 190.864 183.153C189.773 184.318 188.808 185.593 187.987 186.959C187.987 186.959 184.512 189.224 184.391 190.171C184.269 191.118 183.582 193.503 183.582 193.864C183.582 194.081 179.291 201.035 175.921 206.446L182.386 209.192L188.634 193.029C188.634 193.029 190.67 191.6 191.511 190.886C192.351 190.171 194.743 185.41 195.099 183.988C195.438 182.542 195.479 181.043 195.22 179.58C194.937 178.512 194.218 180.174 194.097 181.13Z" fill="white" stroke="#263238" stroke-linecap="round" stroke-linejoin="round"/>
<path d="M162.796 263.913C162.643 252.094 159.038 235.136 159.038 235.136L123.656 233.618C123.656 233.618 118.492 246.65 118.492 255.98C118.492 265.31 128.19 289.109 128.667 290.98C129.144 292.851 126.477 301.418 127.107 306.067C127.535 309.279 128.723 318.793 129.435 324.839C132.748 325.707 136.184 326.022 139.602 325.771C139.876 322.021 140.103 319.131 140.103 319.131C140.103 319.131 140.103 321.957 140.175 325.835C143.704 327.252 147.574 327.607 151.304 326.855C152.25 323.507 153.033 320.688 153.252 319.741C154.235 313.626 154.861 307.46 155.127 301.273C155.288 295.99 154.973 292.722 155.288 290.835C155.603 288.948 162.958 275.732 162.796 263.913Z" fill="#263238" stroke="#263238" stroke-linecap="round" stroke-linejoin="round"/>
<path d="M134.453 260.75L139.812 262.46C139.812 262.46 142.236 292.65 142.05 294.882C141.864 297.114 138.147 309.247 140.094 319.131" stroke="white" stroke-linecap="round" stroke-linejoin="round"/>
</svg>
