<svg width="68" height="41" viewBox="0 0 68 41" fill="none" xmlns="http://www.w3.org/2000/svg">
<path d="M33.208 0.0133835C21.2576 0.393208 17.7057 8.92996 16.8918 13.5547C17.9524 11.8405 21.2946 8.07908 26.2153 8.07908C31.9501 8.07908 36.3159 14.4798 38.9797 16.4777C42.2161 18.905 48.7194 22.1099 57.2569 19.5115C64.0646 17.4396 67.2218 10.2125 67.9124 6.78406C64.6195 11.2609 59.6248 13.9498 53.4461 10.7799C49.1913 8.59698 46.0094 -0.393523 33.208 0.0133835Z" fill="#07B6D5"/>
<path d="M16.3004 20.3059C4.36156 20.6853 0.813172 29.2138 0 33.8341C1.05959 32.1215 4.39852 28.3637 9.31452 28.3637C15.0437 28.3637 19.4052 34.7582 22.0665 36.7542C25.2998 39.1791 31.7967 42.381 40.3259 39.7851C47.127 37.7152 50.2812 30.4951 50.9711 27.07C47.6815 31.5424 42.6915 34.2288 36.5188 31.0619C32.2681 28.8811 29.0894 19.8993 16.3004 20.3059Z" fill="#07B6D5"/>
</svg>
