<svg width="220" height="179" viewBox="0 0 220 179" fill="none" xmlns="http://www.w3.org/2000/svg">
<g id="web-svg">
<g id="svg_background">
<path id="Vector" d="M213.045 83.3592C188.675 41.6192 122.57 56.4842 109.07 36.1842C102.155 25.8042 94.42 13.7392 83.2 7.47423C72.505 1.47423 60.105 -0.63077 49.295 0.15923C10.69 2.98423 -5.67503 37.5242 1.73997 75.4542C11.64 126.049 56.49 177.734 109.77 178.094C137.64 178.304 164.27 168.304 185.12 154.239L185.585 153.924C206.435 139.729 231.655 115.224 213.045 83.3592Z" fill="#7FC844"/>
<path id="Vector_2" opacity="0.7" d="M213.045 83.3592C188.675 41.6192 122.57 56.4842 109.07 36.1842C102.155 25.8042 94.42 13.7392 83.2 7.47423C72.505 1.47423 60.105 -0.63077 49.295 0.15923C10.69 2.98423 -5.67503 37.5242 1.73997 75.4542C11.64 126.049 56.49 177.734 109.77 178.094C137.64 178.304 164.27 168.304 185.12 154.239L185.585 153.924C206.435 139.729 231.655 115.224 213.045 83.3592Z" fill="white"/>
</g>
<g id="svg_vector">
<g id="main-window">
<path id="Vector_3" d="M200.04 45.5641V135.594C200.04 138.537 198.871 141.36 196.791 143.441C194.71 145.523 191.888 146.693 188.945 146.694H30.595C27.652 146.693 24.8299 145.523 22.7493 143.441C20.6688 141.36 19.5 138.537 19.5 135.594V45.5641C19.5 45.2991 19.5 45.0641 19.535 44.7841C19.7299 41.9835 20.9798 39.361 23.0324 37.4457C25.085 35.5305 27.7876 34.4649 30.595 34.4641H188.945C191.756 34.4653 194.461 35.5336 196.514 37.453C198.567 39.3725 199.815 41.9999 200.005 44.8041C200.03 45.0441 200.04 45.3041 200.04 45.5641Z" fill="white" stroke="#263238" stroke-width="1.10311" stroke-linecap="round" stroke-linejoin="round"/>
<path id="Vector_4" d="M24.9 48.9441H195.205V132.109C195.205 134.867 194.109 137.513 192.159 139.463C190.209 141.413 187.563 142.509 184.805 142.509H35.305C32.5468 142.509 29.9015 141.413 27.9511 139.463C26.0007 137.513 24.905 134.867 24.905 132.109V48.9441H24.9Z" fill="#263238"/>
<path id="Vector_5" opacity="0.2" d="M195.21 48.9441V132.109C195.225 134.852 194.149 137.488 192.221 139.439C190.292 141.389 187.668 142.493 184.925 142.509H35.185C32.4422 142.493 29.818 141.389 27.8893 139.439C25.9606 137.488 24.8854 134.852 24.9 132.109V48.9441H195.21Z" fill="white"/>
<path id="Vector_6" d="M200.005 44.8041H19.535C19.73 42.0035 20.9798 39.381 23.0324 37.4658C25.085 35.5505 27.7876 34.485 30.595 34.4841H188.945C191.752 34.485 194.455 35.5505 196.508 37.4658C198.56 39.381 199.81 42.0035 200.005 44.8041V44.8041Z" fill="#7FC844" stroke="#263238" stroke-width="1.10311" stroke-miterlimit="10"/>
<path id="Vector_7" d="M41.71 39.6242C41.71 40.0128 41.5948 40.3927 41.3789 40.7159C41.163 41.039 40.8561 41.2909 40.497 41.4396C40.1379 41.5883 39.7429 41.6272 39.3617 41.5514C38.9805 41.4756 38.6304 41.2885 38.3556 41.0136C38.0808 40.7388 37.8936 40.3887 37.8178 40.0075C37.742 39.6264 37.7809 39.2313 37.9296 38.8722C38.0783 38.5132 38.3302 38.2063 38.6533 37.9903C38.9765 37.7744 39.3564 37.6592 39.745 37.6592C40.2662 37.6592 40.766 37.8662 41.1345 38.2347C41.503 38.6032 41.71 39.103 41.71 39.6242Z" fill="#263238"/>
<path id="Vector_8" d="M50.02 39.6242C50.02 40.0128 49.9047 40.3927 49.6888 40.7159C49.4729 41.039 49.166 41.2909 48.8069 41.4396C48.4479 41.5883 48.0528 41.6272 47.6716 41.5514C47.2904 41.4756 46.9403 41.2885 46.6655 41.0136C46.3907 40.7388 46.2035 40.3887 46.1277 40.0075C46.0519 39.6264 46.0908 39.2313 46.2395 38.8722C46.3883 38.5132 46.6401 38.2063 46.9633 37.9903C47.2864 37.7744 47.6663 37.6592 48.055 37.6592C48.5761 37.6592 49.0759 37.8662 49.4444 38.2347C49.8129 38.6032 50.02 39.103 50.02 39.6242V39.6242Z" fill="#263238"/>
<path id="Vector_9" d="M56.365 41.5892C57.4503 41.5892 58.33 40.7094 58.33 39.6242C58.33 38.5389 57.4503 37.6592 56.365 37.6592C55.2798 37.6592 54.4 38.5389 54.4 39.6242C54.4 40.7094 55.2798 41.5892 56.365 41.5892Z" fill="#263238"/>
<path id="Vector_10" d="M195.205 48.9441V132.109C195.205 134.867 194.109 137.513 192.159 139.463C190.209 141.413 187.563 142.509 184.805 142.509H35.305C32.8977 142.509 30.5651 141.673 28.705 140.145C26.8449 138.617 25.5726 136.491 25.105 134.129V134.099C24.9779 133.44 24.9143 132.77 24.915 132.099V48.9441H195.205Z" stroke="#263238" stroke-width="1.10311" stroke-miterlimit="10"/>
<path id="Vector_11" d="M195.045 61.8041C194.316 61.3946 193.54 61.074 192.735 60.8491L191.8 56.6741H187.83L186.905 60.8491C186.095 61.07 185.316 61.3908 184.585 61.8041L181 59.5091L178.195 62.3041L180.45 65.8891C180.037 66.62 179.716 67.3993 179.495 68.2091L175.32 69.1341V73.1041L179.495 74.0391C179.714 74.8529 180.035 75.6357 180.45 76.3691L178.155 79.9791L180.965 82.7841L184.57 80.4891C185.299 80.9031 186.077 81.2255 186.885 81.4491L187.815 85.6191H191.77L192.7 81.4491C193.506 81.2233 194.282 80.9009 195.01 80.4891L195.195 80.6091V61.7041L195.045 61.8041ZM189.825 76.3041C188.81 76.3041 187.818 76.0031 186.974 75.4392C186.131 74.8753 185.473 74.0738 185.085 73.1361C184.697 72.1984 184.596 71.1667 184.794 70.1714C184.992 69.1762 185.481 68.2621 186.199 67.5448C186.917 66.8276 187.832 66.3394 188.827 66.142C189.823 65.9447 190.854 66.047 191.792 66.436C192.729 66.825 193.53 67.4834 194.093 68.3276C194.656 69.1719 194.956 70.1642 194.955 71.1791C194.955 71.8525 194.822 72.5194 194.564 73.1415C194.307 73.7636 193.929 74.3288 193.452 74.8048C192.976 75.2807 192.41 75.6581 191.788 75.9154C191.165 76.1727 190.499 76.3047 189.825 76.3041V76.3041Z" fill="#263238"/>
<path id="Vector_12" d="M123.495 65.8291V57.4591L114.695 55.5041C114.22 53.8037 113.549 52.1643 112.695 50.6191L113.76 48.9441H72.2101L73.235 50.5741C72.3706 52.1125 71.6989 53.7515 71.235 55.4541L62.4301 57.4141V65.8041L71.235 67.7691C71.6989 69.4844 72.3706 71.1366 73.235 72.6891L68.4 80.2941L74.3251 86.2141L81.925 81.3741C83.4668 82.2414 85.1068 82.9212 86.8101 83.3991L88.7701 92.1741H97.12L99.09 83.3791C100.788 82.8989 102.422 82.2192 103.96 81.3541L111.565 86.1941L117.485 80.2741L112.68 72.6691C113.532 71.1263 114.203 69.4905 114.68 67.7941L123.495 65.8291ZM92.995 72.4591C90.856 72.4591 88.7651 71.8248 86.9866 70.6364C85.208 69.4481 83.8219 67.759 83.0033 65.7828C82.1847 63.8066 81.9706 61.6321 82.3879 59.5342C82.8052 57.4363 83.8352 55.5092 85.3477 53.9967C86.8602 52.4842 88.7872 51.4542 90.8851 51.0369C92.9831 50.6196 95.1576 50.8338 97.1338 51.6523C99.11 52.4709 100.799 53.8571 101.987 55.6356C103.176 57.4141 103.81 59.5051 103.81 61.6441C103.811 63.0645 103.531 64.4712 102.988 65.7836C102.445 67.096 101.648 68.2885 100.644 69.2929C99.6395 70.2973 98.447 71.0939 97.1346 71.6372C95.8221 72.1805 94.4155 72.4597 92.995 72.4591V72.4591Z" fill="#263238"/>
<path id="Vector_13" d="M67.96 123.304L68.315 116.659L61.43 114.719C61.1104 113.354 60.6374 112.029 60.02 110.769L64.18 104.929L59.72 99.9842L53.49 103.484C52.2992 102.735 51.0257 102.126 49.695 101.669L48.505 94.6092L41.865 94.3042L39.945 101.209C38.577 101.516 37.2509 101.986 35.995 102.609L30.16 98.4542L25.205 102.909L28.735 109.144C27.9783 110.33 27.3672 111.602 26.915 112.934L24.915 113.264V122.264L26.375 122.674C26.6779 124.044 27.1464 125.372 27.77 126.629L24.9 130.654L25.09 134.099V134.129L28.055 137.414L34.295 133.889C35.4838 134.654 36.7616 135.27 38.1 135.724L39.27 142.504L39.325 142.789L45.965 143.139L46.14 142.504L47.885 136.239C49.2592 135.932 50.5919 135.462 51.855 134.839L57.68 138.989L62.63 134.539L59.13 128.299C59.8798 127.115 60.4825 125.844 60.925 124.514L67.96 123.304ZM50.325 112.929C49.1876 111.664 47.7005 110.765 46.0519 110.345C44.4033 109.925 42.6672 110.004 41.0632 110.571C39.4593 111.138 38.0595 112.168 37.041 113.53C36.0226 114.893 35.4311 116.527 35.3416 118.226C35.252 119.925 35.6683 121.612 36.5379 123.075C37.4074 124.537 38.6911 125.708 40.2266 126.441C41.762 127.173 43.4802 127.434 45.1639 127.19C46.8475 126.946 48.4209 126.208 49.685 125.069C51.3729 123.544 52.3878 121.413 52.5078 119.141C52.6277 116.87 51.8429 114.643 50.325 112.949V112.929Z" fill="#263238"/>
<path id="Vector_14" d="M121.07 113.399C121.327 112.37 121.463 111.315 121.475 110.254L126.25 107.754L124.93 102.909L119.54 103.159C118.994 102.254 118.345 101.415 117.605 100.659L119.2 95.5041L114.85 93.0041L111.21 96.9741C110.183 96.7261 109.132 96.592 108.075 96.5741L105.575 91.7991L100.735 93.1141L100.99 98.5091C100.084 99.0548 99.2454 99.7042 98.49 100.444L93.33 98.8491L90.83 103.194L94.83 106.829C94.5714 107.854 94.4387 108.907 94.435 109.964L89.65 112.464L90.97 117.304L96.37 117.049C96.9052 117.959 97.5519 118.799 98.295 119.549L96.69 124.679L101.045 127.179L104.665 123.239C105.693 123.498 106.75 123.631 107.81 123.634L110.31 128.414L115.15 127.099L114.935 122.489L114.9 121.699C115.818 121.159 116.668 120.509 117.43 119.764L122.585 121.364L124.715 117.644L125.075 117.014L121.07 113.399ZM109.635 116.339C108.394 116.681 107.079 116.647 105.857 116.241C104.635 115.835 103.562 115.076 102.772 114.058C101.983 113.041 101.513 111.813 101.423 110.528C101.333 109.244 101.626 107.962 102.266 106.844C102.905 105.727 103.862 104.824 105.015 104.252C106.168 103.679 107.466 103.461 108.742 103.627C110.019 103.792 111.218 104.333 112.187 105.181C113.156 106.029 113.851 107.146 114.185 108.389C114.63 110.046 114.401 111.812 113.548 113.302C112.696 114.791 111.289 115.883 109.635 116.339V116.339Z" fill="#263238"/>
<path id="Vector_15" d="M176.43 121.919L177.53 115.269L170.8 112.564C170.647 111.147 170.323 109.753 169.835 108.414L174.68 103.019L170.76 97.519L164.08 100.354C162.971 99.4651 161.759 98.713 160.47 98.114L160.08 90.869L153.43 89.769L150.705 96.469C149.294 96.6348 147.907 96.962 146.57 97.444L141.16 92.599L135.685 96.519L138.525 103.194C137.743 104.17 137.065 105.224 136.5 106.339C136.425 106.494 136.345 106.649 136.275 106.804L129.035 107.204L127.93 113.844L129.02 114.284L134.66 116.559C134.814 117.97 135.138 119.356 135.625 120.689L130.77 126.119L134.695 131.619L141.37 128.769C142.476 129.666 143.686 130.425 144.975 131.029L145.35 138.239L151.995 139.339L154.715 132.689C156.129 132.535 157.519 132.209 158.855 131.719L164.255 136.564L169.755 132.639L166.915 125.959C167.82 124.849 168.584 123.631 169.19 122.334L176.43 121.919ZM157.78 121.619C156.381 122.623 154.716 123.189 152.995 123.246C151.274 123.304 149.575 122.849 148.112 121.941C146.65 121.032 145.489 119.71 144.778 118.142C144.067 116.574 143.836 114.831 144.116 113.132C144.396 111.433 145.173 109.855 146.35 108.598C147.526 107.341 149.049 106.461 150.726 106.069C152.403 105.678 154.158 105.792 155.769 106.398C157.381 107.004 158.777 108.075 159.78 109.474C161.124 111.351 161.667 113.685 161.29 115.963C160.913 118.24 159.647 120.275 157.77 121.619H157.78Z" fill="#263238"/>
</g>
<g id="windows">
<path id="Vector_16" d="M86.3098 72.6892H34.0198C30.3996 72.6892 27.4648 75.624 27.4648 79.2442V151.639C27.4648 155.259 30.3996 158.194 34.0198 158.194H86.3098C89.9301 158.194 92.8648 155.259 92.8648 151.639V79.2442C92.8648 75.624 89.9301 72.6892 86.3098 72.6892Z" fill="#7FC844" stroke="#263238" stroke-width="1.10311" stroke-miterlimit="10"/>
<path id="Vector_17" opacity="0.2" d="M86.3098 72.6892H34.0198C30.3996 72.6892 27.4648 75.624 27.4648 79.2442V151.639C27.4648 155.259 30.3996 158.194 34.0198 158.194H86.3098C89.9301 158.194 92.8648 155.259 92.8648 151.639V79.2442C92.8648 75.624 89.9301 72.6892 86.3098 72.6892Z" fill="black"/>
<path id="Vector_18" d="M98.9498 85.7042V158.099C98.9505 158.96 98.7814 159.813 98.4523 160.609C98.1232 161.405 97.6404 162.128 97.0317 162.737C96.4229 163.347 95.7001 163.83 94.9045 164.16C94.1088 164.489 93.256 164.659 92.3948 164.659H40.1048C39.244 164.659 38.3917 164.488 37.5967 164.158C36.8017 163.828 36.0794 163.345 35.4712 162.736C34.863 162.127 34.3807 161.404 34.0519 160.608C33.7231 159.812 33.5542 158.96 33.5548 158.099V85.7042C33.5548 83.9665 34.2447 82.3 35.473 81.0709C36.7012 79.8417 38.3672 79.1505 40.1048 79.1492H92.3948C94.1333 79.1492 95.8006 79.8398 97.0299 81.0691C98.2592 82.2984 98.9498 83.9657 98.9498 85.7042Z" fill="white" stroke="#263238" stroke-width="1.10311" stroke-linecap="round" stroke-linejoin="round"/>
<path id="Vector_19" d="M98.9498 85.7042V89.5792H33.5548V85.7042C33.5548 83.9665 34.2447 82.3 35.473 81.0709C36.7012 79.8417 38.3672 79.1505 40.1048 79.1492H92.3948C94.1333 79.1492 95.8006 79.8398 97.0299 81.0691C98.2592 82.2984 98.9498 83.9657 98.9498 85.7042Z" fill="#7FC844" stroke="#263238" stroke-width="1.10311" stroke-miterlimit="10"/>
<path id="Vector_20" d="M55.7948 94.0691H39.7048V96.7691H55.7948V94.0691Z" fill="#7FC844"/>
<path id="Vector_21" d="M55.7948 118.264H39.7048V120.964H55.7948V118.264Z" fill="#7FC844"/>
<path id="Vector_22" d="M55.7948 140.204H39.7048V142.904H55.7948V140.204Z" fill="#7FC844"/>
<path id="Vector_23" d="M85.3998 100.754H39.7048V102.734H85.3998V100.754Z" fill="#263238"/>
<path id="Vector_24" d="M77.1598 104.539H39.7048V106.469H77.1598V104.539Z" fill="#263238"/>
<path id="Vector_25" d="M82.0648 108.264H39.7048V110.194H82.0648V108.264Z" fill="#263238"/>
<path id="Vector_26" d="M82.0648 111.984H39.7048V113.914H82.0648V111.984Z" fill="#263238"/>
<path id="Vector_27" d="M85.3998 122.694H39.7048V124.674H85.3998V122.694Z" fill="#263238"/>
<path id="Vector_28" d="M77.1598 126.479H39.7048V128.409H77.1598V126.479Z" fill="#263238"/>
<path id="Vector_29" d="M82.0648 130.204H39.7048V132.134H82.0648V130.204Z" fill="#263238"/>
<path id="Vector_30" d="M85.3998 146.784H39.7048V148.764H85.3998V146.784Z" fill="#263238"/>
<path id="Vector_31" d="M77.1598 150.574H39.7048V152.504H77.1598V150.574Z" fill="#263238"/>
<path id="Vector_32" d="M82.0648 154.299H39.7048V156.229H82.0648V154.299Z" fill="#263238"/>
<path id="Vector_33" d="M172.655 28.9492V58.2091C172.655 59.2358 172.453 60.2525 172.06 61.201C171.666 62.1495 171.09 63.0112 170.364 63.737C169.638 64.4627 168.776 65.0383 167.827 65.4307C166.878 65.8232 165.862 66.0248 164.835 66.0242H97.4449C96.4182 66.0248 95.4014 65.8232 94.4527 65.4307C93.5039 65.0383 92.6418 64.4627 91.9156 63.737C91.1894 63.0112 90.6133 62.1495 90.2202 61.201C89.8272 60.2525 89.6249 59.2358 89.6249 58.2091V28.9492C89.6262 26.8756 90.4505 24.8873 91.9168 23.421C93.383 21.9548 95.3713 21.1305 97.4449 21.1292H164.835C166.909 21.1292 168.898 21.953 170.364 23.4196C171.831 24.8861 172.655 26.8752 172.655 28.9492Z" fill="white" stroke="#222221" stroke-width="1.10311" stroke-miterlimit="10"/>
<path id="Vector_34" d="M172.655 28.9492V29.6191H89.6249V28.9492C89.6262 26.8756 90.4505 24.8873 91.9168 23.421C93.383 21.9548 95.3713 21.1305 97.4449 21.1292H164.835C166.909 21.1292 168.898 21.953 170.364 23.4196C171.831 24.8861 172.655 26.8752 172.655 28.9492Z" fill="#7FC844" stroke="#263238" stroke-width="1.10311" stroke-miterlimit="10"/>
<path id="Vector_35" d="M101.825 26.7741C101.657 26.9422 101.443 27.0568 101.21 27.1033C100.978 27.1498 100.736 27.1262 100.517 27.0355C100.297 26.9448 100.11 26.791 99.9777 26.5935C99.8457 26.3961 99.7753 26.164 99.7753 25.9266C99.7753 25.6891 99.8457 25.457 99.9777 25.2596C100.11 25.0622 100.297 24.9084 100.517 24.8176C100.736 24.7269 100.978 24.7033 101.21 24.7498C101.443 24.7964 101.657 24.911 101.825 25.0791C102.048 25.3047 102.173 25.6092 102.173 25.9266C102.173 26.2439 102.048 26.5485 101.825 26.7741V26.7741Z" fill="#263238"/>
<path id="Vector_36" d="M107.385 26.7741C107.217 26.9422 107.003 27.0568 106.771 27.1033C106.538 27.1498 106.296 27.1262 106.077 27.0355C105.857 26.9448 105.67 26.791 105.538 26.5935C105.406 26.3961 105.335 26.164 105.335 25.9266C105.335 25.6891 105.406 25.457 105.538 25.2596C105.67 25.0622 105.857 24.9084 106.077 24.8176C106.296 24.7269 106.538 24.7033 106.771 24.7498C107.003 24.7964 107.217 24.911 107.385 25.0791C107.608 25.3047 107.733 25.6092 107.733 25.9266C107.733 26.2439 107.608 26.5485 107.385 26.7741V26.7741Z" fill="#263238"/>
<path id="Vector_37" d="M112.945 26.7741C112.777 26.9422 112.563 27.0568 112.33 27.1033C112.098 27.1498 111.856 27.1262 111.637 27.0355C111.417 26.9448 111.23 26.791 111.098 26.5935C110.966 26.3961 110.895 26.164 110.895 25.9266C110.895 25.6891 110.966 25.457 111.098 25.2596C111.23 25.0622 111.417 24.9084 111.637 24.8176C111.856 24.7269 112.098 24.7033 112.33 24.7498C112.563 24.7964 112.777 24.911 112.945 25.0791C113.168 25.3047 113.293 25.6092 113.293 25.9266C113.293 26.2439 113.168 26.5485 112.945 26.7741Z" fill="#263238"/>
<path id="Vector_38" d="M122.06 34.9993H94.9198V58.4593H122.06V34.9993Z" stroke="#263238" stroke-width="1.10311" stroke-linecap="round" stroke-linejoin="round" stroke-dasharray="4.41 4.41"/>
<path id="Vector_39" d="M157.485 34.9993H126.25V36.6493H157.485V34.9993Z" fill="#263238"/>
<path id="Vector_40" d="M150.21 38.4141H126.25V40.0591H150.21V38.4141Z" fill="#263238"/>
<path id="Vector_41" d="M161.925 41.8142H126.25V43.4792H161.925V41.8142Z" fill="#263238"/>
<path id="Vector_42" d="M156.63 45.1292H126.25V46.7942H156.63V45.1292Z" fill="#263238"/>
<path id="Vector_43" d="M174.925 101.569H159.65C157.847 101.569 156.385 103.031 156.385 104.834V113.799C156.385 115.602 157.847 117.064 159.65 117.064H174.925C176.728 117.064 178.19 115.602 178.19 113.799V104.834C178.19 103.031 176.728 101.569 174.925 101.569Z" fill="white" stroke="#263238" stroke-width="1.10311" stroke-linecap="round" stroke-linejoin="round"/>
<path id="Vector_44" d="M163.42 106.229L159.225 108.859L163.12 112.309" stroke="#263238" stroke-width="1.10311" stroke-linecap="round" stroke-linejoin="round"/>
<path id="Vector_45" d="M171.06 112.559L174.83 109.349L170.48 106.499" stroke="#263238" stroke-width="1.10311" stroke-linecap="round" stroke-linejoin="round"/>
<path id="Vector_46" d="M165.46 114.539L168.555 104.829" stroke="#263238" stroke-width="1.10311" stroke-linecap="round" stroke-linejoin="round"/>
</g>
</g>
</g>
</svg>
